<svg id="security___shield_protection_safety_insurance_man_people" data-name="security _ shield, protection, safety, insurance, man, people" xmlns="http://www.w3.org/2000/svg" width="740.062" height="760.14" viewBox="0 0 740.062 760.14">
  <g id="Group" transform="translate(0 0)">
    <path id="Path" d="M294.614,68.495V101.83A406.616,406.616,0,0,1,169.743,395.014h0a32.379,32.379,0,0,1-44.871,0h0A406.616,406.616,0,0,1,0,101.831V68.495L147.307,0Z" transform="translate(124.236 9.925)" fill="#09f"/>
    <path id="Path-2" data-name="Path" d="M294.667,69.981c0,12.6.113,25.215-.025,37.819a405.051,405.051,0,0,1-36.586,163.8A407.159,407.159,0,0,1,215.3,344.147a402.4,402.4,0,0,1-26.959,32.708q-7.224,7.885-14.856,15.383c-4.594,4.513-9.225,8.442-15.513,10.346a31.137,31.137,0,0,1-18.523-.164c-6.276-2.017-10.845-6.1-15.444-10.631A407.233,407.233,0,0,1,95.234,360.3a405.12,405.12,0,0,1-91.2-232.081c-1.078-17.573-.762-35.206-.762-52.8V69.981l-.8,1.391,14.661-6.817,35.2-16.369L94.75,28.466l36.84-17.13,12.193-5.669c1.816-.845,4.09-1.525,5.744-2.671a1.762,1.762,0,0,1,.257-.12h-1.625L162.82,9.694l35.2,16.369,42.407,19.719,36.84,17.13c5.962,2.772,11.868,5.805,17.936,8.34.087.036.171.08.257.12,1.868.868,3.506-1.907,1.625-2.781l-14.774-6.87L246.883,45.245,204.3,25.443,167.488,8.328c-5.8-2.7-11.562-5.776-17.511-8.142-1.432-.57-2.649.3-3.96.905l-9,4.187-33.336,15.5L61.141,40.557l-38.272,17.8L1.829,68.136l-.978.455a1.586,1.586,0,0,0-.8,1.391c0,13.031-.144,26.07.041,39.1A408.456,408.456,0,0,0,109.269,381.24q7.394,7.956,15.2,15.51a35.816,35.816,0,0,0,15.7,9.24,34.328,34.328,0,0,0,18.128-.146,36.927,36.927,0,0,0,15.629-9.54,406.8,406.8,0,0,0,29.441-31.773A408.114,408.114,0,0,0,297,130.124c1.2-18.158.884-36.374.884-54.56V69.981A1.611,1.611,0,0,0,294.667,69.981Z" transform="translate(122.572 8.438)"/>
    <path id="Path-3" data-name="Path" d="M116.02,315.005a321.761,321.761,0,0,1-40.726-49.6c-9.542-14.421-18.288-29.918-23.378-46.527a76.452,76.452,0,0,1-3.3-20.413l-.576-19.778-.928-31.868-1.071-36.795L45.033,75.466,44.3,50.308c-.124-4.274.158-9-.633-13.212A20.9,20.9,0,0,0,27.041,20.642c-1.832-.323-3.68-.238-5.511-.534A21.643,21.643,0,0,1,6.171,9.568a33.16,33.16,0,0,1-3-8.425A1.612,1.612,0,0,0,.06,2a37.381,37.381,0,0,0,3.115,8.815,24.832,24.832,0,0,0,20.8,12.749A17.362,17.362,0,0,1,34.82,27.841c4.225,3.735,5.909,8.684,6.018,14.188.031,1.575.092,3.15.138,4.725l.648,22.259.965,33.14,1.079,37.072.979,33.628.668,22.929a92.811,92.811,0,0,0,1.293,15.264c3.081,15.786,10.6,30.763,18.718,44.506A307.752,307.752,0,0,0,102.53,305.5q5.462,6.025,11.212,11.778a1.611,1.611,0,0,0,2.277-2.277Z" transform="translate(128.085 83.191)"/>
    <path id="Path-4" data-name="Path" d="M4.533,1.552q-.161,3.317-.3,6.635-.406,9.149-.764,18.3-.551,13.946-1.018,27.9-.588,17.5-1.05,35.009Q.868,109.495.52,129.6.154,151.009.036,172.419-.074,194.21.154,216c.159,13.91.444,27.819.932,41.721.445,12.679,1.052,25.355,1.968,38.009.772,10.656,1.756,21.3,3.22,31.889q.461,3.329,1,6.647c.333,2.041,3.437,1.175,3.106-.856-1.612-9.884-2.654-19.858-3.492-29.835-1.025-12.189-1.71-24.406-2.225-36.627-.579-13.732-.934-27.473-1.155-41.215q-.346-21.6-.286-43.2.037-21.574.363-43.146.3-20.442.8-40.88.443-18.2,1.027-36.4.475-14.851,1.041-29.7.4-10.395.844-20.788c.139-3.213.4-6.443.435-9.659,0-.139.013-.278.02-.417.1-2.072-3.121-2.067-3.221,0Z" transform="translate(265.274 33.286)"/>
    <path id="Path-5" data-name="Path" d="M1.979,18.034c3.392-1.059,6.857-1.909,10.31-2.742,9.688-2.337,19.488-4.215,29.328-5.789C56.685,7.093,71.874,5.442,87.1,4.427A554.425,554.425,0,0,1,146.738,3.7a568.668,568.668,0,0,1,70.678,7.352q4.591.77,9.169,1.615c2.026.373,2.9-2.731.856-3.106A578.526,578.526,0,0,0,155.109.885,557.817,557.817,0,0,0,93.752.8q-24.073,1.3-47.96,4.817C35.172,7.2,24.6,9.126,14.135,11.548c-4.282.991-8.677,1.922-12.85,3.33-.054.018-.109.033-.163.05-1.972.616-1.13,3.726.856,3.106Z" transform="translate(171.093 177.254)"/>
    <path id="Path-6" data-name="Path" d="M.215,2.418a37.321,37.321,0,0,0,6.093,7.658,68.566,68.566,0,0,0,20.54,14.161,91.137,91.137,0,0,0,19.4,6.288c2.023.421,2.888-2.683.856-3.106A81.26,81.26,0,0,1,17.6,15.335,60.1,60.1,0,0,1,9.355,8.569Q7.873,7.111,6.505,5.542q-.564-.65-1.1-1.319c-.144-.179-.286-.36-.429-.541-.026-.033.177.236-.022-.028l-.227-.3A22.823,22.823,0,0,1,3,.792C1.992-1.021-.791.6.216,2.418Z" transform="translate(127.019 205.013)"/>
    <circle id="Oval" cx="30.521" cy="30.521" r="30.521" transform="translate(447.111 13.521)" fill="#fcb332"/>
    <path id="Path-7" data-name="Path" d="M30.465,1.556a29.176,29.176,0,0,1-18.813,27.1,29.535,29.535,0,0,1-10.1,1.806,1.611,1.611,0,0,0,0,3.221A29.176,29.176,0,0,1,28.659,52.5a29.533,29.533,0,0,1,1.806,10.1,1.611,1.611,0,0,0,3.221,0A29.176,29.176,0,0,1,52.5,35.493a29.532,29.532,0,0,1,10.1-1.806,1.611,1.611,0,0,0,0-3.221,29.176,29.176,0,0,1-27.1-18.814,29.534,29.534,0,0,1-1.806-10.1,1.611,1.611,0,0,0-3.221,0A32.121,32.121,0,0,0,62.6,33.687V30.466A32.121,32.121,0,0,0,30.465,62.6h3.221A32.121,32.121,0,0,0,1.555,30.466v3.221A32.49,32.49,0,0,0,31.719,12.634,32.228,32.228,0,0,0,33.686,1.556,1.611,1.611,0,0,0,30.465,1.556Z" transform="translate(445.556 11.965)"/>
    <circle id="Oval-2" data-name="Oval" cx="30.521" cy="30.521" r="30.521" transform="translate(1.555 197.648)" fill="#fcb332"/>
    <path id="Path-8" data-name="Path" d="M30.465,1.556a29.176,29.176,0,0,1-18.813,27.1,29.536,29.536,0,0,1-10.1,1.806,1.611,1.611,0,0,0,0,3.221A29.176,29.176,0,0,1,28.659,52.5a29.533,29.533,0,0,1,1.806,10.1,1.611,1.611,0,0,0,3.221,0A29.177,29.177,0,0,1,52.5,35.493a29.534,29.534,0,0,1,10.1-1.806,1.611,1.611,0,0,0,0-3.221,29.177,29.177,0,0,1-27.1-18.813,29.534,29.534,0,0,1-1.806-10.1,1.611,1.611,0,0,0-3.221,0A32.121,32.121,0,0,0,62.6,33.687V30.466A32.121,32.121,0,0,0,30.465,62.6h3.221A32.49,32.49,0,0,0,12.632,32.433,32.228,32.228,0,0,0,1.555,30.466v3.221A32.121,32.121,0,0,0,33.686,1.556,1.611,1.611,0,0,0,30.465,1.556Z" transform="translate(0 196.092)"/>
    <circle id="Oval-3" data-name="Oval" cx="19.325" cy="19.325" r="19.325" transform="translate(374.641 1.556)" fill="#fcb332"/>
    <path id="Path-9" data-name="Path" d="M19.271,1.556A17.9,17.9,0,0,1,1.556,19.27a1.611,1.611,0,0,0,0,3.221A17.9,17.9,0,0,1,19.271,40.206a1.611,1.611,0,0,0,3.221,0A17.9,17.9,0,0,1,40.207,22.491a1.611,1.611,0,0,0,0-3.221A17.9,17.9,0,0,1,22.492,1.556a1.611,1.611,0,0,0-3.221,0A20.936,20.936,0,0,0,40.207,22.491V19.27A20.936,20.936,0,0,0,19.271,40.206h3.221A20.936,20.936,0,0,0,1.556,19.27v3.221A20.936,20.936,0,0,0,22.492,1.556,1.611,1.611,0,0,0,19.271,1.556Z" transform="translate(373.085 0)"/>
    <path id="Path-10" data-name="Path" d="M39.725,39.8C41.056,20.376,41.05,20.778,41.05,9.419s8.262-13.036,11-1.771c2.618,18.168.02,50.009.02,50.009L99.311,96.7l91.541,1.074-1.893,37.04-134.2-3.758L0,71.472,5.368,44.631,25.23,30.674" transform="translate(289.132 144.81)" fill="#fc7f3a"/>
    <path id="Path-11" data-name="Path" d="M42.915,41.411c.438-6.391.959-12.786,1.2-19.188.075-1.975.1-3.952.115-5.928.015-2.9-.283-5.977.351-8.823a7.827,7.827,0,0,1,1.5-3.4,2.249,2.249,0,0,1,1.027-.768c-.285.125.307-.073.417-.092-.35.062.26.009.4.02-.354-.03.291.084.412.126.435.151-.243-.149.174.085.094.053.185.106.277.161A4.662,4.662,0,0,1,49.943,4.7a12.541,12.541,0,0,1,2.015,4.518,28.542,28.542,0,0,1,.6,4.7c.157,1.724.274,3.452.364,5.18.191,3.655.263,7.315.267,10.975.008,6.682-.206,13.364-.559,20.036q-.174,3.283-.4,6.564c-.059.851-.211,1.743-.191,2.6.022.916.654,1.294,1.265,1.8l2.578,2.131,9.148,7.561L88.581,90.218l8.554,7.071c.967.8,2.487,2.557,3.824,2.635,1.422.084,2.864.034,4.288.05l9.723.114,28.906.339,30.1.353,17.606.207.845.01-1.61-1.61-.637,12.469-1.022,19.995-.234,4.576,1.61-1.61-13.4-.375-31.974-.9L106.3,132.457l-33.425-.936-11.075-.31c-1.73-.048-3.512-.224-5.243-.147-.074,0-.149,0-.223-.006l1.139.472-5.438-5.918L38.973,111.4l-15.81-17.2L9.485,79.307,4.941,74.362c-.7-.757-1.357-1.625-2.124-2.312-.035-.032-.066-.071-.1-.106l.414,1.567L7.824,50.057,8.5,46.67l-.74.962L25.135,35.424l2.488-1.748C29.306,32.493,27.7,29.7,26,30.894L14.848,38.729,7.937,43.585C7,44.242,5.63,44.9,5.343,46.074,4.166,50.886,3.391,55.834,2.42,60.69L.732,69.132.2,71.81a4,4,0,0,0-.169,1.7A5.4,5.4,0,0,0,1.405,75.27l2.749,2.992,9.613,10.461,25.571,27.827,10.5,11.43c1.723,1.875,3.393,3.825,5.181,5.639.876.889,2.3.687,3.468.72l8.494.238,30.418.852,38.5,1.078,34.846.976,18.911.53.877.025a1.639,1.639,0,0,0,1.61-1.61l.637-12.469,1.022-19.995.234-4.576a1.63,1.63,0,0,0-1.61-1.61l-9.141-.107-21.845-.257-26.411-.31-22.91-.269-7.494-.088c-1.175-.014-2.413-.142-3.585-.042-.051,0-.1,0-.155,0l1.139.472-16-13.223L60.575,62.911l-5.786-4.782.472,1.139a308.339,308.339,0,0,0,.927-39.237c-.1-2.083-.231-4.166-.422-6.243A30.078,30.078,0,0,0,54.76,7.322C53.74,4.153,51.517,0,47.652,0c-3.725,0-5.691,3.961-6.279,7.12-.644,3.459-.337,7.1-.373,10.6-.082,7.907-.766,15.8-1.307,23.688-.142,2.069,3.08,2.06,3.221,0Z" transform="translate(287.552 143.199)"/>
    <path id="Path-12" data-name="Path" d="M81.576,1.9,0,0" transform="translate(440.305 304.545)" fill="#fc7f3a"/>
    <path id="Path-13" data-name="Path" d="M83.131,1.913l-8.105-.189L55.557,1.271,32,.722,11.622.248C8.328.171,4.993-.065,1.7.017c-.048,0-.1,0-.143,0-2.073-.048-2.073,3.173,0,3.221l8.105.189,19.468.453,23.559.548L73.064,4.9c3.294.077,6.629.313,9.923.231.048,0,.1,0,.143,0,2.073.048,2.073-3.173,0-3.221Z" transform="translate(438.75 302.921)"/>
    <path id="Path-14" data-name="Path" d="M93.713,65.881,0,64.83c1.483-5.722,11.141-28.9,11.944-36.453,1.2-11.3,1.145-21.514.081-28.377L70.63.926h29.525" transform="translate(422.491 241.659)" fill="#09f"/>
    <path id="Path-15" data-name="Path" d="M95.319,65.895l-9.342-.1-22.427-.252-27.016-.3-23.361-.262-7.735-.087c-1.2-.013-2.471-.141-3.673-.041-.053,0-.108,0-.16,0l1.553,2.039c.745-2.838,1.846-5.6,2.854-8.35,1.51-4.121,3.047-8.233,4.512-12.371,1.351-3.816,2.688-7.655,3.724-11.572,1.243-4.7,1.448-9.637,1.663-14.477A97.054,97.054,0,0,0,15.184,1.2L13.631,3.235l12.227.193,24.656.39,19.439.307c3.471.055,6.942.036,10.413.036h21.4a1.611,1.611,0,0,0,0-3.221h-18.4C79.274.94,75.187.987,71.1.922L53.553.645,28.589.25c-4.9-.077-9.832-.315-14.734-.233-.075,0-.15,0-.225,0a1.636,1.636,0,0,0-1.553,2.039,88.906,88.906,0,0,1,.688,16.081c-.1,3.308-.318,6.613-.629,9.908-.067.714-.132,1.429-.218,2.141-.022.185.015-.1.016-.113-.013.088-.025.176-.04.264-.028.162-.054.323-.083.485-.13.713-.291,1.421-.466,2.124-1.98,7.97-5.109,15.68-7.94,23.374C2.229,59.516.919,62.724.052,66.026a1.629,1.629,0,0,0,1.553,2.039l9.342.1,22.427.252,27.016.3,23.361.262c3.791.043,7.616.237,11.407.128.053,0,.107,0,.16,0,2.073.023,2.075-3.2,0-3.221Z" transform="translate(420.886 240.035)"/>
    <path id="Path-16" data-name="Path" d="M4.919,16.813c2.754.293,5.857-5.8,8.321-15.306L0,0C.4,9.867,2.156,16.519,4.919,16.813Z" transform="translate(463.059 288.737)"/>
    <path id="Path-17" data-name="Path" d="M6.53,20.034c2.589.209,4.438-2.557,5.517-4.513A51.713,51.713,0,0,0,16.4,3.546,1.637,1.637,0,0,0,14.85,1.507L1.61,0A1.619,1.619,0,0,0,0,1.61a51.659,51.659,0,0,0,1.742,12.8c.742,2.438,1.965,5.251,4.788,5.623a1.618,1.618,0,0,0,1.61-1.61,1.652,1.652,0,0,0-1.61-1.61c.5.066.187.005.073-.017-.263-.051.236.138.084.039a2.2,2.2,0,0,1-.209-.12c-.272-.223.263.264,0,0-.134-.132-.266-.261-.39-.4-.258-.3.177.279-.046-.07-.06-.093-.122-.185-.18-.28A10.852,10.852,0,0,1,4.63,12.79,51.922,51.922,0,0,1,3.221,1.61l-1.61,1.61,13.24,1.507L13.3,2.689A51.293,51.293,0,0,1,9.551,13.361a11.7,11.7,0,0,1-1.853,2.8c-.083.086-.618.543-.295.3-.151.113-.319.2-.474.3-.236.159.223-.063.055-.016-.061.017-.169.084-.234.072-.319-.062.369.085.056,0a1.652,1.652,0,0,0-.277-.008,1.624,1.624,0,0,0-1.61,1.61A1.643,1.643,0,0,0,6.53,20.034Z" transform="translate(461.449 287.127)"/>
    <path id="Path-18" data-name="Path" d="M0,101.992,107.174,0" transform="translate(470.575 280.702)" fill="#fc7f3a"/>
    <path id="Path-19" data-name="Path" d="M2.771,104.723l2.872-2.734,7.771-7.4L24.958,83.608,39.048,70.2l15.363-14.62L69.992,40.751,84.52,26.926,96.744,15.293l8.837-8.409c1.392-1.325,2.834-2.614,4.185-3.982.058-.058.12-.114.179-.17,1.5-1.432-.775-3.707-2.277-2.277l-2.872,2.733-7.771,7.4L85.479,21.568,71.389,34.977,56.026,49.6,40.445,64.425,25.918,78.251,13.693,89.884,4.857,98.293c-1.392,1.325-2.834,2.614-4.185,3.983-.058.058-.12.113-.179.17-1.5,1.432.775,3.707,2.278,2.278Z" transform="translate(468.944 279.11)"/>
    <path id="Path-20" data-name="Path" d="M36.286,0,79.408,59.363,8.533,129.671s-21.127-18.886,3.107-47.21c4.566-5.336,2.938-13.528.414-20.082A39.748,39.748,0,0,0,.758,46.557" transform="translate(654.776 622.227)" fill="#fc7272"/>
    <path id="Path-21" data-name="Path" d="M36.5,2.407,40.8,8.316,51.1,22.5,63.566,39.662,74.3,54.432l3.56,4.9a23.253,23.253,0,0,0,1.695,2.333,1.036,1.036,0,0,1,.076.1l.252-1.952-7.066,7.01L55.849,83.655,35.41,103.93l-17.67,17.528-5.847,5.8c-.909.9-1.953,1.765-2.773,2.751-.035.043-.08.08-.12.119H11.28a15.781,15.781,0,0,1-1.3-1.353q-.291-.331-.57-.672c-.126-.154-.25-.31-.374-.466-.054-.068-.181-.238.058.076q-.134-.175-.265-.352-.8-1.081-1.508-2.232a27.235,27.235,0,0,1-4.1-14.2c-.035-8.021,3.492-15.526,8.127-21.9,1.454-2,3.322-3.786,4.538-5.944a15.134,15.134,0,0,0,1.788-6.111c.4-4.451-.785-9.022-2.35-13.153A42.1,42.1,0,0,0,7.919,51.4,30.875,30.875,0,0,0,3.5,47.013a1.664,1.664,0,0,0-2.278,0,1.621,1.621,0,0,0,0,2.278,36.273,36.273,0,0,1,10.2,13.487,30.963,30.963,0,0,1,3.094,12.734,12.321,12.321,0,0,1-1.349,5.825,15.938,15.938,0,0,1-1.824,2.484Q9.9,85.569,8.564,87.406C3.768,94.007.218,101.8.007,110.065a30.6,30.6,0,0,0,3.925,15.651A26.127,26.127,0,0,0,9,132.4a1.643,1.643,0,0,0,2.277,0l7.066-7.01,16.963-16.827L55.746,88.293l17.67-17.528c2.866-2.843,5.858-5.6,8.619-8.55.038-.041.08-.08.12-.119a1.626,1.626,0,0,0,.252-1.952l-4.292-5.908L67.809,40.048,55.343,22.889,44.615,8.12C42.864,5.709,41.135,3.28,39.36.886l-.076-.1A1.657,1.657,0,0,0,37.081.2a1.623,1.623,0,0,0-.578,2.2Z" transform="translate(653.169 620.632)"/>
    <path id="Path-22" data-name="Path" d="M81.237,24.877l-70.964,70.4S2.522,85.84,0,80.1L13.543,66.888l1.873-4.261A29.386,29.386,0,0,1,30.067,47.741l4.749-2.178L49.063,31.43a10.427,10.427,0,0,0,2.446-10.994h0A10.427,10.427,0,0,1,53.955,9.442L63.473,0Z" transform="translate(657.209 662.856)" fill="#fff"/>
    <path id="Path-23" data-name="Path" d="M81.7,25.334l-7.057,7L57.689,49.148l-20.5,20.34L19.461,87.071l-5.84,5.793c-.908.9-1.95,1.763-2.769,2.747-.035.043-.08.08-.12.119h2.277C11.6,94.009,10.314,92.324,9,90.521a54.178,54.178,0,0,1-6.009-9.638l-.252,1.952L15.452,70.429a5.131,5.131,0,0,0,1.315-1.67c.648-1.475,1.269-2.966,1.956-4.424A28.114,28.114,0,0,1,31.1,51.4c1.533-.8,3.137-1.483,4.71-2.2a6.731,6.731,0,0,0,2.135-1.289l6.735-6.681,6.709-6.655a12.415,12.415,0,0,0,3.224-13.116,8.993,8.993,0,0,1,1.164-8.227,21.3,21.3,0,0,1,2.379-2.5l7.49-7.43.568-.563-2.529-.326L79.228,24.183l2.215,3.1a1.655,1.655,0,0,0,2.2.578,1.624,1.624,0,0,0,.578-2.2L68.675,3.885,66.46.783A1.636,1.636,0,0,0,63.931.457L57.709,6.629c-2.608,2.587-5.448,4.98-6.44,8.691a12.094,12.094,0,0,0-.279,4.8c.2,1.41.8,2.69,1.037,4.085a8.914,8.914,0,0,1-2.506,7.68c-1.661,1.686-3.361,3.334-5.041,5l-7.759,7.7-1.057,1.049c-.094.094-.2.183-.288.285-.23.276.073-.24.2-.142a8.628,8.628,0,0,0-1.736.8l-2.5,1.145A31.788,31.788,0,0,0,18.561,58.226,34.3,34.3,0,0,0,15.2,64.36l-1.1,2.507c-.058.132-.364.6-.327.743.019.071.4-.356.143-.185a16.924,16.924,0,0,0-2.169,2.116L7.868,73.328.874,80.151l-.416.406a1.666,1.666,0,0,0-.252,1.952,54.842,54.842,0,0,0,6.156,9.839c1.41,1.92,2.858,3.819,4.369,5.66a1.626,1.626,0,0,0,2.277,0l7.057-7L37.015,74.193l20.5-20.34L75.244,36.27c2.863-2.84,5.851-5.6,8.609-8.54.038-.041.08-.079.12-.119A1.611,1.611,0,0,0,81.7,25.334Z" transform="translate(655.612 661.261)"/>
    <path id="Path-24" data-name="Path" d="M2.05,3.45a5.638,5.638,0,0,1,.726-.157c.449-.074-.423.042.013,0,.15-.016.3-.03.449-.04a9.344,9.344,0,0,1,1.056-.008c.182.009.363.027.545.043.319.028-.4-.073,0,0,.114.021.228.039.342.062A10.233,10.233,0,0,1,6.5,3.728c.308.106-.294-.141.032.011.105.049.21.1.314.149a7.926,7.926,0,0,1,.731.417q.158.1.312.21c.05.035.36.3.086.06.239.211.479.413.706.638A1.61,1.61,0,0,0,10.96,2.935,10.077,10.077,0,0,0,4.472.031,9.357,9.357,0,0,0,1.193.344,1.611,1.611,0,1,0,2.05,3.45Z" transform="translate(668.032 694.128)"/>
    <path id="Path-25" data-name="Path" d="M2.039,3.45a5.611,5.611,0,0,1,.726-.157c.449-.074-.423.042.013,0,.15-.016.3-.03.449-.04a9.363,9.363,0,0,1,1.056-.008c.182.009.363.027.545.043.319.028-.4-.073,0,0,.114.021.228.039.342.062a10.228,10.228,0,0,1,1.321.381c.308.106-.294-.141.032.01.105.049.21.1.314.149a7.943,7.943,0,0,1,.731.417q.158.1.312.21c.05.035.36.3.086.06.239.211.479.413.706.638a1.61,1.61,0,0,0,2.277-2.277A10.077,10.077,0,0,0,4.462.031,9.357,9.357,0,0,0,1.183.344,1.611,1.611,0,0,0,2.039,3.45Z" transform="translate(665.863 701.287)"/>
    <path id="Path-26" data-name="Path" d="M2.048,3.45a5.637,5.637,0,0,1,.726-.157c.449-.074-.423.042.013,0,.15-.016.3-.03.449-.04a9.346,9.346,0,0,1,1.056-.008c.182.009.363.027.545.043.319.028-.4-.073,0,0,.114.021.228.039.342.062A10.229,10.229,0,0,1,6.5,3.728c.308.106-.294-.141.032.011.105.049.21.1.314.149a7.916,7.916,0,0,1,.731.417q.158.1.312.21c.05.035.36.3.086.06.239.211.479.413.706.638a1.61,1.61,0,0,0,2.277-2.277A10.077,10.077,0,0,0,4.471.031,9.357,9.357,0,0,0,1.192.344,1.611,1.611,0,1,0,2.048,3.45Z" transform="translate(661.528 707.721)"/>
    <path id="Path-27" data-name="Path" d="M0,70.309,70.876,0" transform="translate(662.367 680.639)" fill="#fff"/>
    <path id="Path-28" data-name="Path" d="M2.754,73.057l7.066-7.01L26.783,49.221,47.221,28.946l17.67-17.528c2.866-2.843,5.858-5.6,8.619-8.55.038-.041.08-.08.12-.119A1.611,1.611,0,0,0,71.352.471L64.286,7.48,47.324,24.308,26.885,44.582,9.216,62.111C6.35,64.954,3.358,67.715.6,70.661c-.038.041-.08.08-.12.119a1.611,1.611,0,0,0,2.278,2.277Z" transform="translate(660.751 679.029)"/>
    <path id="Path-29" data-name="Path" d="M111.037,0,99.845,72.514H.012s-1.7-28.287,35.454-31.328c7-.573,11.613-7.535,14.437-13.965A39.749,39.749,0,0,0,53.026,8.032" transform="translate(331.78 678.588)" fill="#fc7272"/>
    <path id="Path-30" data-name="Path" d="M111.093,1.18,109.98,8.4,107.3,25.727,104.07,46.688l-2.785,18.043-.924,5.986a22.881,22.881,0,0,0-.44,2.85,1.035,1.035,0,0,1-.02.127l1.553-1.182H5.7c-1.28,0-2.629-.123-3.906,0-.055.005-.113,0-.169,0l1.61,1.61a14.66,14.66,0,0,1,.013-1.559c.028-.593.079-1.186.147-1.776.016-.135.1-.746.018-.166.026-.18.051-.359.079-.539q.1-.629.223-1.255a30.712,30.712,0,0,1,1.674-5.545c.168-.413-.135.3.045-.108.054-.124.108-.248.164-.372q.169-.377.35-.749.4-.835.861-1.642A28.007,28.007,0,0,1,8.9,57.233a31.656,31.656,0,0,1,2.616-2.906,27.508,27.508,0,0,1,3.342-2.776,35.72,35.72,0,0,1,9.279-4.61,68.217,68.217,0,0,1,13.493-2.595c4.838-.594,8.564-3.818,11.331-7.639a39.96,39.96,0,0,0,6.829-16.719,36.056,36.056,0,0,0,.456-10.346,1.663,1.663,0,0,0-1.61-1.61,1.62,1.62,0,0,0-1.61,1.61,32.808,32.808,0,0,1-.175,8.394,38.66,38.66,0,0,1-5.38,15.108c-2.239,3.645-5.508,7.382-9.994,8-2.451.337-4.909.5-7.349.952a51.341,51.341,0,0,0-6.38,1.588C17.383,45.725,11.36,49.194,7.07,54.4A30.931,30.931,0,0,0,.833,66.934a25.421,25.421,0,0,0-.822,7.188,1.641,1.641,0,0,0,1.61,1.61H89.145c4.037,0,8.106.147,12.141,0,.056,0,.113,0,.169,0a1.624,1.624,0,0,0,1.553-1.182l1.114-7.217L106.8,50l3.235-20.961L112.816,11c.455-2.945.928-5.888,1.364-8.836.006-.043.013-.085.02-.127A1.662,1.662,0,0,0,113.074.056a1.623,1.623,0,0,0-1.981,1.125Z" transform="translate(330.171 676.979)"/>
    <path id="Path-31" data-name="Path" d="M13.339,0,.783.31S-3.57,14.2,8.246,20.209C19.724,26.049,13.339,0,13.339,0Z" transform="translate(470.039 382.187)"/>
    <path id="Path-32" data-name="Path" d="M14.972,0,2.417.31A1.657,1.657,0,0,0,.864,1.493a21.382,21.382,0,0,0-.72,8.493A16.461,16.461,0,0,0,9.066,23.211c1.621.817,3.558,1.453,5.352.807a5.543,5.543,0,0,0,3.2-3.616c1.212-3.432.8-7.5.362-11.035a71.529,71.529,0,0,0-1.451-8.184c-.492-2.012-3.6-1.16-3.106.856.458,1.875.808,3.782,1.1,5.688.236,1.518.436,3.151.543,4.96.054.908.08,1.819.061,2.729-.009.408-.026.816-.056,1.224q-.021.295-.051.59c-.012.117-.08.613-.031.283a12.157,12.157,0,0,1-.522,2.146c-.086.252.141-.234-.064.15-.069.13-.132.263-.207.39s-.151.238-.231.355c.21-.307.012-.022-.108.1-.043.044-.386.325-.169.165s-.1.046-.16.089c-.325.234.162-.022-.06.04-.164.046-.324.091-.491.127.359-.077.081-.005-.111-.011-.156,0-.311-.01-.467-.023.379.033-.07-.018-.2-.05-.207-.051-.411-.109-.613-.176A12.922,12.922,0,0,1,8.581,19.16a12.37,12.37,0,0,1-2.667-2.585,13.641,13.641,0,0,1-2.461-5.986A18.372,18.372,0,0,1,3.245,7.5q.009-.726.065-1.45.029-.37.069-.738c.01-.093.022-.187.033-.28.037-.32-.024.155,0-.039a17.233,17.233,0,0,1,.552-2.64L2.417,3.531l12.556-.31C17.041,3.171,17.049-.051,14.972,0Z" transform="translate(468.405 380.576)"/>
    <path id="Path-33" data-name="Path" d="M4.975,0S26.533,4.146,29.02,16.583,0,31.922,0,31.922" transform="translate(569.906 367.157)"/>
    <path id="Path-34" data-name="Path" d="M6.157,3.14a50.064,50.064,0,0,1,9.465,2.926c4.795,1.974,10.19,5.033,12.593,9.919a9.621,9.621,0,0,1,.624,1.638,6.242,6.242,0,0,1,.31,1.546,6.58,6.58,0,0,1,0,.688c-.007.135-.018.269-.032.4.037-.345.016-.108,0-.033-.048.238-.1.472-.167.7-.034.114-.284.754-.134.417a9.266,9.266,0,0,1-3.853,4.031c-4.157,2.636-9.069,3.952-13.946,5q-3.393.732-6.834,1.209l-.332.046c-.381.053.377-.049.011,0l-.568.073q-.455.057-.91.109c-.259.029-.518.058-.777.082A1.654,1.654,0,0,0,0,33.509a1.622,1.622,0,0,0,1.61,1.61,86.58,86.58,0,0,0,8.937-1.356c5.224-1.043,10.62-2.454,15.268-5.135A14.859,14.859,0,0,0,31.1,23.913a8.552,8.552,0,0,0,.929-6.857c-1.6-6.109-7.216-10.2-12.625-12.805A51.3,51.3,0,0,0,7.014.034C4.988-.357,4.121,2.746,6.157,3.14Z" transform="translate(568.295 365.57)"/>
    <path id="Path-35" data-name="Path" d="M179.015,84.434l-70.579,131.1L84.785,354.758,0,354.855s1.527-87.523,35.253-179.93c22.312-61.134,73.934-120.828,79.876-130.3C132.732,16.562,174.033,0,174.033,0" transform="translate(355.801 338.109)" fill="#fff"/>
    <path id="Path-36" data-name="Path" d="M179.235,85.3l-6.707,12.457L156.31,127.877l-19.794,36.766-17.7,32.882L109.136,215.5a6.621,6.621,0,0,0-.8,2.2l-1.234,7.262L101.881,255.7l-6.96,40.974-6.394,37.638L85,355.052l-.162.954,1.553-1.182-28.625.032-45.65.052-10.51.012,1.611,1.611c.273-15.358,1.9-30.769,3.767-46A625.059,625.059,0,0,1,29.755,202.821c5.854-19.005,12.647-37.6,21.618-55.367a443.365,443.365,0,0,1,27.218-46.121c8.012-12.007,16.481-23.7,25.2-35.2,4.736-6.242,9.93-12.288,14.225-18.85,8-12.215,19.1-21.763,31.258-29.7A172.113,172.113,0,0,1,174.962,3.7l.64-.274c.182-.077-.329.138.083-.034.128-.053.256-.107.385-.158,1.9-.763,1.07-3.88-.856-3.106a153.807,153.807,0,0,0-19.078,9.489c-12.374,7.1-24.323,15.662-33.741,26.468-3.279,3.762-5.877,7.936-8.812,11.943-2.309,3.151-4.719,6.229-7.1,9.327C98.4,67.875,90.448,78.5,82.854,89.386A501.543,501.543,0,0,0,54.9,133.9a325.042,325.042,0,0,0-22.884,51.582A610.877,610.877,0,0,0,5.307,298.848C2.66,317.678.541,336.717.019,355.742.012,356,0,356.267,0,356.53a1.632,1.632,0,0,0,1.61,1.61l28.625-.032,45.65-.052,10.51-.012a1.626,1.626,0,0,0,1.553-1.182l2.483-14.614,5.882-34.629,7.006-41.244,5.873-34.572,1.77-10.419.48-2.827c.048-.282.355-1.394,0-.544.513-1.221,1.286-2.388,1.913-3.553l5-9.286,16.327-30.326,19.8-36.787,17.556-32.61,9.541-17.723.435-.808c.983-1.825-1.8-3.453-2.781-1.625Z" transform="translate(354.19 336.433)"/>
    <path id="Path-37" data-name="Path" d="M72.141,0l37.382,163.81,86.029,130.077L135.5,353.1S75.207,289.641,34.441,200.116C7.472,140.889,2.408,62.133,0,51.212V10.71" transform="translate(508.414 347.257)" fill="#fff"/>
    <path id="Path-38" data-name="Path" d="M72.329,2.01l3.5,15.354,8.416,36.88L94.69,100l9.327,40.871,5.339,23.395c.751,3.292,3.188,5.98,5.028,8.762l18.839,28.485L158.614,239.9l23.663,35.779,13.007,19.666.618.935.252-1.952-20.276,19.993L143.545,346.2l-7.444,7.341h2.277c-9.171-9.659-17.6-20.1-25.807-30.576A636.981,636.981,0,0,1,58.478,242C48.963,225.044,39.887,207.6,32.751,189.5a360.65,360.65,0,0,1-15.518-51.263c-6-26.022-9.482-52.386-12.88-78.839-.2-1.57-.4-3.139-.645-4.7-.076-.5-.155-.993-.246-1.488-.04-.217-.093-.434-.126-.652-.055-.359.027.507.016.094-.079-3.073,0-6.159,0-9.232V12.291a1.611,1.611,0,0,0-3.221,0v23.92c0,6.417-.5,12.993.471,19.341,1.364,8.872,2.266,18.153,3.486,27.182,2.007,14.849,4.4,29.649,7.418,44.329a410.833,410.833,0,0,0,13.861,51.708c6.224,18,14.452,35.2,23.339,52.019a629.736,629.736,0,0,0,55.406,86.442,490.1,490.1,0,0,0,31.506,38.075c.161.172.321.344.483.515a1.633,1.633,0,0,0,2.278,0l20.275-19.993,32.334-31.883,7.444-7.341a1.632,1.632,0,0,0,.252-1.952L189.5,280.767,167.69,247.792,141.969,208.9l-21.233-32.1-6.189-9.358c-.51-.771-1-1.564-1.534-2.319-.112-.157-.217-.322-.32-.485-.157-.247.18.571.1.233q-1.957-8.6-3.926-17.206l-8.678-38.024L89.8,64.112,80.613,23.846,75.667,2.171l-.232-1.017C74.974-.867,71.867-.012,72.329,2.01Z" transform="translate(506.673 345.675)"/>
    <path id="Path-39" data-name="Path" d="M127.9,140.152C115.459,126.746,0,139.77,0,139.77L21.224,14.307C22.049,6.166,28.428,0,36.026,0h50.7c8.255,0,12.568,3.414,16.111,15.529C102.834,15.529,124.165,99.935,127.9,140.152Z" transform="translate(471.029 242.519)" fill="#458dc9"/>
    <path id="Path-40" data-name="Path" d="M22.594,0H86.93C95.185,0,99.5,3.414,103.042,15.529c0,0,21.331,84.406,25.062,124.623C115.667,126.746,0,139.977,0,139.977L15.28,52.3" transform="translate(470.822 242.519)" fill="#09f"/>
    <path id="Path-41" data-name="Path" d="M24.173,3.259H78.642c3.4,0,6.8-.039,10.2,0,3.876.047,7.233,1.066,9.676,4.179,2.3,2.929,3.652,6.775,4.592,10.333.875,3.311,1.652,6.651,2.46,9.978q2.638,10.851,5.151,21.732,3.3,14.271,6.359,28.594c2.162,10.157,4.221,20.338,6.083,30.555,1.663,9.123,3.206,18.289,4.3,27.486q.338,2.837.607,5.682l2.749-1.139c-1.786-1.9-4.489-2.866-6.933-3.568a65.923,65.923,0,0,0-11.329-1.971,249.6,249.6,0,0,0-31.337-.832c-11.818.254-23.627.9-35.418,1.731q-14.892,1.05-29.753,2.5-4.854.469-9.7.979c-1.5.158-3.093.191-4.572.5-.064.013-.131.015-.2.022l1.553,2.039,1.52-8.72L8.3,112.392l4.415-25.334,3.816-21.9c.618-3.543,1.276-7.082,1.853-10.633.008-.049.017-.1.026-.147A1.657,1.657,0,0,0,17.287,52.4a1.624,1.624,0,0,0-1.981,1.125l-1.52,8.72-3.65,20.941L5.721,108.52,1.9,130.418C1.287,133.961.629,137.5.052,141.05c-.008.049-.017.1-.026.147-.159.911.417,2.168,1.553,2.039,3.853-.44,7.711-.831,11.57-1.213q14-1.386,28.024-2.444c11.691-.876,23.4-1.578,35.119-1.938a306.453,306.453,0,0,1,32.272.347,81.022,81.022,0,0,1,11.809,1.551,34.405,34.405,0,0,1,4.414,1.224c.325.117.645.243.965.373-.371-.151-.08-.035.106.051.156.072.311.144.465.22a13.477,13.477,0,0,1,1.421.825c.1.065.192.141.289.209-.466-.328-.108-.09,0,.006.175.163.352.317.516.492a1.626,1.626,0,0,0,2.749-1.139c-.832-8.922-2.2-17.795-3.715-26.624-1.754-10.255-3.75-20.468-5.86-30.656q-3.085-14.9-6.479-29.734-2.724-11.971-5.6-23.906-1.576-6.546-3.2-13.079c-1.545-6.176-4.249-13.7-10.548-16.43C91.912-.353,87.347.038,83.1.038H24.173a1.611,1.611,0,0,0,0,3.221Z" transform="translate(469.243 240.871)"/>
    <path id="Path-42" data-name="Path" d="M99.957,30.172H0S1.141,18.016,3.393,12.165l18.919.158,4.331-1.706a29.386,29.386,0,0,1,20.885-.25l4.905,1.8H72.5a10.427,10.427,0,0,0,9.479-6.082h0A10.427,10.427,0,0,1,91.458,0h13.407Z" transform="translate(330.365 728.292)" fill="#fff"/>
    <path id="Path-43" data-name="Path" d="M101.568,30.195H5.68c-1.279,0-2.626-.122-3.9,0-.055.005-.113,0-.169,0l1.61,1.61c.205-2.174.486-4.343.813-6.5A54.144,54.144,0,0,1,6.556,14.226L5,15.408l17.661.147a5.251,5.251,0,0,0,2.061-.194c1.375-.542,2.746-1.093,4.125-1.624a28.313,28.313,0,0,1,19.939-.156c1.477.538,2.953,1.082,4.429,1.623a5.406,5.406,0,0,0,1.966.2h10.08c2.874,0,5.748.01,8.622,0a12.562,12.562,0,0,0,6.069-1.514,11.667,11.667,0,0,0,3.332-2.742,24.474,24.474,0,0,0,2.16-3.522,8.891,8.891,0,0,1,6.469-4.323,26.441,26.441,0,0,1,3.361-.064h11.2L104.923,1.2l-4.3,26.409-.612,3.763a1.66,1.66,0,0,0,1.125,1.981,1.623,1.623,0,0,0,1.981-1.125l4.3-26.41.612-3.763A1.636,1.636,0,0,0,106.476.022H97.9c-3.559,0-7.154-.31-10.43,1.383a11.685,11.685,0,0,0-3.4,2.658,18.359,18.359,0,0,0-2.2,3.486,8.928,8.928,0,0,1-6.331,4.528,17.157,17.157,0,0,1-2.882.11H57.032a22.521,22.521,0,0,0-2.865,0c-.328.043.222-.169.282.049-.019-.071-.54-.2-.611-.224l-2.545-.933A39.577,39.577,0,0,0,44.569,9.1,31.791,31.791,0,0,0,33.837,9.04a35.237,35.237,0,0,0-7.216,2.131l-2.515.991c-.024.009-.6.241-.6.237-.033-.074.664-.008.267-.055a29.14,29.14,0,0,0-3.147-.026l-5.468-.046-9.573-.08-.581,0A1.662,1.662,0,0,0,3.45,13.37,54.807,54.807,0,0,0,.892,24.687C.539,27.051.225,29.425,0,31.805a1.625,1.625,0,0,0,1.61,1.61H89.273c4.032,0,8.1.147,12.126,0,.056,0,.112,0,.169,0A1.612,1.612,0,0,0,101.568,30.195Z" transform="translate(328.755 726.659)"/>
    <path id="Path-44" data-name="Path" d="M.788,3c.14.074.273.16.4.247.082.054.421.226.44.313-.006-.029-.377-.3-.169-.129l.124.1q.154.127.3.261.3.269.575.562.157.167.3.342c.047.056.093.113.14.169.154.183-.237-.323-.044-.058a9.3,9.3,0,0,1,.569.868q.136.239.257.487c.038.078.073.158.11.237.108.232-.13-.345-.009-.015a8.8,8.8,0,0,1,.381,1.311c.023.114.039.23.061.344.034.178-.022-.185-.022-.176,0,.068.016.138.023.206.028.286.04.572.042.859a1.61,1.61,0,1,0,3.221,0A10.259,10.259,0,0,0,2.973.567,5.38,5.38,0,0,0,2.413.214,1.611,1.611,0,0,0,.788,3Z" transform="translate(374.044 714.298)"/>
    <path id="Path-45" data-name="Path" d="M.785,2.994c.14.074.273.16.4.247.082.054.421.226.44.313-.006-.029-.377-.3-.168-.129l.123.1q.154.127.3.261.3.269.575.562.157.167.3.342c.048.056.093.113.14.169.154.183-.237-.323-.044-.058a9.25,9.25,0,0,1,.569.868q.136.239.257.487c.038.078.073.158.11.237.108.232-.13-.345-.009-.015A8.8,8.8,0,0,1,4.171,7.69c.023.114.039.23.061.344.034.178-.022-.186-.022-.176,0,.068.016.138.023.206.028.286.04.572.042.859a1.61,1.61,0,0,0,3.221,0A10.26,10.26,0,0,0,2.969.565,5.38,5.38,0,0,0,2.41.212,1.611,1.611,0,0,0,.785,2.994Z" transform="translate(367.458 717.848)"/>
    <path id="Path-46" data-name="Path" d="M.785,2.994c.14.074.273.16.4.247.082.054.421.226.44.313-.006-.029-.377-.3-.169-.129l.124.1q.154.127.3.261.3.269.575.562.157.167.3.342c.048.056.093.113.14.169.154.183-.237-.323-.044-.058a9.3,9.3,0,0,1,.569.868q.136.239.257.487c.038.078.073.158.11.237.108.232-.13-.345-.009-.015A8.8,8.8,0,0,1,4.171,7.69c.023.114.039.23.061.344.034.178-.022-.185-.022-.176,0,.068.016.138.023.206.028.286.04.572.042.859a1.61,1.61,0,0,0,3.221,0A10.259,10.259,0,0,0,2.969.565,5.375,5.375,0,0,0,2.41.212,1.611,1.611,0,0,0,.785,2.994Z" transform="translate(359.855 719.368)"/>
    <path id="Path-47" data-name="Path" d="M109.51,33.477c-4.382-.38-8.4,3.354-10.51,6.762a28.7,28.7,0,0,0-3.228,8.045l1.582.214a107.93,107.93,0,0,0-5.11-29.26C90.3,13.5,87.674,7.358,83.26,3.05,80.9.747,77.213-1.307,74.168,1.033A9.316,9.316,0,0,0,71.247,5.8,29.075,29.075,0,0,0,70.2,14.3c-.009,9.979,2.446,20,5.249,29.506q.725,2.461,1.511,4.9l1.346-.783A68.042,68.042,0,0,0,62.745,36.853C58.693,34.8,54.21,33.039,49.625,32.8c-2.663-.14-6.025.378-7.32,3.054-1.547,3.2.512,7.125,2.208,9.808a53.116,53.116,0,0,0,6.764,8.324A130.264,130.264,0,0,0,62.95,64.536l.569-1.375a52.548,52.548,0,0,0-14.425,1.661,27.4,27.4,0,0,0-9.914,4.662,9.989,9.989,0,0,0-4.1,6.535c-.281,2.717,1.191,5.192,3.1,7,3.743,3.547,8.976,5.406,13.832,6.808V88.276c-5.08.8-10.7,2.734-13.337,7.51a13.331,13.331,0,0,0-1.151,9.07,11.4,11.4,0,0,0,.546,1.97l1.346-.783a14.626,14.626,0,0,0-10.08-4.672c-5.29-.172-11.973,3.2-13.333,8.693a7.233,7.233,0,0,0-.092,3.452l1.183-.909c-4.443-1.979-11.445-3.355-14.98.947C.453,115.58.017,118.276,0,120.827a.806.806,0,0,0,1.61,0c.024-3.607,1.174-7.28,5.043-8.2a15.11,15.11,0,0,1,7.942.757c.443.142.882.3,1.315.465.132.052.264.105.4.159.076.031-.2-.087-.02-.008a.817.817,0,0,0,1.183-.909,1.315,1.315,0,0,1-.076-.477,6.847,6.847,0,0,1,.053-1.57,8.013,8.013,0,0,1,2.795-4.7,12.838,12.838,0,0,1,15.183-1.452,12.551,12.551,0,0,1,2.858,2.292c.514.578,1.645-.031,1.346-.783a11.206,11.206,0,0,1,3.635-13.3,21.6,21.6,0,0,1,9.182-3.265c.824-.129.707-1.349,0-1.553-4.209-1.214-8.6-2.757-12.089-5.5-1.884-1.484-3.7-3.568-3.7-6.1.005-2.269,1.483-4.187,3.125-5.607a23.757,23.757,0,0,1,8.8-4.422,49.905,49.905,0,0,1,14.939-1.872c.649.009,1.126-.921.569-1.375-6.02-4.9-12.1-10.154-16.734-16.436-1.836-2.49-4.623-6.416-3.866-9.645a3.192,3.192,0,0,1,1.671-2.178,7.851,7.851,0,0,1,3.715-.751c4.077.013,8.165,1.525,11.8,3.243A65.3,65.3,0,0,1,77.165,49.067a.812.812,0,0,0,1.346-.783c-3.17-9.9-5.975-20.208-6.6-30.637a38.481,38.481,0,0,1,.36-9.228A12.165,12.165,0,0,1,74.337,3.1a3.581,3.581,0,0,1,3.088-1.509,5.539,5.539,0,0,1,1.817.5,9.871,9.871,0,0,1,2.116,1.4c4.17,3.562,6.7,9.052,8.584,14.076a98.44,98.44,0,0,1,5.533,26.75q.167,2.089.269,4.181a.809.809,0,0,0,1.582.214c1.182-4.642,3.268-9.741,7.584-12.308a8.127,8.127,0,0,1,4.6-1.316c1.032.089,1.026-1.522,0-1.61Z" transform="translate(210.22 633.61)"/>
    <path id="Path-48" data-name="Path" d="M26.22,13.392a36.627,36.627,0,0,0-2.045-5.1c-1.3-2.7-2.987-5.578-5.548-7.26a5.647,5.647,0,0,0-7.663,1.1c-1.844,2.5-1.238,6.132-.5,8.917a33.81,33.81,0,0,0,2.578,6.733l.909-1.183c-3.614-1.474-8.437-2.1-11.965-.133-1.51.841-2.422,2.276-1.775,4a9.587,9.587,0,0,0,3.26,3.811,25.413,25.413,0,0,0,3.17,2.161V25.035c-3.2,2.08-5.2,6-2.8,9.464.587.845,1.984.041,1.391-.813a4.2,4.2,0,0,1,.112-5.25,8.36,8.36,0,0,1,2.108-2.011.814.814,0,0,0,0-1.391,16.369,16.369,0,0,1-5.21-4.207c-.782-1.078-.916-2.076.313-2.837a10.169,10.169,0,0,1,6.838-.943,18.328,18.328,0,0,1,4.129,1.1c.7.287,1.2-.625.909-1.183a32.475,32.475,0,0,1-1.919-4.681c-.822-2.5-1.728-5.668-.763-8.252a3.942,3.942,0,0,1,5.925-1.7c2.248,1.4,3.716,3.979,4.871,6.284a33.923,33.923,0,0,1,2.122,5.206c.3.988,1.858.567,1.553-.428Z" transform="translate(290.942 709.057)"/>
    <path id="Path-49" data-name="Path" d="M.109,1.556.078,14.895C.065,20.436-.48,26.342,1.5,31.623c1.248,3.33,3.026,6.509,4.572,9.7L13.9,57.5l5.106,10.546c.9,1.865,3.681.234,2.781-1.625L9.847,41.752c-1.559-3.22-3.143-6.43-4.678-9.662-2.3-4.84-1.887-10.107-1.875-15.3L3.33,1.556a1.611,1.611,0,0,0-3.221,0Z" transform="translate(494.708 378.42)"/>
    <path id="Path-50" data-name="Path" d="M50.879,83.976v-18.8c3.476-1.566,6.084-3.644,7.266-6.217,5.826-12.676,0-58.958,0-58.958H3.656s-8.225,45.616,0,58.958c2.787,4.521,9.274,7.431,16.858,8.813l-.057,32.31,15.568-2.147" transform="translate(488.233 159.146)" fill="#fc7f3a"/>
    <path id="Path-51" data-name="Path" d="M54.089,85.587v-18.8l-.8,1.391c3.267-1.5,6.511-3.725,7.991-7.126a24.552,24.552,0,0,0,1.576-5.559A89.692,89.692,0,0,0,63.944,40.17,304.255,304.255,0,0,0,62.136,8.658c-.238-2.351-.486-4.7-.781-7.047A1.652,1.652,0,0,0,59.745,0H5.255A1.627,1.627,0,0,0,3.7,1.182C2.365,8.607,1.436,16.132.765,23.644A162.428,162.428,0,0,0,.028,42.39c.139,5.234.5,10.769,2.312,15.728a15.854,15.854,0,0,0,5.733,7.62c3.944,2.864,8.877,4.318,13.612,5.2L20.5,69.381l-.05,28.263-.007,4.047a1.639,1.639,0,0,0,2.039,1.553L38.051,101.1a1.62,1.62,0,0,0,1.125-1.981,1.654,1.654,0,0,0-1.981-1.125l-15.568,2.147,2.039,1.553.05-28.263.007-4.047a1.627,1.627,0,0,0-1.182-1.553,33.52,33.52,0,0,1-11.709-4.11,13.66,13.66,0,0,1-3.648-3.17,10.764,10.764,0,0,1-.947-1.507q-.167-.314-.319-.637c-.042-.088-.081-.177-.122-.265s-.08-.18-.119-.271q.083.2.018.038c-1.88-4.624-2.236-9.612-2.415-14.535a153.322,153.322,0,0,1,.574-18.179C4.28,20.025,4.9,14.645,5.6,9.763c.367-2.58.75-5.16,1.212-7.724L5.255,3.221h54.49l-1.61-1.61c.786,6.251,1.351,12.537,1.806,18.819.767,10.588,1.441,21.468.138,32.04a33.051,33.051,0,0,1-1.331,6.26c-.07.206-.146.411-.222.615-.029.079-.062.157-.093.235-.138.349.115-.237-.03.067a8.6,8.6,0,0,1-1.435,2.19,16.252,16.252,0,0,1-5.3,3.558,1.584,1.584,0,0,0-.8,1.391v18.8a1.611,1.611,0,0,0,3.221,0Z" transform="translate(486.634 157.535)"/>
    <path id="Path-52" data-name="Path" d="M2.411,4.455a6.51,6.51,0,0,1,.781-.426c.072-.034.145-.067.217-.1.294-.137-.036-.034-.058.022.025-.064.4-.154.465-.178A10.934,10.934,0,0,1,5.1,3.4c.236-.053.473-.095.712-.135.311-.053-.149.006.054-.006.143-.008.286-.028.43-.037a10.878,10.878,0,0,1,1.693.03c.164.015-.138-.031.144.018.168.029.335.059.5.094.319.068.633.153.944.252a8.748,8.748,0,0,1,1.849.842,1.611,1.611,0,0,0,1.625-2.781A12.173,12.173,0,0,0,4.5.238,10.66,10.66,0,0,0,.785,1.674a1.648,1.648,0,0,0-.578,2.2,1.627,1.627,0,0,0,2.2.578Z" transform="translate(506.422 182.542)"/>
    <path id="Path-53" data-name="Path" d="M2.419,3.979c-.33.151-.277.1.025,0,.38-.129.76-.251,1.151-.348a12.851,12.851,0,0,1,3.513-.354,4.81,4.81,0,0,1,4.6,3.334c.584,1.943-.215,4.141-1.114,5.868a17.778,17.778,0,0,1-2.316,3.4A3.781,3.781,0,0,0,7.073,17.8,4.248,4.248,0,0,0,7.1,19.446c.651,2.652,3.649,2.824,5.882,2.566a1.66,1.66,0,0,0,1.61-1.61,1.621,1.621,0,0,0-1.61-1.61,11.326,11.326,0,0,1-1.781.1,5.238,5.238,0,0,1-.525-.045c-.047-.006-.529-.124-.274-.051-.072-.021-.393-.274-.16-.074-.247-.211.178.016-.067-.114q.114.254.03-.02l.019.123a2.312,2.312,0,0,0,.018-.459l-.414.711c3.514-3.775,7.36-10.192,4.05-15.252C11.085-.558,5.1-.773.794,1.2A1.623,1.623,0,0,0,.216,3.4a1.648,1.648,0,0,0,2.2.578Z" transform="translate(487.485 182.589)"/>
    <path id="Path-54" data-name="Path" d="M1.622,6.256A8.828,8.828,0,0,0,6.728,4.262,5.686,5.686,0,0,0,8.163,2.424a1.723,1.723,0,0,0,.162-1.241A1.611,1.611,0,0,0,5.382.8a4.665,4.665,0,0,1-.478.78l.252-.326a4.994,4.994,0,0,1-.869.865l.326-.252a6.373,6.373,0,0,1-1.386.794L3.611,2.5a8.347,8.347,0,0,1-2.08.56L1.959,3c-.112.015-.225.029-.338.036a1.61,1.61,0,1,0,0,3.221Z" transform="translate(503.106 203.338)"/>
    <path id="Path-55" data-name="Path" d="M3.162,11.084A28.4,28.4,0,0,1,4.2,7.957a2.319,2.319,0,0,1,.252-.624c-.007.008-.167.388-.061.147l.069-.159q.079-.181.161-.36c.2-.443.42-.881.656-1.307a12.836,12.836,0,0,1,.752-1.209c.034-.048.285-.378.1-.136s.064-.075.1-.12a6.426,6.426,0,0,1,.447-.481c.088-.085.184-.162.273-.246.159-.151-.367.238-.017.017.086-.055.17-.112.259-.162.039-.022.079-.041.117-.063.167-.095.219-.007-.147.055.09-.015.183-.066.273-.09.04-.011.083-.017.123-.029.242-.077-.158.032-.21.023a1.9,1.9,0,0,0,.317-.01c.366-.008-.411-.083-.04-.006A1.611,1.611,0,0,0,8.475.089C5.992-.425,4.143,1.372,2.916,3.313A24.69,24.69,0,0,0,.445,8.924c-.139.431-.274.865-.389,1.3a1.611,1.611,0,0,0,3.106.856Z" transform="translate(528.474 186.755)"/>
    <circle id="Oval-4" data-name="Oval" cx="1.914" cy="1.914" r="1.914" transform="translate(491.699 190.148)"/>
    <path id="Path-56" data-name="Path" d="M3.825,2.719c0,.053,0,.106-.007.159-.005.15,0-.051.009-.058a1.4,1.4,0,0,0-.059.25.708.708,0,0,0-.051.143c-.007-.015.089-.177.019-.054-.05.088-.1.173-.154.258-.09.138.1-.091.018-.025a1.074,1.074,0,0,0-.084.092q-.035.036-.072.069l-.037.033q-.1.082.047-.032c-.046,0-.169.114-.209.136s-.06.03-.089.047c-.134.077.173-.05-.017.007-.082.025-.162.051-.247.069-.152.032,0-.033.034,0a.564.564,0,0,0-.132.01c-.089,0-.177,0-.266-.007-.117-.005.206.042.033,0-.05-.011-.1-.022-.15-.036s-.1-.031-.145-.047c-.11-.035.043-.017.052.023a1.345,1.345,0,0,0-.22-.12c-.035-.022-.068-.05-.1-.07-.093-.053.145.134.027.017a2.453,2.453,0,0,0-.208-.214c.034,0,.1.141.035.044-.027-.042-.056-.083-.082-.126s-.034-.058-.049-.088l-.023-.045q-.055-.117.019.054c.015-.037-.068-.2-.078-.242s-.015-.067-.022-.1c-.036-.159.013.19,0-.019a1.945,1.945,0,0,1,0-.24c0-.085.06-.178-.006.005a.934.934,0,0,0,.02-.1c.019-.084.046-.164.072-.245.053-.168-.089.159,0,.007.025-.044.046-.089.072-.132s.046-.07.068-.105c.081-.129.025.028-.02.024a2.043,2.043,0,0,0,.171-.181c.038-.035.132-.068.033-.034s.006,0,.039-.026a1.868,1.868,0,0,0,.262-.147c0,.012-.191.068-.052.023.049-.016.1-.033.145-.047l.1-.025c.027-.006.184-.016.046-.013h.05c.045,0,.089,0,.134,0s.089,0,.133.006c.172.006-.161-.039-.007,0,.1.025.2.051.3.083.16.051-.115-.074-.029-.012.046.033.106.054.155.083.029.017.057.035.085.054s.055.038.082.058q-.145-.114-.047-.032l.176.176c.123.123-.1-.153,0-.007.027.042.056.083.082.126s.047.089.072.132c.076.134-.052-.165,0-.007.031.1.058.2.083.3s-.04-.023-.005-.059a1,1,0,0,0,.012.212.805.805,0,1,0,1.61,0A2.766,2.766,0,0,0,3.616.154,2.716,2.716,0,1,0,5.435,2.718a.805.805,0,0,0-1.61,0Z" transform="translate(490.897 189.343)"/>
    <circle id="Oval-5" data-name="Oval" cx="1.914" cy="1.914" r="1.914" transform="translate(509.726 190.148)"/>
    <path id="Path-57" data-name="Path" d="M3.825,2.719c0,.053,0,.106-.007.159-.005.15,0-.051.009-.058a1.4,1.4,0,0,0-.059.25.708.708,0,0,0-.051.143c-.007-.015.089-.177.019-.054-.05.088-.1.173-.154.258-.09.138.1-.091.018-.025a1.062,1.062,0,0,0-.084.092q-.035.036-.072.069l-.037.033q-.1.082.047-.032c-.046,0-.169.114-.209.136s-.06.03-.089.047c-.134.077.173-.05-.017.007-.082.025-.162.051-.247.069-.152.032,0-.033.034,0a.564.564,0,0,0-.132.01c-.089,0-.177,0-.266-.007-.117-.005.206.042.033,0-.05-.011-.1-.022-.15-.036s-.1-.031-.146-.047c-.11-.035.043-.017.052.023a1.344,1.344,0,0,0-.22-.12c-.035-.022-.068-.05-.1-.07-.093-.053.145.134.027.017a2.43,2.43,0,0,0-.208-.214c.034,0,.1.141.035.044-.027-.042-.056-.083-.082-.126s-.034-.058-.049-.088l-.023-.045q-.055-.117.019.054c.015-.037-.068-.2-.078-.242s-.015-.067-.022-.1c-.036-.159.013.19,0-.019a1.945,1.945,0,0,1,0-.24c0-.085.06-.178-.006.005a.915.915,0,0,0,.02-.1c.019-.084.046-.164.072-.245.053-.168-.089.159,0,.007.025-.044.046-.089.072-.132s.046-.07.068-.105c.081-.129.025.028-.02.024a2.055,2.055,0,0,0,.171-.181c.038-.035.132-.068.033-.034s.006,0,.039-.026a1.864,1.864,0,0,0,.262-.147c0,.012-.191.068-.052.023.049-.016.1-.033.146-.047l.1-.025c.027-.006.184-.016.047-.013h.05c.045,0,.089,0,.134,0s.089,0,.133.006c.172.006-.161-.039-.007,0,.1.025.2.051.3.083.16.051-.115-.074-.029-.012.046.033.106.054.155.083.029.017.057.035.085.054s.055.038.082.058q-.145-.114-.047-.032l.176.176c.123.123-.1-.153,0-.007.027.042.056.083.082.126s.047.089.072.132c.076.134-.052-.165,0-.007.032.1.058.2.083.3s-.04-.023-.005-.059a1,1,0,0,0,.012.212.805.805,0,1,0,1.61,0A2.766,2.766,0,0,0,3.616.154,2.716,2.716,0,1,0,5.435,2.718a.805.805,0,1,0-1.61,0Z" transform="translate(508.924 189.343)"/>
    <path id="Path-58" data-name="Path" d="M1.556,3.286H89.079c4.037,0,8.106.147,12.141,0,.056,0,.113,0,.169,0a1.611,1.611,0,0,0,0-3.221H13.865c-4.037,0-8.106-.147-12.141,0-.056,0-.113,0-.169,0A1.611,1.611,0,0,0,1.556,3.286Z" transform="translate(330.236 748.087)"/>
    <path id="Path-59" data-name="Path" d="M81.576,88.475,0,86.576C1.483,80.854,11.35,58.52,12.153,50.97c1.2-11.3,1.145-21.514.081-28.377l80.173,2.56,7.711-13.062a12.74,12.74,0,0,1,10.971-6.264H122.6V0h0a14.681,14.681,0,0,1,13.759,9.558l.509,2.275a4.764,4.764,0,0,1-4.648,5.8H120.456" transform="translate(416.148 234.074)" fill="#09f"/>
    <path id="Path-60" data-name="Path" d="M83.18,88.474l-8.105-.189-19.468-.453-23.559-.548L11.671,86.81l-6.723-.157a30.689,30.689,0,0,0-3.2-.075,1.388,1.388,0,0,1-.143,0l1.553,2.039a81.421,81.421,0,0,1,2.951-8.329c1.546-4.031,3.123-8.049,4.623-12.1,1.386-3.74,2.761-7.507,3.793-11.362,1.256-4.691,1.408-9.669,1.61-14.5a96.4,96.4,0,0,0-.744-18.554l-1.553,2.039,7.959.254,19.121.61,23.144.739,20.028.639c3.246.1,6.535.371,9.784.312.045,0,.091,0,.136,0a1.61,1.61,0,0,0,1.391-.8l7.092-12.014c1.513-2.563,3.389-4.759,6.289-5.81,2.515-.912,5.185-.7,7.812-.7h7.614a1.634,1.634,0,0,0,1.61-1.61V1.61l-1.61,1.61a13.1,13.1,0,0,1,8.943,3.537,13.459,13.459,0,0,1,2.924,4.041,12.989,12.989,0,0,1,.81,2.9,3.231,3.231,0,0,1-3.394,3.934c-1.981.009-3.962,0-5.943,0h-5.487a1.611,1.611,0,0,0,0,3.221c3.9,0,7.8.079,11.7,0a6.437,6.437,0,0,0,6.36-7.3A15.433,15.433,0,0,0,136.2,5.266,16.38,16.38,0,0,0,124.208,0a1.634,1.634,0,0,0-1.61,1.61V7.438l1.61-1.61h-6.844c-2.648,0-5.442-.215-8.038.4a14.7,14.7,0,0,0-9.193,7q-1.958,3.308-3.909,6.621l-3.6,6.105,1.391-.8L86.052,24.9l-19.121-.61-23.144-.739L23.759,22.91c-3.246-.1-6.535-.371-9.784-.312-.045,0-.091,0-.136,0a1.635,1.635,0,0,0-1.553,2.039,88.152,88.152,0,0,1,.7,15.726c-.091,3.232-.292,6.461-.586,9.68-.071.782-.145,1.564-.23,2.345-.009.084-.086.677-.028.282q-.035.241-.077.482c-.118.684-.272,1.362-.44,2.036C9.665,63.047,6.4,70.619,3.489,78.165A92.6,92.6,0,0,0,.052,87.758,1.63,1.63,0,0,0,1.605,89.8l8.105.189,19.468.453,23.559.548,20.377.474c3.294.077,6.629.313,9.923.231.048,0,.1,0,.143,0,2.073.048,2.073-3.173,0-3.221Z" transform="translate(414.543 232.463)"/>
    <path id="Path-61" data-name="Path" d="M4.919,16.813c2.754.293,5.857-5.8,8.321-15.306L0,0C.4,9.868,2.156,16.519,4.919,16.813Z" transform="translate(411.525 303.768)"/>
    <path id="Path-62" data-name="Path" d="M6.53,20.034c2.589.208,4.438-2.557,5.517-4.513A51.714,51.714,0,0,0,16.4,3.546,1.637,1.637,0,0,0,14.85,1.507L1.61,0A1.619,1.619,0,0,0,0,1.61a51.664,51.664,0,0,0,1.742,12.8c.742,2.438,1.965,5.251,4.788,5.623a1.618,1.618,0,0,0,1.61-1.61,1.652,1.652,0,0,0-1.61-1.61c.5.066.187.005.073-.017-.263-.051.236.138.084.039a2.184,2.184,0,0,1-.209-.12c-.272-.223.263.264,0,0-.134-.132-.266-.261-.39-.4-.258-.3.177.279-.046-.07-.06-.093-.122-.185-.18-.28A10.849,10.849,0,0,1,4.63,12.79,51.918,51.918,0,0,1,3.221,1.611L1.61,3.221,14.85,4.728,13.3,2.689A51.289,51.289,0,0,1,9.551,13.361a11.7,11.7,0,0,1-1.853,2.8c-.084.086-.618.543-.295.3-.151.113-.319.2-.474.3-.236.159.223-.063.055-.016-.061.017-.169.084-.234.072-.319-.062.369.085.056,0a1.651,1.651,0,0,0-.276-.008,1.624,1.624,0,0,0-1.61,1.61A1.643,1.643,0,0,0,6.53,20.034Z" transform="translate(409.914 302.157)"/>
    <path id="Path-63" data-name="Path" d="M0,0A30.159,30.159,0,0,0,11.083.752" transform="translate(508.691 227.094)" fill="#458dc9"/>
    <path id="Path-64" data-name="Path" d="M1.183,3.165a29.611,29.611,0,0,0,11.939.752,1.62,1.62,0,0,0,1.125-1.981A1.654,1.654,0,0,0,12.266.811,23.287,23.287,0,0,1,8.491.972Q7.6.947,6.714.869,6.281.831,5.849.781L5.438.731c-.295-.037.369.056-.122-.017A26.3,26.3,0,0,1,2.039.058a1.611,1.611,0,1,0-.856,3.106Z" transform="translate(507.08 225.482)"/>
    <path id="Path-65" data-name="Path" d="M0,50.779c1.332-19.424,2.137-30,2.137-41.36s8.262-13.036,11-1.771c2.618,18.169.02,50.009.02,50.009" transform="translate(318.382 131.926)" fill="#fc7f3a"/>
    <path id="Path-66" data-name="Path" d="M3.226,52.39c.661-9.638,1.4-19.276,1.836-28.928.166-3.68.276-7.362.3-11.045A19.794,19.794,0,0,1,6.022,6.3a7.266,7.266,0,0,1,.9-1.859,3.533,3.533,0,0,1,1.06-1c.045-.028.468-.2.138-.079.132-.048.267-.083.4-.118.418-.108-.311-.011.12-.016.14,0,.277,0,.417.009-.348-.029.292.085.412.126a4.058,4.058,0,0,1,.727.433,9.054,9.054,0,0,1,2.4,3.83,23.962,23.962,0,0,1,1.056,5.916c.187,1.981.32,3.967.419,5.955.417,8.379.279,16.787-.059,25.167-.2,4.871-.447,9.747-.843,14.607-.168,2.066,3.054,2.055,3.221,0a308.308,308.308,0,0,0,.927-39.237c-.1-2.083-.231-4.166-.422-6.243a30.083,30.083,0,0,0-1.006-6.466C14.863,4.152,12.64,0,8.776,0,5.051,0,3.085,3.961,2.5,7.12a37.087,37.087,0,0,0-.368,6.45Q2.1,16.474,2,19.376C1.641,30.394.759,41.394,0,52.39c-.142,2.069,3.08,2.06,3.221,0Z" transform="translate(316.767 130.315)"/>
    <path id="Path-67" data-name="Path" d="M0,50.779c1.332-19.424,2.137-30,2.137-41.36s8.262-13.036,11-1.771c2.618,18.168-.367,51.9-.367,51.9" transform="translate(307.497 130.033)" fill="#fc7f3a"/>
    <path id="Path-68" data-name="Path" d="M3.226,52.384C3.9,42.5,4.667,32.619,5.094,22.722q.247-5.731.268-11.467a13.933,13.933,0,0,1,.978-5.8,5.287,5.287,0,0,1,1.1-1.629,2.2,2.2,0,0,1,1.077-.595c.418-.108-.311-.011.12-.016.14,0,.277,0,.417.009-.326-.027.4.116.552.179-.307-.13.155.1.173.11.138.09.282.17.414.271.01.008.45.422.613.6a11.311,11.311,0,0,1,2.425,5.5A88.209,88.209,0,0,1,14.1,21.312c.285,8.431.056,16.879-.363,25.3-.241,4.85-.533,9.7-.961,14.541a1.623,1.623,0,0,0,1.61,1.61A1.644,1.644,0,0,0,16,61.155c.377-4.271.643-8.555.873-12.836.47-8.77.739-17.568.473-26.349a119.7,119.7,0,0,0-.946-12.5C15.922,5.982,13.752.992,9.9.128,6.165-.71,3.673,2.715,2.779,5.891a25.284,25.284,0,0,0-.643,6.751q-.02,2.953-.109,5.905C1.737,28.249,1,37.935.333,47.615Q.168,50,0,52.384c-.142,2.069,3.08,2.06,3.221,0Z" transform="translate(305.881 128.428)"/>
    <path id="Path-69" data-name="Path" d="M21.473,51.221s3.027-25.406.409-43.574c-2.739-11.265-11-9.588-11,1.771,0,9.4.3,11.042-.681,30.387H9.386A9.386,9.386,0,0,0,0,49.192V70.941" transform="translate(286.448 139.972)" fill="#fc7f3a"/>
    <path id="Path-70" data-name="Path" d="M24.711,52.774c.518-4.361.838-8.752,1.088-13.135a172.367,172.367,0,0,0-.2-26.383c-.387-4-.983-8.3-3.9-11.337-2.078-2.169-5.195-2.659-7.55-.634C11.435,3.626,10.9,7.8,10.9,11.163c0,2.393.029,4.787.04,7.18.035,7.678-.333,15.349-.721,23.015l1.61-1.61A11.505,11.505,0,0,0,1.84,44.684a12.3,12.3,0,0,0-1.823,7.13v20.68a1.611,1.611,0,0,0,3.221,0v-19.2a17.864,17.864,0,0,1,.255-4.531A7.778,7.778,0,0,1,6.8,44.21a8.9,8.9,0,0,1,5.032-1.241,1.643,1.643,0,0,0,1.61-1.61c.351-6.93.7-13.869.723-20.81.007-2.082-.017-4.163-.031-6.245-.019-2.944-.3-6.152.966-8.9a5.467,5.467,0,0,1,.869-1.391c.073-.078.577-.533.389-.392.126-.094.783-.419.516-.322.118-.043.748-.157.385-.125.119-.01.757.037.406-.021a2.172,2.172,0,0,1,1.287.58A8.726,8.726,0,0,1,21.2,7.167a21.882,21.882,0,0,1,1.17,5.941A168.41,168.41,0,0,1,22.656,38.2c-.25,4.863-.591,9.736-1.166,14.573a1.62,1.62,0,0,0,1.61,1.61,1.649,1.649,0,0,0,1.61-1.61Z" transform="translate(284.82 138.42)"/>
    <path id="Path-71" data-name="Path" d="M0,45.761C1.332,26.337,2.139,20.778,2.138,9.419s8.262-13.036,11-1.771c2.618,18.168,1.354,23.478,1.354,23.478h2.2a8.528,8.528,0,0,1,8.512,9.055l-1.3,20.959,10.045,6.674" transform="translate(284.301 146.506)" fill="#fc7f3a"/>
    <path id="Path-72" data-name="Path" d="M3.226,47.368c.488-7.1,1.079-14.2,1.576-21.3.359-5.122.488-10.228.564-15.359a14.371,14.371,0,0,1,.768-4.733,7.642,7.642,0,0,1,.683-1.38,2.191,2.191,0,0,1,.394-.526c.076-.081.154-.158.231-.238.009-.009.386-.326.158-.154a3.459,3.459,0,0,1,.572-.344c.226-.109-.224.076.011,0,.112-.036.223-.066.336-.1.076-.02.306-.035-.018-.007.092-.008.184-.012.276-.012,0,0,.449.032.2,0-.2-.026.225.056.276.071.095.027.188.057.28.092.258.1-.319-.179.1.059a4.7,4.7,0,0,1,.553.348,7.422,7.422,0,0,1,1,1.082c2.228,3.092,2.37,7.164,2.784,10.812.361,3.179.648,6.369.77,9.567a51.872,51.872,0,0,1-.038,5.735c-.019.261-.044.52-.069.78-.01.1-.029.207-.036.311-.016.22.1-.519.021-.161-.027.129-.039.261-.069.39a1.63,1.63,0,0,0,1.553,2.039c1.89,0,3.754-.121,5.475.821a6.972,6.972,0,0,1,3.644,6.071c0,2.411-.282,4.849-.431,7.253l-.7,11.381c-.057.921-.181,1.866-.173,2.789.011,1.228,1.253,1.784,2.15,2.38l8.687,5.771c1.731,1.15,3.346-1.638,1.625-2.781L26.338,61.355l.8,1.391.8-12.931.435-7.028A11,11,0,0,0,26.646,35.5a10.274,10.274,0,0,0-5.762-4.047,18.875,18.875,0,0,0-4.775-.329l1.553,2.039A27.387,27.387,0,0,0,18,26.382c-.079-3.257-.351-6.509-.7-9.748-.453-4.195-.65-8.65-2.729-12.421C13.342,1.978,11.131-.253,8.363.023,5.565.3,3.845,2.758,2.99,5.223c-1.1,3.184-.821,6.644-.887,9.958-.052,2.6-.163,5.195-.319,7.788C1.294,31.108.563,39.233,0,47.367c-.142,2.069,3.079,2.06,3.221,0Z" transform="translate(282.685 144.899)"/>
    <path id="Path-73" data-name="Path" d="M49.387,32.746l73.881,49.03L161.553,83,172,83.332c1.064,6.863,1.121,17.078-.081,28.377a153.88,153.88,0,0,1-4.881,25.076c-64.7-3.051-87.516-21.941-87.516-21.941L8.76,56.83,0,28.593,6.979,0" transform="translate(256.387 173.336)" fill="#fc7f3a"/>
    <path id="Path-74" data-name="Path" d="M50.114,35.713l4.6,3.052L66.366,46.5,82.091,56.934,98.735,67.98l14.393,9.551,9.186,6.1c.54.359,1.07.77,1.637,1.086a6.5,6.5,0,0,0,2.761.31l16.444.525,17.229.55,10.675.341,2.475.079-1.553-1.182a95.1,95.1,0,0,1,.561,19.159,152.856,152.856,0,0,1-2.688,21.658c-.781,3.963-1.7,7.9-2.834,11.779l1.553-1.182a284.886,284.886,0,0,1-38.12-4.2,184.452,184.452,0,0,1-26.154-6.68q-2.433-.83-4.834-1.751-1.094-.421-2.181-.862-.5-.2-1-.411l-.278-.117c.027.011.211.089.041.017l-.541-.231c-2.248-.968-4.466-2.01-6.632-3.151a52.913,52.913,0,0,1-6.583-4.012c-.488-.356.272.235-.075-.057-.065-.054-.131-.107-.2-.161-.79-.644-1.576-1.292-2.364-1.938L68.437,104,51.954,90.486,34.3,76.009,19.5,63.877l-7.709-6.32-.352-.289.414.711L4.176,33.233,3.093,29.743V30.6L9.2,5.57l.87-3.564c.491-2.013-2.614-2.872-3.106-.856l-5.687,23.3L.147,29.088a3.557,3.557,0,0,0,0,2.033L3.6,42.26,7.858,55.972c.437,1.408.638,3.03,1.816,4L22.983,70.879,46.308,90l22.612,18.539c3.648,2.991,7.272,6.014,10.945,8.974a43.665,43.665,0,0,0,6.748,4.294,121,121,0,0,0,23.63,9.315A233.023,233.023,0,0,0,154.4,139q7.074.639,14.17.967a1.633,1.633,0,0,0,1.553-1.182,146.953,146.953,0,0,0,5.8-43.989,80.111,80.111,0,0,0-.839-10.32,1.621,1.621,0,0,0-1.553-1.182l-15.381-.491-26.009-.83-7.337-.234.813.22-7.357-4.883L100.6,65.356,79.316,51.233,60.842,38.973c-2.976-1.975-5.9-4.147-8.977-5.957-.043-.025-.084-.056-.125-.083-1.732-1.149-3.347,1.639-1.625,2.781Z" transform="translate(254.846 171.759)"/>
    <path id="Path-75" data-name="Path" d="M0,50.779c1.332-19.424,2.137-30,2.137-41.36s8.262-13.036,11-1.771c2.618,18.168.02,50.009.02,50.009" transform="translate(274.363 135.147)" fill="#fc7f3a"/>
    <path id="Path-76" data-name="Path" d="M3.226,52.39c.661-9.638,1.4-19.276,1.836-28.928.166-3.68.276-7.362.3-11.045A19.8,19.8,0,0,1,6.022,6.3a7.262,7.262,0,0,1,.9-1.859,3.532,3.532,0,0,1,1.06-1c.045-.028.468-.2.138-.079.132-.048.267-.083.4-.118.418-.108-.311-.011.12-.016.14,0,.277,0,.417.009-.348-.029.292.085.412.126a4.059,4.059,0,0,1,.727.433,9.055,9.055,0,0,1,2.4,3.831,23.962,23.962,0,0,1,1.056,5.916c.187,1.981.32,3.968.419,5.955.417,8.38.279,16.787-.059,25.167-.2,4.872-.447,9.747-.843,14.607-.168,2.066,3.054,2.055,3.221,0a308.323,308.323,0,0,0,.927-39.237c-.1-2.083-.231-4.166-.422-6.243a30.079,30.079,0,0,0-1.006-6.466C14.864,4.152,12.641,0,8.776,0,5.051,0,3.085,3.961,2.5,7.12a37.1,37.1,0,0,0-.368,6.45Q2.1,16.473,2,19.376C1.641,30.394.759,41.394,0,52.39c-.142,2.069,3.08,2.06,3.221,0Z" transform="translate(272.747 133.536)"/>
    <path id="Path-77" data-name="Path" d="M0,50.779c1.332-19.424,2.137-30,2.137-41.36s8.262-13.036,11-1.771c2.618,18.169-.367,51.9-.367,51.9" transform="translate(263.478 133.254)" fill="#fc7f3a"/>
    <path id="Path-78" data-name="Path" d="M3.226,52.384C3.9,42.5,4.667,32.619,5.094,22.722q.247-5.731.268-11.467a13.933,13.933,0,0,1,.978-5.8,5.284,5.284,0,0,1,1.1-1.629,2.2,2.2,0,0,1,1.077-.595c.418-.108-.311-.011.12-.016.14,0,.277,0,.417.009-.326-.027.4.116.552.179-.307-.13.155.1.173.11.138.09.282.17.414.271.01.008.45.422.613.6a11.312,11.312,0,0,1,2.425,5.5A88.224,88.224,0,0,1,14.1,21.312c.285,8.431.056,16.879-.363,25.3-.241,4.85-.533,9.7-.961,14.541a1.623,1.623,0,0,0,1.61,1.61A1.644,1.644,0,0,0,16,61.155c.377-4.271.643-8.555.873-12.836.469-8.77.739-17.568.472-26.349a119.679,119.679,0,0,0-.945-12.5C15.922,5.982,13.752.992,9.9.128,6.165-.71,3.673,2.715,2.779,5.891a25.281,25.281,0,0,0-.643,6.751q-.02,2.953-.109,5.905C1.737,28.249,1,37.935.333,47.615Q.168,50,0,52.384c-.142,2.069,3.08,2.06,3.221,0Z" transform="translate(261.862 131.649)"/>
    <path id="Path-79" data-name="Path" d="M12.262,51.221s3.027-25.406.409-43.574c-2.739-11.265-11-9.588-11,1.771,0,9.4-.657,34.391-1.639,53.736A23.32,23.32,0,0,0,7.866,81.811l14.858,13.14" transform="translate(251.639 143.193)" fill="#fc7f3a"/>
    <path id="Path-80" data-name="Path" d="M15.418,52.83a218.222,218.222,0,0,0,1.465-27.951c-.037-3.562-.178-7.126-.49-10.676-.3-3.466-.646-6.885-2.357-9.988C12.892,2.141,11.013.176,8.516.01,6.251-.141,4.363,1.426,3.3,3.3,1.835,5.878,1.612,8.906,1.6,11.806c-.008,2.4-.044,4.8-.086,7.2Q1.337,29.217.992,39.421.623,50.853.088,62.278A31.331,31.331,0,0,0,1.02,73.229a25.209,25.209,0,0,0,5.453,9.555A93.433,93.433,0,0,0,13.861,89.5l8.708,7.7.56.5c1.548,1.369,3.834-.9,2.278-2.277L10.965,82.649A22.268,22.268,0,0,1,3.3,68.539c-.4-3.533.059-7.187.215-10.727q.244-5.506.443-11.013c.44-12.029.687-24.056.868-36.091C4.863,8.315,5.291,5.5,6.9,3.833a2.057,2.057,0,0,1,.8-.53c-.295.13.2-.044.281-.065s.306-.035-.018-.007a2.22,2.22,0,0,1,.346-.011,3.238,3.238,0,0,1,.708.17,3.823,3.823,0,0,1,.922.662c1.978,1.9,2.663,4.884,2.965,7.5.394,3.406.6,6.832.7,10.259a219.612,219.612,0,0,1-1.344,30.484c-.02.179-.04.359-.061.537a1.62,1.62,0,0,0,1.61,1.61,1.649,1.649,0,0,0,1.61-1.61Z" transform="translate(250.095 141.584)"/>
    <path id="Path-81" data-name="Path" d="M1.326,0S1.074,15.968,0,23.484" transform="translate(297.721 170.252)" fill="#fc7f3a"/>
    <path id="Path-82" data-name="Path" d="M1.315,1.555C1.193,9.189,1.091,17.186.047,24.611a1.665,1.665,0,0,0,1.125,1.981,1.622,1.622,0,0,0,1.981-1.125A194.384,194.384,0,0,0,4.536,1.555C4.569-.518,1.348-.519,1.315,1.555Z" transform="translate(296.122 168.696)"/>
    <path id="Path-83" data-name="Path" d="M0,0S6.442,22.546,20.4,19.325a599.1,599.1,0,0,0,8.44,67.026,150.473,150.473,0,0,0,24.994,59.857l79.834,113.61" transform="translate(541.972 403.093)" fill="#fff"/>
    <path id="Path-84" data-name="Path" d="M.022.993A43.78,43.78,0,0,0,3.254,8.9c2.214,4.29,5.278,8.712,9.695,10.954a12.5,12.5,0,0,0,8.463,1.031L20.392,20.1c1.09,17.282,3.153,34.5,5.834,51.6,1.193,7.61,2.366,15.265,4.1,22.774a150.339,150.339,0,0,0,7.251,22.9,154.146,154.146,0,0,0,16.7,30.5l5.855,8.332,11.416,16.246L86.279,193.42l15.808,22.5,14.639,20.833,11.227,15.976c1.857,2.642,3.7,5.3,5.571,7.928.083.116.164.234.246.351.591.842,1.988.038,1.391-.813l-3.815-5.429-9.971-14.189-13.986-19.9L91.739,198.4,76.579,176.825,64.122,159.1,56.58,148.364A165.829,165.829,0,0,1,44.322,128.3,159.4,159.4,0,0,1,29.711,82.945c-2.862-16.434-5.174-32.974-6.686-49.589Q22.422,26.738,22,20.1a.818.818,0,0,0-1.019-.777C11.338,21.446,5.321,10.741,2.473,3.2c-.327-.866-.642-1.741-.9-2.63A.806.806,0,0,0,.022.993Z" transform="translate(541.173 402.313)"/>
    <path id="Path-85" data-name="Path" d="M92.662,0,42.625,83.792A173.1,173.1,0,0,0,20,147.23L0,282.569" transform="translate(403.949 410.34)" fill="#fff"/>
    <path id="Path-86" data-name="Path" d="M92.753.375l-8.4,14.059L66.217,44.813l-17.319,29C45.035,80.284,41.043,86.7,37.58,93.4a174.927,174.927,0,0,0-17.609,54.689q-1.145,7.726-2.284,15.452l-4.663,31.552L7.538,232.205,2.721,264.8.13,282.325l-.12.811c-.15,1.014,1.4,1.451,1.553.428L3.376,271.3l4.4-29.739,5.458-36.926L18.245,170.7l3.018-20.417a181.424,181.424,0,0,1,10.99-41.444c4.156-10.314,9.522-19.951,15.206-29.469L63.034,53.285,81.872,21.738,93.563,2.161l.582-.973A.806.806,0,0,0,92.754.376Z" transform="translate(403.163 409.558)"/>
    <path id="Path-87" data-name="Path" d="M25.97,48.9c13.778.459,29.661-.123,29.661-.123l.429,21.89c0-7.111,5.634-16.74,10.731-16.74S75.8,55.647,75.8,62.943c0,4.83-4.048,13.248-6.868,15.452L78.38,90.414S98.554,62.085,98.554,43.2l0-11.406A16.791,16.791,0,0,0,83.473,15.1l-5.863-.6h0A28.179,28.179,0,0,0,52.977,0H37.883A28.135,28.135,0,0,0,15.17,11.505,17.717,17.717,0,0,0,.308,28.988S-4.734,47.88,25.97,48.9Z" transform="translate(468.657 126.097)" fill="#ffc41f"/>
    <path id="Path-88" data-name="Path" d="M27.584,52.124c9.877.322,19.786.237,29.661-.123l-1.61-1.61.376,19.15.054,2.74a1.611,1.611,0,0,0,3.221,0,20.207,20.207,0,0,1,3.306-10.34,13.99,13.99,0,0,1,3.169-3.681,4.606,4.606,0,0,1,3.312-1.1c2.466.08,4.769.691,5.916,2.928,1.5,2.924.779,6.579-.217,9.527a31.194,31.194,0,0,1-2.534,5.591,12.716,12.716,0,0,1-2.825,3.66,1.645,1.645,0,0,0,0,2.277l9.443,12.018c.7.888,2,.421,2.529-.326,2.233-3.139,4.279-6.424,6.248-9.732A132.363,132.363,0,0,0,98.169,61.679a58.733,58.733,0,0,0,3.148-11.5,50.166,50.166,0,0,0,.46-7.694c0-6.2.746-12.809-2.532-18.384A18.521,18.521,0,0,0,87.7,15.524,65.873,65.873,0,0,0,79.224,14.5l1.391.8a29.946,29.946,0,0,0-12.821-12.2A31.319,31.319,0,0,0,53.876,0H43.41a45.719,45.719,0,0,0-11.1.874A30.2,30.2,0,0,0,15.394,12.3l.962-.74A19.515,19.515,0,0,0,1.506,23.915,19.2,19.2,0,0,0,.38,29.037c-.037.425-.052.85-.066,1.276,0-.013.058-.2.051-.126,0,.044-.025.086-.031.13C.248,30.964.113,31.6.056,32.256a16.231,16.231,0,0,0,7.789,15c5.774,3.689,13.037,4.632,19.738,4.87,2.073.074,2.07-3.147,0-3.221A43.962,43.962,0,0,1,13.14,46.341,16.953,16.953,0,0,1,5.951,41.38c-.086-.1-.172-.21-.255-.317.188.242-.043-.063-.105-.151-.172-.245-.341-.493-.5-.747a15.718,15.718,0,0,1-.806-1.5c-.043-.089-.208-.485-.047-.093-.043-.105-.088-.21-.127-.317-.09-.243-.179-.485-.259-.732a14.023,14.023,0,0,1-.376-1.42c-.048-.226-.087-.453-.126-.681-.091-.533.009.215-.042-.32-.039-.4-.07-.808-.08-1.214a16.382,16.382,0,0,1,.077-1.933c.027-.291.067-.379-.009.028.019-.1.029-.211.048-.316.027-.151.057-.3.085-.452.218-1.169.136-2.373.363-3.55a16.308,16.308,0,0,1,8.161-11.221,15.7,15.7,0,0,1,3.371-1.362c.578-.16,1.171-.243,1.75-.39.844-.213,1.233-.969,1.752-1.6a26.581,26.581,0,0,1,20.7-9.868q7.53-.029,15.061,0a26.6,26.6,0,0,1,20.594,9.768,25.585,25.585,0,0,1,2.28,3.284c.448.759.811,1.33,1.761,1.443.127.015.254.026.381.039,3.267.347,6.738.375,9.794,1.708a15.363,15.363,0,0,1,8.774,10.555c.662,2.851.381,5.986.382,8.891,0,2.8.129,5.645-.112,8.44a51.056,51.056,0,0,1-3.2,12.986A108.918,108.918,0,0,1,89.5,73.155a164.349,164.349,0,0,1-10.3,17.2c-.2.288-.4.576-.6.861l2.529-.326L71.69,78.869v2.278a14.863,14.863,0,0,0,3.2-4.091,35.679,35.679,0,0,0,2.713-5.8c1.365-3.716,2.116-8.017.6-11.818-1.392-3.482-4.454-5.08-8.049-5.425a8.49,8.49,0,0,0-4.912.775,13.054,13.054,0,0,0-4.11,3.669,23.537,23.537,0,0,0-5.064,13.829h3.221l-.376-19.15-.054-2.74a1.63,1.63,0,0,0-1.61-1.61c-9.876.36-19.784.445-29.661.123C25.51,48.836,25.513,52.057,27.584,52.124Z" transform="translate(467.043 124.484)"/>
    <path id="Path-89" data-name="Path" d="M0,0H18.333a8.135,8.135,0,0,1,7.434,4.831h0" transform="translate(482.385 137.907)" fill="#ffc41f"/>
    <path id="Path-90" data-name="Path" d="M1.556,3.241c6.066,0,12.132-.037,18.2,0a6.682,6.682,0,0,1,6.179,4.034,1.622,1.622,0,0,0,2.2.578,1.65,1.65,0,0,0,.578-2.2A9.765,9.765,0,0,0,20.9.085a29.61,29.61,0,0,0-3.34-.064h-16a1.611,1.611,0,0,0,0,3.221Z" transform="translate(480.83 136.276)"/>
  </g>
</svg>
