<svg xmlns="http://www.w3.org/2000/svg" width="1960" height="999" viewBox="0 0 1960 999">
  <g id="Rectangle_13" data-name="Rectangle 13" fill="#fff">
    <path d="M1960,0H460A459.617,459.617,0,0,0,0,460,538.551,538.551,0,0,0,539,999H1960Z" stroke="none"/>
    <path d="M 539 998 C 534.4119873046875 998 529.814208984375 997.9415893554688 525.21484375 997.8251953125 C 520.615478515625 997.708740234375 516.014404296875 997.5343627929688 511.419677734375 997.3023681640625 C 506.824951171875 997.0703125 502.2364501953125 996.7807006835938 497.662353515625 996.4338989257812 C 493.08837890625 996.0870971679688 488.5286865234375 995.68310546875 483.991455078125 995.2223510742188 C 479.5198974609375 994.7682495117188 475.04296875 994.2562255859375 470.5684814453125 993.6875 C 466.093994140625 993.1187744140625 461.621826171875 992.4933471679688 457.159912109375 991.8123779296875 C 452.697998046875 991.13134765625 448.246337890625 990.3948364257812 443.8126220703125 989.60400390625 C 439.37890625 988.8131713867188 434.963134765625 987.968017578125 430.5731201171875 987.0697631835938 C 426.239990234375 986.18310546875 421.906005859375 985.2393188476562 417.57861328125 984.2403564453125 C 413.2513427734375 983.2413940429688 408.9306640625 982.187255859375 404.6240234375 981.0799560546875 C 400.3173828125 979.97265625 396.0250244140625 978.8120727539062 391.75439453125 977.6002197265625 C 387.483642578125 976.388427734375 383.234619140625 975.1253051757812 379.0147705078125 973.8128662109375 C 374.84228515625 972.5150146484375 370.6734619140625 971.1611938476562 366.515625 969.7540283203125 C 362.3577880859375 968.346923828125 358.2109375 966.886474609375 354.082275390625 965.3753662109375 C 349.95361328125 963.8642578125 345.8431396484375 962.302490234375 341.758056640625 960.692626953125 C 337.673095703125 959.0828247070312 333.6134033203125 957.4249267578125 329.58642578125 955.7216796875 C 325.5966796875 954.0341186523438 321.6153564453125 952.2921142578125 317.6494140625 950.4989013671875 C 313.68359375 948.7056274414062 309.733154296875 946.8612060546875 305.804931640625 944.9688720703125 C 301.876708984375 943.0765380859375 297.970703125 941.1363525390625 294.093994140625 939.151611328125 C 290.2171630859375 937.1668701171875 286.3695068359375 935.1375122070312 282.557861328125 933.06689453125 C 278.7733154296875 931.010986328125 275.002197265625 928.9024047851562 271.2508544921875 926.7450561523438 C 267.49951171875 924.5877075195312 263.7679443359375 922.381591796875 260.062744140625 920.1306762695312 C 256.3575439453125 917.8797607421875 252.6787109375 915.583984375 249.03271484375 913.247314453125 C 245.38671875 910.91064453125 241.7735595703125 908.5330810546875 238.19970703125 906.1185913085938 C 234.64306640625 903.7158203125 231.104736328125 901.262451171875 227.590576171875 898.7630615234375 C 224.076416015625 896.2636108398438 220.586669921875 893.7181396484375 217.1270751953125 891.1312255859375 C 213.66748046875 888.5442504882812 210.23828125 885.915771484375 206.8455810546875 883.2503051757812 C 203.452880859375 880.5848388671875 200.096435546875 877.88232421875 196.7823486328125 875.1473999023438 C 193.4765625 872.4191284179688 190.1937255859375 869.6427001953125 186.939453125 866.8233032226562 C 183.685302734375 864.00390625 180.4598388671875 861.1414794921875 177.2685546875 858.2410278320312 C 174.0772705078125 855.340576171875 170.920166015625 852.4022216796875 167.802978515625 849.430908203125 C 164.685791015625 846.4595947265625 161.6083984375 843.4553833007812 158.576416015625 840.42333984375 C 155.54443359375 837.3912963867188 152.540283203125 834.3138427734375 149.569091796875 831.1966552734375 C 146.5977783203125 828.0794677734375 143.659423828125 824.9224243164062 140.759033203125 821.731201171875 C 137.858642578125 818.5399169921875 134.99609375 815.314453125 132.1767578125 812.060302734375 C 129.3572998046875 808.8062133789062 126.5809326171875 805.5234375 123.8526611328125 802.2175903320312 C 121.11767578125 798.903564453125 118.415283203125 795.5471801757812 115.749755859375 792.1544189453125 C 113.084228515625 788.7615966796875 110.455810546875 785.3323974609375 107.8687744140625 781.8729248046875 C 105.28173828125 778.4134521484375 102.736328125 774.923583984375 100.2369384765625 771.409423828125 C 97.737548828125 767.8953247070312 95.2841796875 764.35693359375 92.8812255859375 760.8002319335938 C 90.466796875 757.226318359375 88.0892333984375 753.6130981445312 85.7525634765625 749.967041015625 C 83.4158935546875 746.321044921875 81.1201171875 742.6422119140625 78.8692626953125 738.9370727539062 C 76.618408203125 735.23193359375 74.412353515625 731.50048828125 72.2550048828125 727.7491455078125 C 70.09765625 723.9978637695312 67.989013671875 720.2266845703125 65.93310546875 716.442138671875 C 63.862548828125 712.6304931640625 61.833251953125 708.7828369140625 59.8485107421875 704.906005859375 C 57.86376953125 701.0292358398438 55.9234619140625 697.123291015625 54.0311279296875 693.195068359375 C 52.1387939453125 689.266845703125 50.29443359375 685.31640625 48.501220703125 681.3505249023438 C 46.7078857421875 677.3846435546875 44.9658203125 673.4033813476562 43.2783203125 669.41357421875 C 41.5750732421875 665.3865356445312 39.917236328125 661.326904296875 38.307373046875 657.2418212890625 C 36.697509765625 653.15673828125 35.1357421875 649.0463256835938 33.62451171875 644.9176635742188 C 32.1134033203125 640.7890014648438 30.653076171875 636.64208984375 29.2459716796875 632.4842529296875 C 27.8388671875 628.326416015625 26.4849853515625 624.1575927734375 25.1871337890625 619.9849853515625 C 23.874755859375 615.7652587890625 22.611572265625 611.5162353515625 21.3997802734375 607.2455444335938 C 20.18798828125 602.974853515625 19.02734375 598.6824951171875 17.9200439453125 594.3759155273438 C 16.812744140625 590.0693359375 15.758544921875 585.7486572265625 14.7596435546875 581.4213256835938 C 13.7607421875 577.093994140625 12.81689453125 572.760009765625 11.9302978515625 568.4268798828125 C 11.031982421875 564.0369262695312 10.1868896484375 559.6212158203125 9.39599609375 555.1875 C 8.605224609375 550.7537841796875 7.86865234375 546.3020629882812 7.187744140625 541.8401489257812 C 6.5067138671875 537.3782348632812 5.8812255859375 532.9061279296875 5.3125 528.4315795898438 C 4.74365234375 523.95703125 4.231689453125 519.4801025390625 3.777587890625 515.008544921875 C 3.31689453125 510.4712829589844 2.912841796875 505.91162109375 2.5660400390625 501.3375854492188 C 2.21923828125 496.7635192871094 1.9296875 492.1751098632812 1.6976318359375 487.5803527832031 C 1.465576171875 482.985595703125 1.291259765625 478.3844909667969 1.1748046875 473.7850952148438 C 1.058349609375 469.1856689453125 1 464.5879821777344 1 460 C 1 456.0856628417969 1.0498046875 452.1630249023438 1.149169921875 448.2389831542969 C 1.2484130859375 444.31494140625 1.397216796875 440.3894653320312 1.59521484375 436.4694213867188 C 1.793212890625 432.5493774414062 2.040283203125 428.6347351074219 2.336181640625 424.7323608398438 C 2.6319580078125 420.8299560546875 2.9765625 416.9398193359375 3.3697509765625 413.0688171386719 C 3.7572021484375 409.2538757324219 4.194091796875 405.434326171875 4.6793212890625 401.6168518066406 C 5.16455078125 397.7993774414062 5.6981201171875 393.9839172363281 6.279052734375 390.1771850585938 C 6.860107421875 386.3704833984375 7.4884033203125 382.5724487304688 8.1630859375 378.789794921875 C 8.8377685546875 375.0071105957031 9.558837890625 371.2398071289062 10.3251953125 367.4945373535156 C 11.0816650390625 363.7976684570312 11.8868408203125 360.1000671386719 12.739013671875 356.4081420898438 C 13.59130859375 352.7161865234375 14.49072265625 349.0299072265625 15.4354248046875 345.3557434082031 C 16.380126953125 341.6815795898438 17.370361328125 338.0194702148438 18.404296875 334.3759155273438 C 19.4381103515625 330.7323303222656 20.5157470703125 327.1072692871094 21.635498046875 323.5071411132812 C 22.7427978515625 319.947265625 23.897705078125 316.3905944824219 25.09814453125 312.8433227539062 C 26.2987060546875 309.2960205078125 27.544677734375 305.7581176757812 28.8338623046875 302.2357177734375 C 30.123046875 298.7133178710938 31.4554443359375 295.2064514160156 32.828857421875 291.7212524414062 C 34.2022705078125 288.236083984375 35.61669921875 284.7725830078125 37.0699462890625 281.3369140625 C 38.509765625 277.9329223632812 39.9959716796875 274.5362548828125 41.52587890625 271.1527099609375 C 43.0557861328125 267.7691650390625 44.62939453125 264.3988037109375 46.243896484375 261.0474548339844 C 47.8583984375 257.6960754394531 49.513671875 254.3637084960938 51.20703125 251.0561981201172 C 52.900390625 247.7486877441406 54.6317138671875 244.4660186767578 56.3983154296875 241.2140502929688 C 58.15234375 237.9851837158203 59.9512939453125 234.7677307128906 61.791748046875 231.5672454833984 C 63.63232421875 228.3667602539062 65.5145263671875 225.1832122802734 67.4349365234375 222.0221405029297 C 69.3553466796875 218.8610687255859 71.31396484375 215.7224731445312 73.3076171875 212.6118621826172 C 75.3011474609375 209.5012512207031 77.32958984375 206.4186401367188 79.3895263671875 203.3695220947266 C 83.49462890625 197.293212890625 87.751953125 191.3075256347656 92.1534423828125 185.4223785400391 C 96.554931640625 179.5372314453125 101.1005859375 173.7526245117188 105.7822265625 168.0784606933594 C 110.4638671875 162.404296875 115.281494140625 156.840576171875 120.226806640625 151.397216796875 C 125.1722412109375 145.9538421630859 130.245361328125 140.6308288574219 135.4381103515625 135.4380950927734 C 140.630859375 130.245361328125 145.953857421875 125.1722030639648 151.397216796875 120.2268218994141 C 156.840576171875 115.2814407348633 162.404296875 110.4638366699219 168.0784912109375 105.7822036743164 C 173.752685546875 101.1005706787109 179.5372314453125 96.55490112304688 185.42236328125 92.15338897705078 C 191.3074951171875 87.75187683105469 197.293212890625 83.49452209472656 203.3695068359375 79.3895263671875 C 206.418701171875 77.32952880859375 209.501220703125 75.30107116699219 212.61181640625 73.30751800537109 C 215.722412109375 71.31396484375 218.861083984375 69.35530853271484 222.0220947265625 67.43490600585938 C 225.18310546875 65.51451110839844 228.36669921875 63.63236236572266 231.567138671875 61.79181289672852 C 234.7677001953125 59.95126342773438 237.985107421875 58.15232086181641 241.2139892578125 56.39833450317383 C 244.466064453125 54.63172912597656 247.748779296875 52.90034484863281 251.0562744140625 51.20700073242188 C 254.36376953125 49.51365280151367 257.696044921875 47.85834503173828 261.0474853515625 46.243896484375 C 264.39892578125 44.62944793701172 267.769287109375 43.05585479736328 271.15283203125 41.52593231201172 C 274.5362548828125 39.99600982666016 277.932861328125 38.50976181030273 281.3369140625 37.06999969482422 C 284.7725830078125 35.61684417724609 288.236083984375 34.20242309570312 291.7213134765625 32.8289909362793 C 295.20654296875 31.45555877685547 298.71337890625 30.12311172485352 302.2357177734375 28.83390045166016 C 305.758056640625 27.5446891784668 309.2960205078125 26.29871368408203 312.84326171875 25.09822654724121 C 316.390625 23.89773941040039 319.947265625 22.74273872375488 323.5072021484375 21.63547706604004 C 327.1072998046875 20.51571655273438 330.732421875 19.43806838989258 334.3759765625 18.4041805267334 C 338.01953125 17.37029266357422 341.6815185546875 16.38016510009766 345.355712890625 15.43544769287109 C 349.0299072265625 14.49073028564453 352.7161865234375 13.59142208099365 356.408203125 12.73917102813721 C 360.10009765625 11.88691997528076 363.797607421875 11.08172607421875 367.4945068359375 10.32523822784424 C 371.23974609375 9.558868408203125 375.007080078125 8.837826728820801 378.789794921875 8.163131713867188 C 382.572509765625 7.488437175750732 386.3704833984375 6.860089302062988 390.17724609375 6.279107093811035 C 393.98388671875 5.698124885559082 397.79931640625 5.164508819580078 401.6168212890625 4.679278373718262 C 405.434326171875 4.194047451019287 409.25390625 3.757202386856079 413.06884765625 3.369761943817139 C 416.9398193359375 2.976666688919067 420.829833984375 2.632009029388428 424.732177734375 2.336138486862183 C 428.6346435546875 2.040267944335938 432.54931640625 1.793184518814087 436.469482421875 1.595238089561462 C 440.3895263671875 1.397291660308838 444.31494140625 1.24848210811615 448.239013671875 1.14915919303894 C 452.1630859375 1.049836277961731 456.085693359375 1 460 1 L 1959 1 L 1959 998 L 539 998 M 539 999 L 1960 999 L 1960 0 L 460 1.146958369209125e-13 C 396.4873046875 1.195522630545454e-13 335.98095703125 12.87181568145752 280.947265625 36.14908981323242 C 225.9136962890625 59.42636108398438 176.352783203125 93.10908508300781 134.73095703125 134.7308959960938 C 93.109130859375 176.3527069091797 59.4263916015625 225.9136047363281 36.149169921875 280.947265625 C 12.871826171875 335.9808959960938 0 396.4872436523438 0 460 C 0 534.4203491210938 15.0823974609375 605.3179931640625 42.357177734375 669.8031005859375 C 69.632080078125 734.2881469726562 109.0994873046875 792.360595703125 157.869384765625 841.1304931640625 C 206.6392822265625 889.900390625 264.711669921875 929.3677978515625 329.19677734375 956.6427001953125 C 393.681884765625 983.9176025390625 464.57958984375 999 539 999 Z" stroke="none" fill="#707070"/>
  </g>
</svg>
