<svg id="delete___trash_empty_can_rubbish_garbage_envelope_email_inbox_clear_clean_woman_people" data-name="delete _ trash, empty, can, rubbish, garbage, envelope, email, inbox, clear, clean, woman, people" xmlns="http://www.w3.org/2000/svg" width="843.651" height="713" viewBox="0 0 843.651 713">
  <g id="Group">
    <path id="Path" d="M1.542,3.192A1.6,1.6,0,0,0,1.542,0a1.6,1.6,0,0,0,0,3.192Z" transform="translate(555.385 43.154)"/>
    <path id="Path-2" data-name="Path" d="M17.6,0,91.177,39.468,37.333,140.626S7.754,127.091,24.711,87.805a15.349,15.349,0,0,0-6.97-19.732C8.735,63.394,0,58.907,0,58.907" transform="translate(738.55 551.375)" fill="#fc7272"/>
    <path id="Path-3" data-name="Path" d="M18.407,2.96,25.7,6.873l17.618,9.451L64.543,27.708,82.9,37.555l6.081,3.262a26.276,26.276,0,0,0,2.871,1.54,1.216,1.216,0,0,1,.133.071l-.573-2.183L86.047,50.32,73.17,74.509,57.6,103.762l-13.411,25.2-4.434,8.331a40.582,40.582,0,0,0-2.1,3.937,1.84,1.84,0,0,1-.095.178l2.183-.573a16.724,16.724,0,0,1-1.545-.838q-.843-.5-1.652-1.058-.52-.356-1.025-.732-.228-.17-.453-.343c.324.249-.319-.257-.429-.346A31.874,31.874,0,0,1,25.7,126.187c-3.046-6.435-3.62-13.958-2.492-21a64.142,64.142,0,0,1,4.341-14.645,17.592,17.592,0,0,0,.11-14.314,16.55,16.55,0,0,0-4.815-6.188c-2.625-2.079-5.844-3.406-8.8-4.937q-5.809-3.005-11.625-6C.591,58.173-1.025,60.926.8,61.866Q5.55,64.3,10.288,66.755c2.845,1.47,5.732,2.883,8.538,4.427A13.727,13.727,0,0,1,23.936,76a14.15,14.15,0,0,1,.781,13.107,66.068,66.068,0,0,0-4.542,14.943c-1.26,7.583-.833,15.389,2.213,22.51a34.763,34.763,0,0,0,9.12,12.469,28.721,28.721,0,0,0,6.628,4.555,1.628,1.628,0,0,0,2.183-.573l5.363-10.075,12.876-24.189L74.13,79.5,87.541,54.3c2.174-4.084,4.459-8.129,6.53-12.268.03-.06.063-.119.095-.178a1.62,1.62,0,0,0-.573-2.183L86.3,35.76,68.681,26.309,47.457,14.924,29.1,5.077c-2.979-1.6-5.926-3.294-8.952-4.8C20.106.253,20.062.228,20.018.2c-1.81-.971-3.424,1.784-1.611,2.756Z" transform="translate(736.94 549.793)"/>
    <path id="Path-4" data-name="Path" d="M5.126,13.214a15.815,15.815,0,0,1,.258,13.144c-17.4,40.321,12.954,54.213,12.954,54.213L51.893,1.122l-5.08-.67A52.487,52.487,0,0,0,5.126,13.214Z" transform="translate(757.459 614.896)" fill="#fff"/>
    <path id="Path-5" data-name="Path" d="M5.329,15.593a14.472,14.472,0,0,1,1.317,6.976,21.027,21.027,0,0,1-1.951,6.684,67.229,67.229,0,0,0-3.657,11.9,44.576,44.576,0,0,0,.02,19.213A36.151,36.151,0,0,0,14.843,80.871a24.647,24.647,0,0,0,4.27,2.651A1.616,1.616,0,0,0,21.3,82.95l3.327-7.875,8.033-19.02,9.678-22.916,8.372-19.822,4.089-9.682.057-.134a1.628,1.628,0,0,0-1.378-2.4A77.716,77.716,0,0,0,38.018.1,54.034,54.034,0,0,0,5.579,13.659c-1.54,1.365.724,3.616,2.257,2.257a51.41,51.41,0,0,1,40.558-12.3c1.694.219,3.387.447,5.08.67L52.1,1.89,48.77,9.765l-8.033,19.02L31.058,51.7,22.687,71.523,19.9,78.112A26.105,26.105,0,0,0,18.6,81.2a1.133,1.133,0,0,1-.057.134l2.183-.573a22.864,22.864,0,0,1-3.413-2.037q-.365-.253-.724-.516c-.15-.11-.3-.221-.447-.333a2.24,2.24,0,0,1-.231-.178c-.6-.476-1.184-.965-1.752-1.476a35.3,35.3,0,0,1-3.79-3.977,33.889,33.889,0,0,1-3.351-5.083A31.218,31.218,0,0,1,4.43,60.659a39.849,39.849,0,0,1-.459-17.917,66.788,66.788,0,0,1,4.015-13.16A20.563,20.563,0,0,0,9.864,21.8a18.034,18.034,0,0,0-1.779-7.816C7.218,12.122,4.466,13.741,5.329,15.593Z" transform="translate(755.878 613.322)"/>
    <path id="Path-6" data-name="Path" d="M14.754,114.447c5.875,3.061,8.756-2.82,11.888-8.657s-2.493-8.855.638-14.692,8.756-2.819,11.887-8.655-2.494-8.854.637-14.69S48.56,64.934,51.691,59.1s-2.494-8.854.637-14.69,8.755-2.818,11.886-8.653S61.72,26.9,64.85,21.067A7.931,7.931,0,0,1,69.717,17.1a4.522,4.522,0,0,0,.677-8.213L54.434,0,0,103.365A68.241,68.241,0,0,0,14.754,114.447Z" transform="translate(769.336 587.584)" fill="#fff"/>
    <path id="Path-7" data-name="Path" d="M15.533,117.415a7.256,7.256,0,0,0,8.512-.876c2.491-2.174,4.066-5.466,5.559-8.353,1.5-2.907,1.3-5.642.446-8.7-.794-2.842-.8-5.637,1.555-7.808,1.956-1.806,4.926-1.884,7.158-3.242a9.764,9.764,0,0,0,4.568-8.146c-.014-2.681-1.593-5.2-1.3-7.876.325-3.01,2.571-4.822,5.251-5.707,2.953-.975,5.556-2.094,7.2-4.906,1.654-2.828,1.539-5.714.687-8.764-.792-2.835-.986-5.569,1.282-7.85,1.9-1.91,4.865-2.023,7.139-3.309a9.766,9.766,0,0,0,4.788-8.012c.082-2.712-1.46-5.181-1.318-7.871A6.647,6.647,0,0,1,69,21.813c1.1-1.1,2.517-1.345,3.824-2.071a6.174,6.174,0,0,0,2.818-7.084c-1.019-3.338-5.03-4.77-7.821-6.323L57.511.593,56.825.211a1.617,1.617,0,0,0-2.183.573l-5.426,10.3L36.189,35.822l-15.7,29.809L6.919,91.4C4.714,95.59,2.407,99.738.3,103.974c-.029.059-.062.117-.092.175a1.642,1.642,0,0,0,.249,1.934,62.348,62.348,0,0,0,15.077,11.332c1.816.957,3.431-1.8,1.611-2.756A59.473,59.473,0,0,1,2.713,103.826l.25,1.934,5.426-10.3L21.415,70.722l15.7-29.809L50.685,15.14l4.49-8.526A44.832,44.832,0,0,0,57.3,2.57a1.923,1.923,0,0,1,.092-.175l-2.183.573c5.3,2.953,10.682,5.8,15.922,8.864a2.982,2.982,0,0,1,.908,4.489c-.809.974-2.258,1.17-3.325,1.761a9.291,9.291,0,0,0-3.472,3.433,10.5,10.5,0,0,0-.77,8.549c.747,2.7,1.141,5.139-.718,7.539-1.666,2.15-4.5,2.41-6.835,3.462A9.669,9.669,0,0,0,51.486,48.1c-.5,2.857.759,5.239,1.125,7.992A6.524,6.524,0,0,1,49,62.707c-2.385,1.158-4.97,1.439-7.024,3.276a9.731,9.731,0,0,0-3.037,8.554c.348,2.407,1.677,4.789,1.009,7.255a6.684,6.684,0,0,1-2.464,3.677,12.045,12.045,0,0,1-3.338,1.43c-2.88.938-5.308,2.354-6.74,5.142-1.455,2.835-1.193,5.574-.365,8.539a10.234,10.234,0,0,1,.558,3.592,11.12,11.12,0,0,1-1.735,4.238c-1.22,2.249-2.683,5.481-5.178,6.6a4.11,4.11,0,0,1-3.542-.347C15.311,113.744,13.693,116.5,15.533,117.415Z" transform="translate(767.752 585.995)"/>
    <path id="Path-8" data-name="Path" d="M14.076,55.3,19.38,7.02A6.6,6.6,0,0,0,11.458.135h0A5.579,5.579,0,0,0,5.3,5.072L0,53.352Z" transform="translate(790.819 562.416)" fill="#fff"/>
    <path id="Path-9" data-name="Path" d="M17.268,56.793l2.22-20.206L22.4,10.11c.065-.593.157-1.189.192-1.784A8.247,8.247,0,0,0,18.408.944a9.643,9.643,0,0,0-5.45-.9c.3-.012-.2-.036-.209-.036-.2,0-.4-.012-.6,0a7.7,7.7,0,0,0-1.584.242,7.106,7.106,0,0,0-2.414,1.2A7.631,7.631,0,0,0,5.258,6.979C4.363,14.884,3.52,22.8,2.652,30.7L1,45.767C.681,48.649.271,51.538.046,54.429c-.011.139-.03.277-.046.415a1.588,1.588,0,0,0,1.172,1.539l14.076,1.949a1.653,1.653,0,0,0,1.963-1.115A1.606,1.606,0,0,0,16.1,55.254L2.02,53.305l1.172,1.539L5.3,35.611l2.922-26.6c.085-.772.152-1.548.255-2.318.006-.043.008-.086.014-.129a6.836,6.836,0,0,0,.2-.753A4,4,0,0,1,9.27,4.751c1.1-1.447,2.571-1.466,4.209-1.584,2.792-.2,5.319,1.181,5.865,4.1A7.965,7.965,0,0,1,19.272,9.5L16.608,33.75c-.828,7.537-1.894,15.09-2.488,22.65-.01.131-.029.262-.043.393a1.607,1.607,0,0,0,1.6,1.6A1.631,1.631,0,0,0,17.268,56.793Z" transform="translate(789.224 560.924)"/>
    <circle id="Oval" cx="10.83" cy="10.83" r="10.83" transform="translate(787.484 604.438)"/>
    <path id="Path-10" data-name="Path" d="M9.428,24.481A12.621,12.621,0,0,0,22.7,19.4a12.424,12.424,0,1,0-13.275,5.08c1.99.516,2.838-2.562.848-3.078a9.232,9.232,0,1,1,10.605-5.246A9.354,9.354,0,0,1,10.276,21.4C8.278,20.944,7.424,24.02,9.428,24.481Z" transform="translate(785.89 602.846)"/>
    <path id="Path-11" data-name="Path" d="M0,30.549S17.022-8.814,61.173,1.824C92.557,10.335,104.526,63.8,104.526,63.8s21.684-4.521,28.193,20.214c7.979,30.32-40.959,47.342-51.066,14.362C73.673,122.308,53.992,109.01,50,85.871,47.457,71.109,43.619,36.4,5.851,43.315" transform="translate(607.448 1.589)"/>
    <path id="Path-12" data-name="Path" d="M2.955,32.943a49.843,49.843,0,0,1,8.477-12.749A49.138,49.138,0,0,1,39.708,3.88,54.1,54.1,0,0,1,62.326,4.952,37,37,0,0,1,77.806,13.9c8.98,8.3,15.136,19.482,19.777,30.673a165.57,165.57,0,0,1,6.9,20.9c.029.11.053.223.078.335a1.627,1.627,0,0,0,1.963,1.115c.093-.019.187-.036.281-.051s.209-.03.312-.048c.3-.053-.252.031-.167.022s.176-.023.264-.032a26.8,26.8,0,0,1,2.906-.158q.946,0,1.89.071.5.037,1,.092c.065.007.633.08.32.037q.306.042.611.093a24.246,24.246,0,0,1,4.822,1.307c8.529,3.307,13.926,12.79,14.715,21.775.691,7.868-2.834,15.04-8.921,19.956a28.784,28.784,0,0,1-21,6.158A22.085,22.085,0,0,1,86,102.866a29.313,29.313,0,0,1-1.228-3.33,1.61,1.61,0,0,0-3.078,0c-1.389,4.108-3.578,8.9-7.755,10.834a7.746,7.746,0,0,1-4.2.59,11.607,11.607,0,0,1-4.83-2.047c-3.692-2.528-6.326-6.507-8.238-10.478a49.3,49.3,0,0,1-3.9-13.485,105.226,105.226,0,0,0-4.339-18.506C45.993,59.672,42.3,53.177,36.545,48.7c-7.161-5.569-16.337-6.977-25.177-5.976Q9.177,42.97,7,43.366c-2.018.364-1.163,3.441.848,3.078C16.7,44.848,26.247,45.238,33.8,50.6c5.753,4.088,9.39,10.548,11.682,17.053A109.568,109.568,0,0,1,49.76,86.218C51.323,95.61,55,105.836,63.117,111.544c3.081,2.166,7.014,3.35,10.722,2.25,4.374-1.3,7.36-5.2,9.233-9.162a39.694,39.694,0,0,0,1.7-4.248H81.691c2.749,8.853,9.129,16.1,18.333,18.342a31.274,31.274,0,0,0,24.021-4.456c7.191-4.687,12.269-12.257,12.693-20.958a32.114,32.114,0,0,0-3.76-15.755,24.573,24.573,0,0,0-20.686-14,21.541,21.541,0,0,0-6.314.234c-.1.022-.2.033-.3.054l1.963,1.115a128.091,128.091,0,0,0-5.815-18.33c-4.539-11.647-10.45-23.177-19.094-32.336a45.371,45.371,0,0,0-15.428-11A44.6,44.6,0,0,0,56.053.547,57.5,57.5,0,0,0,44.491.116,51.343,51.343,0,0,0,11.724,15.227,56.092,56.092,0,0,0,.327,31.051c-.043.094-.087.187-.128.281a1.651,1.651,0,0,0,.573,2.183,1.606,1.606,0,0,0,2.183-.573Z" transform="translate(605.87 0)"/>
    <path id="Path-13" data-name="Path" d="M5.377,0s23.3,4.481,25.988,17.922S0,34.5,0,34.5" transform="translate(657.307 268.692)"/>
    <path id="Path-14" data-name="Path" d="M6.481,3.112a54.341,54.341,0,0,1,10.084,3.1c5.348,2.178,11.207,5.473,13.85,10.862A10.437,10.437,0,0,1,31.438,20.6a7.1,7.1,0,0,1,0,.763q-.008.149-.023.3c-.048.482.067-.31-.027.161-.048.239-.1.476-.173.71s-.212.595-.174.507a10.264,10.264,0,0,1-4.2,4.369c-4.509,2.858-9.881,4.292-15.078,5.414-2.46.531-4.939.962-7.43,1.314l-.308.043c-.375.052.292-.038-.041.005l-.632.081q-.485.061-.971.116c-.283.032-.567.064-.851.09-2.028.188-2.048,3.381,0,3.192a93.251,93.251,0,0,0,9.694-1.475c5.6-1.122,11.375-2.637,16.362-5.5,4.517-2.6,8.1-6.781,6.7-12.275C32.591,11.779,26.467,7.354,20.607,4.541A55.346,55.346,0,0,0,7.329.034C5.323-.354,4.463,2.721,6.481,3.111Z" transform="translate(655.778 267.119)"/>
    <path id="Path-15" data-name="Path" d="M116.3,0l-1.716,83.475L.005,81.489s-1.387-32.5,41.313-35.25A15.349,15.349,0,0,0,55.727,31.063c.075-10.149.1-19.969.1-19.969" transform="translate(486.049 606.509)" fill="#fc7272"/>
    <path id="Path-16" data-name="Path" d="M116.3,1.541l-.17,8.276-.411,19.989-.5,24.079-.428,20.825-.142,6.9a27.534,27.534,0,0,0-.067,3.258,1.254,1.254,0,0,1,0,.15l1.6-1.6-11.412-.2-27.4-.475-33.133-.574L15.7,81.679l-9.436-.164A42.535,42.535,0,0,0,1.8,81.438a1.92,1.92,0,0,1-.2,0l1.6,1.6a16.418,16.418,0,0,1,.039-1.678c.039-.641.106-1.279.182-1.916.048-.406-.055.33.031-.217.03-.195.059-.389.091-.583q.112-.681.252-1.358A31.425,31.425,0,0,1,9.467,64.449,35.449,35.449,0,0,1,25.611,52.826a58.279,58.279,0,0,1,14.214-3.192c2.683-.277,5.368-.3,7.928-1.255a17.289,17.289,0,0,0,6.286-4.022A17.029,17.029,0,0,0,58.25,37.2c.963-3.3.684-6.84.7-10.235Q59,19.8,59.018,12.635a1.6,1.6,0,0,0-3.192,0q-.016,5.929-.05,11.858c-.03,5.616.767,11.683-2.921,16.4a13.983,13.983,0,0,1-5.512,4.235c-2.42,1.024-4.948,1.048-7.518,1.313A62.23,62.23,0,0,0,25.25,49.571,38.922,38.922,0,0,0,7.706,61.543,35.4,35.4,0,0,0,.962,75.305,28.584,28.584,0,0,0,0,83.03a1.627,1.627,0,0,0,1.6,1.6l11.412.2,27.4.475,33.133.574,28.538.495c4.617.08,9.278.354,13.9.241.067,0,.135,0,.2,0a1.62,1.62,0,0,0,1.6-1.6l.17-8.276.411-19.989.5-24.079.428-20.825c.069-3.371.307-6.786.209-10.157,0-.05,0-.1,0-.15.042-2.055-3.15-2.054-3.192,0Z" transform="translate(484.456 604.968)"/>
    <path id="Path-17" data-name="Path" d="M54,0a15.815,15.815,0,0,1-11.59,6.2C-1.418,9.027.005,42.382.005,42.382l86.02-6.221-1.712-4.83A52.487,52.487,0,0,0,54,0Z" transform="translate(482.923 647.116)" fill="#fff"/>
    <path id="Path-18" data-name="Path" d="M54.463.527a15.093,15.093,0,0,1-5.136,4.29,16.536,16.536,0,0,1-6.372,1.52A71.273,71.273,0,0,0,30.184,8.407a45.205,45.205,0,0,0-17.375,8.615A35.8,35.8,0,0,0,.479,38.609,26.757,26.757,0,0,0,0,44.038a1.613,1.613,0,0,0,1.6,1.6l8.527-.617,20.592-1.489,24.811-1.794L76.99,40.181c3.492-.253,7-.437,10.483-.758.048,0,.1-.007.145-.011a1.613,1.613,0,0,0,1.539-2.02C87.32,32.21,85.494,27.085,82.61,22.364A54.058,54.058,0,0,0,56.016.117c-1.913-.75-2.743,2.335-.848,3.078a51.112,51.112,0,0,1,28.974,29.59c.668,1.811,1.294,3.637,1.938,5.456l1.539-2.02-8.527.617L58.5,38.327,33.688,40.121,12.227,41.673l-7.134.516a27.082,27.082,0,0,0-3.348.242,1.165,1.165,0,0,1-.145.011l1.6,1.6c-.015-.364,0-.729.009-1.092.015-.419.042-.838.077-1.256q.031-.37.071-.738c.015-.141.032-.282.048-.422.008-.073.019-.146.027-.22.047-.393-.05.337,0,.016A37.341,37.341,0,0,1,4.3,36.032q.341-1.263.773-2.5c.344-.983.632-1.7.953-2.409,4.453-9.892,13.4-16.306,23.792-19.3A65.932,65.932,0,0,1,43.476,9.49,17.927,17.927,0,0,0,56.72,2.784a1.651,1.651,0,0,0,0-2.257A1.6,1.6,0,0,0,54.463.527Z" transform="translate(481.33 645.461)"/>
    <path id="Path-19" data-name="Path" d="M9.814,31.349,0,377.909l102.2,1.229s9.061-247.349,6.938-285.313S83.547,0,83.547,0" transform="translate(533.761 238.075)" fill="#ffc41f"/>
    <path id="Path-20" data-name="Path" d="M9.814,31.349,0,377.909l102.2,1.229s9.061-247.349,6.938-285.313S83.547,0,83.547,0" transform="translate(533.761 238.075)" fill="#09f"/>
    <path id="Path-21" data-name="Path" d="M61.861,8.4A38.024,38.024,0,0,0,10.49,64.248l49.4.594S60.744,41.659,61.861,8.4Z" transform="translate(576.063 552.371)" fill="#fff"/>
    <path id="Path-22" data-name="Path" d="M4.647,76.067A38.034,38.034,0,0,0,4.647,0C3.8,0,2.972.037,2.143.091L0,75.774a38.357,38.357,0,0,0,4.647.293Z" transform="translate(535.51 478.434)" fill="#fff"/>
    <circle id="Oval-2" data-name="Oval" cx="38.034" cy="38.034" r="38.034" transform="translate(546.807 345.981)" fill="#fff"/>
    <path id="Path-23" data-name="Path" d="M9.815,32.826,9.552,42.1,8.838,67.33,7.781,104.649l-1.289,45.53L5.079,200.045,3.654,250.374,2.33,297.128,1.206,336.794.4,365.313c-.127,4.494-.373,9-.382,13.5,0,.191-.011.383-.016.574a1.618,1.618,0,0,0,1.6,1.6l34.526.415,55.034.662,12.637.152a1.624,1.624,0,0,0,1.6-1.6q.186-5.062.365-10.124.486-13.621.954-27.243.675-19.6,1.316-39.21.762-23.277,1.471-46.555.737-24.293,1.395-48.587Q111.5,185.95,112,163c.266-12.811.5-25.623.6-38.436.071-8.574.145-17.16-.124-25.731-.548-17.438-4.67-34.664-9.531-51.348A466.024,466.024,0,0,0,87.631,3.37c-.312-.774-.626-1.547-.949-2.317C85.9-.812,82.809.007,83.6,1.9c4.424,10.541,8.275,21.354,11.844,32.209,6.437,19.574,12.412,40.046,13.658,60.716.451,7.482.369,15.008.343,22.5-.04,11.933-.229,23.866-.451,35.8q-.416,22.277-1.008,44.55-.621,24.2-1.347,48.4-.7,23.668-1.468,47.335-.667,20.684-1.371,41.367-.519,15.247-1.058,30.493c-.172,4.855-.714,9.855-.527,14.713.008.211-.016.427-.023.638l1.6-1.6L69.268,378.6l-55.034-.662L1.6,377.791l1.6,1.6.263-9.272.715-25.232,1.057-37.318,1.289-45.53,1.412-49.867,1.425-50.329,1.324-46.754L11.8,75.418,12.608,46.9c.127-4.494.373-9,.382-13.5,0-.191.011-.383.016-.574.058-2.055-3.134-2.053-3.192,0Z" transform="translate(532.165 236.598)"/>
    <path id="Path-24" data-name="Path" d="M1.542,3.192A1.6,1.6,0,0,0,1.542,0a1.6,1.6,0,0,0,0,3.192Z" transform="translate(663.887 251.297)"/>
    <path id="Path-25" data-name="Path" d="M6.383,72.876,13.834,241.6a133.176,133.176,0,0,0,66.9,90.395l92.74,50.4,44.687-79.7s-76.6-48.374-110.994-64.594l4.516-132.455a137.154,137.154,0,0,0-2.718-32.234L99.472,27.129,0,0" transform="translate(569.148 230.551)" fill="#09f"/>
    <path id="Path-26" data-name="Path" d="M72.015,38.037A38.032,38.032,0,0,0,0,20.959l.206,4.677a133.112,133.112,0,0,0,20.129,47.9,38.034,38.034,0,0,0,51.679-35.5Z" transform="translate(582.775 446.514)" fill="#fff"/>
    <path id="Path-27" data-name="Path" d="M67.276,38.316C50.144,27.758,24.607,12.272,2.675,0a38.031,38.031,0,0,0,64.6,38.316Z" transform="translate(700.532 482.791)" fill="#fff"/>
    <path id="Path-28" data-name="Path" d="M62.543,13.423A38.025,38.025,0,0,0,0,20.127L45.055,44.612Z" transform="translate(697.566 568.331)" fill="#fff"/>
    <path id="Path-29" data-name="Path" d="M45.653,75.121l.035-1.037A137.155,137.155,0,0,0,42.971,41.85L34.386,0A38.034,38.034,0,1,0,45.653,75.121Z" transform="translate(635.144 262.111)" fill="#fff"/>
    <path id="Path-30" data-name="Path" d="M43.709,38.034A38.048,38.048,0,0,0,0,.424L3.337,75.989c.774.047,1.553.078,2.339.078A38.034,38.034,0,0,0,43.709,38.034Z" transform="translate(575.973 313.001)" fill="#fff"/>
    <path id="Path-31" data-name="Path" d="M6.331,74.458l.7,15.848,1.7,38.389,2.092,47.385,1.858,42.086,1.045,23.655c.02.445.015.9.059,1.343a46.7,46.7,0,0,0,1.473,6.627q1.094,4.308,2.475,8.537A134.782,134.782,0,0,0,81.573,335.01q11.248,6.134,22.515,12.235l40.662,22.1,28.032,15.233,1.429.777a1.622,1.622,0,0,0,2.183-.573l15.088-26.908,24.061-42.911,5.54-9.88a1.629,1.629,0,0,0-.573-2.183q-13.908-8.782-27.962-17.331c-18.359-11.224-36.824-22.3-55.6-32.818-9.012-5.051-18.091-10.029-27.434-14.445l.79,1.378.879-25.771,1.807-53,1.543-45.246q.143-4.185.285-8.369A146.977,146.977,0,0,0,111.7,72.856L102.8,29.5l-.25-1.216a1.581,1.581,0,0,0-1.115-1.115L67.834,18.007,14.267,3.4,1.968.044a1.6,1.6,0,0,0-.848,3.078l33.606,9.165L88.292,26.9l12.3,3.355-1.115-1.115,8.391,40.905a163.641,163.641,0,0,1,3.823,30.182c.071,4.152-.1,8.3-.245,12.447l-1.429,41.915-1.837,53.882c-.349,10.225-1.076,20.517-1.048,30.749,0,.155-.011.31-.016.465a1.562,1.562,0,0,0,.79,1.378c18.05,8.531,35.337,18.775,52.517,28.912q24.532,14.474,48.694,29.563,4.9,3.047,9.782,6.12l-.573-2.183-15.088,26.909-24.061,42.911-5.54,9.88,2.183-.573L155.65,371.634l-40.084-21.783L85.56,333.545c-15-8.153-28.473-18.376-39.628-31.38a131.976,131.976,0,0,1-19.2-29.728,130.1,130.1,0,0,1-6.446-16.594,79.348,79.348,0,0,1-3.316-12.754c-.231-1.73-.157-3.557-.234-5.3l-.547-12.377-1.73-39.178-2.072-46.916L10.553,97.812,9.568,75.5l-.046-1.039c-.09-2.046-3.282-2.057-3.192,0Z" transform="translate(567.605 228.968)"/>
    <path id="Path-32" data-name="Path" d="M0,18.179C-.056,24.8,6.492,24.7,13.115,24.834s6.754-6.246,13.377-6.109,6.491,6.518,13.112,6.655,6.753-6.246,13.375-6.109,6.49,6.518,13.112,6.655,6.753-6.246,13.374-6.109,6.489,6.518,13.11,6.655,6.752-6.246,13.373-6.109a7.931,7.931,0,0,1,5.748,2.531,4.522,4.522,0,0,0,7.623-3.129l.66-18.255L3.166,0A68.247,68.247,0,0,0,0,18.179Z" transform="translate(480.85 681.69)" fill="#fff"/>
    <path id="Path-33" data-name="Path" d="M.008,19.807A7.206,7.206,0,0,0,4.673,26.9c3.026,1.2,6.534,1.1,9.735,1.153a10.823,10.823,0,0,0,7.886-3.293c2.035-1.863,4.038-3.27,6.965-2.7,2.6.51,4.015,2.745,5.949,4.317a9.81,9.81,0,0,0,8.9,1.863c2.7-.783,4.264-2.89,6.428-4.479a6.533,6.533,0,0,1,7.575-.134C60.2,25.1,61.555,27.3,63.966,28.354a9.718,9.718,0,0,0,9.2-.785c2.045-1.4,3.591-3.718,6.091-4.351,2.829-.716,5.071.522,7.006,2.448,2.153,2.143,4.305,3.791,7.455,4.006,3.214.219,5.739-1.178,8.033-3.278,2.086-1.909,4.167-3.342,7.164-2.653,1.746.4,2.7,1.617,4.1,2.585a6.027,6.027,0,0,0,4.5.919,6.2,6.2,0,0,0,5.008-5.91c.077-1.343.1-2.692.146-4.037l.478-13.227.034-.935a1.617,1.617,0,0,0-1.6-1.6l-11.644-.15L81.985,1.029,48.3.594,19.173.218C14.451.157,9.689-.089,4.967.034c-.066,0-.132,0-.2,0A1.635,1.635,0,0,0,3.23,1.2a62.459,62.459,0,0,0-3.223,18.6c-.028,2.054,3.164,2.055,3.192,0A59.519,59.519,0,0,1,6.308,2.052L4.769,3.223l11.644.15,27.953.361,33.687.435,29.125.376,9.635.124c1.5.019,3.077.188,4.571.059.065-.006.133,0,.2,0l-1.6-1.6-.366,10.119-.23,6.349c-.042,1.157.089,2.485-.677,3.447a3.022,3.022,0,0,1-2.869,1.072c-1.379-.262-2.323-1.649-3.472-2.368a9.733,9.733,0,0,0-9.628-.2c-2.163,1.211-3.6,3.486-5.882,4.483a6.6,6.6,0,0,1-7.01-1.326c-1.991-1.8-3.662-3.84-6.384-4.547A9.841,9.841,0,0,0,74.824,22c-1.857,1.46-3.357,3.485-5.829,3.885-2.788.451-4.778-.84-6.653-2.712-2.094-2.09-4.249-3.643-7.3-3.851a10.289,10.289,0,0,0-7.792,3.056c-2.007,1.815-3.764,3.281-6.653,3-2.59-.252-4.052-2.187-5.836-3.823a9.922,9.922,0,0,0-8.126-2.715c-2.9.362-4.834,2.083-6.921,3.956a7.72,7.72,0,0,1-2.94,1.823,15.252,15.252,0,0,1-4.674.188c-2.434-.074-5.83.013-7.763-1.752A4.223,4.223,0,0,1,3.2,19.807,1.6,1.6,0,0,0,.008,19.807Z" transform="translate(479.246 680.062)"/>
    <path id="Path-34" data-name="Path" d="M4.662,31.007,50.078,13.788A6.6,6.6,0,0,0,52.611,3.6h0A5.579,5.579,0,0,0,45.416.364L0,17.583Z" transform="translate(560.748 649.073)" fill="#fff"/>
    <path id="Path-35" data-name="Path" d="M6.677,34.108l18.6-7.052,24.977-9.47c.606-.23,1.217-.452,1.82-.69a8.052,8.052,0,0,0,4.479-10.8,11.8,11.8,0,0,0-.732-1.387c-.153-.256-.417-.8-.63-1.168A7.216,7.216,0,0,0,50.755.191a7.873,7.873,0,0,0-4.777.426L23.462,9.153c-7.3,2.768-14.616,5.5-21.9,8.3l-.391.148A1.622,1.622,0,0,0,.052,19.569L4.715,32.993c.67,1.929,3.754,1.1,3.078-.848L3.13,18.721,2.015,20.684,19.6,14.016l25.07-9.505c2.467-.935,5.514-2.487,7.523.264a17.23,17.23,0,0,1,1.281,2.238,5.033,5.033,0,0,1,.557,2.878,5.141,5.141,0,0,1-2.4,3.7,10.029,10.029,0,0,1-1.626.685L26.99,23.007C20.053,25.637,13.1,28.228,6.178,30.9l-.349.133C3.926,31.752,4.751,34.838,6.677,34.108Z" transform="translate(559.157 647.511)"/>
    <circle id="Oval-3" data-name="Oval" cx="10.83" cy="10.83" r="10.83" transform="translate(553.769 662.275)"/>
    <path id="Path-36" data-name="Path" d="M.325,15.334A12.43,12.43,0,1,0,7.27,1.113,12.558,12.558,0,0,0,.325,15.334c.445,2,3.522,1.156,3.078-.848a9.236,9.236,0,1,1,9.426,7.163A9.236,9.236,0,0,1,3.4,14.485C2.9,12.494-.176,13.338.325,15.334Z" transform="translate(552.195 660.685)"/>
    <path id="Path-37" data-name="Path" d="M104.053,1.638,93.84,1.477,69.32,1.092,39.779.627l-25.63-.4C10.02.159,5.85-.082,1.722.029c-.06,0-.12,0-.18,0-2.055-.032-2.055,3.159,0,3.192l10.213.161,24.519.386,29.541.465,25.631.4c4.129.065,8.3.306,12.427.2.06,0,.12,0,.18,0,2.055.032,2.055-3.159,0-3.192Z" transform="translate(532.463 590.891)"/>
    <path id="Path-38" data-name="Path" d="M109.147,67.983l-96.6,40.6c-.42-7.672,1.85-35.126-.718-45.266C8.539,50.343,4.191,39.088,0,31.845L60.464,3.135A32.435,32.435,0,0,1,74.99.006L96,.4" transform="translate(485.592 116.512)" fill="#458dc9"/>
    <path id="Path-39" data-name="Path" d="M110.313,68.032l-9.633,4.049L77.556,81.8,49.7,93.508,25.621,103.63l-7.969,3.349a35.027,35.027,0,0,0-3.779,1.588,1.506,1.506,0,0,1-.163.068l2.02,1.539c-.19-3.642.02-7.318.136-10.959.165-5.187.343-10.374.383-15.564a121.762,121.762,0,0,0-.519-14.505c-.665-5.925-2.6-11.724-4.5-17.353A106,106,0,0,0,2.968,32.628L2.4,34.811l10.988-5.218L36.612,18.564,57.475,8.658l4.99-2.369a31.724,31.724,0,0,1,14.163-3.1c6.759.109,13.519.256,20.278.384l.688.013c2.055.039,2.055-3.153,0-3.192L77.544.017A36.214,36.214,0,0,0,61.237,3.351c-1.153.541-2.3,1.092-3.451,1.639L38.342,14.222,14.487,25.549,5.469,29.831c-1.485.705-3.031,1.344-4.477,2.126-.067.036-.138.066-.207.1a1.614,1.614,0,0,0-.573,2.183A97.273,97.273,0,0,1,7.4,50.444q1.844,5.222,3.325,10.563a54.669,54.669,0,0,1,1.71,7.282,101.566,101.566,0,0,1,.63,13.771c-.009,5.195-.174,10.388-.34,15.579-.134,4.163-.4,8.37-.186,12.535.048.913,1,1.967,2.02,1.539l9.633-4.049,23.124-9.719L75.17,86.237,99.251,76.116,111,71.179l.163-.069a1.652,1.652,0,0,0,1.115-1.963,1.6,1.6,0,0,0-1.963-1.115Z" transform="translate(484.002 114.924)"/>
    <path id="Path-40" data-name="Path" d="M5.2,3.2Q2.611,3.989,0,4.672c4.23,8.773,8.541,13.94,11.7,13.141,3.229-.818,4.549-7.707,4-17.813Z" transform="translate(485.563 207.374)"/>
    <path id="Path-41" data-name="Path" d="M6.359,3.251q-2.586.785-5.2,1.473A1.619,1.619,0,0,0,.207,7.069a52.015,52.015,0,0,0,5.551,9.321c1.4,1.807,3.112,3.69,5.346,4.438,4.738,1.586,6.768-4.025,7.355-7.607a54.287,54.287,0,0,0,.414-11.63A1.614,1.614,0,0,0,16.853.052L6.359,3.251c-1.959.6-1.124,3.679.848,3.078L17.7,3.129l-2.02-1.539a60.092,60.092,0,0,1-.122,9.431,22.542,22.542,0,0,1-.589,3.33,9.039,9.039,0,0,1-.854,2.286c-.095.168-.2.329-.3.49-.2.3.057-.035-.119.152-.114.122-.229.238-.351.352-.066.061-.236.157.044-.03a2,2,0,0,0-.242.153c-.244.223.133-.013-.076.047a4.127,4.127,0,0,1-.442.111c.362-.062-.016-.03-.168-.028-.089,0-.294-.053.058.014a2.067,2.067,0,0,1-.249-.054c-.17-.055-.341-.1-.507-.166.306.124-.209-.119-.271-.154a6.951,6.951,0,0,1-.9-.61,16.2,16.2,0,0,1-2.285-2.407A48.769,48.769,0,0,1,2.962,5.457L2.009,7.8q2.612-.691,5.2-1.473C9.168,5.734,8.332,2.652,6.359,3.251Z" transform="translate(483.978 205.784)"/>
    <path id="Path-42" data-name="Path" d="M8.681,53.7,120.43,83.519a140.958,140.958,0,0,0,70.973-.225q2.61-.687,5.2-1.473l10.494-3.2a148.174,148.174,0,0,0-4.487-27.336c-3.287-12.977-7.635-24.233-11.826-31.476l-13.341,6.335-18.331,8.7L28.869,1.06A33.093,33.093,0,0,0,14.815.5L0,3.113" transform="translate(294.159 128.753)" fill="#fc7272"/>
    <path id="Path-43" data-name="Path" d="M9.834,56.759,15,58.139l13.548,3.615,19.087,5.093L69.124,72.58l21.023,5.61,17.62,4.7L119.042,85.9a153.181,153.181,0,0,0,15.735,3.4,143.782,143.782,0,0,0,42.579.3c9.932-1.414,19.459-4.173,29.022-7.089l2.721-.83a1.623,1.623,0,0,0,1.172-1.539,143.839,143.839,0,0,0-3.815-24.78A159.644,159.644,0,0,0,198.7,30.828a88.5,88.5,0,0,0-4.961-10.3,1.636,1.636,0,0,0-2.183-.573L165.918,32.126l-6.035,2.865,1.23-.161-4.556-1.182-12.268-3.183-17.641-4.577L105.7,20.454,83.858,14.789,63.251,9.443,46.013,4.971,34.533,1.992a64.925,64.925,0,0,0-8.181-1.8A42.479,42.479,0,0,0,13.53.914L3.348,2.708,1.153,3.1C-.866,3.451-.01,6.527,2,6.173l9.847-1.736c4.832-.852,9.545-1.719,14.492-1.053a82.692,82.692,0,0,1,9.551,2.258l16.9,4.384,23.86,6.19,26.713,6.93,25.364,6.58,20.123,5.221,10.669,2.768c.235.061.471.136.708.184a3.616,3.616,0,0,0,2.263-.624l10.826-5.14,16.852-8,3-1.424-2.183-.573A103.741,103.741,0,0,1,199.3,41.662a173.634,173.634,0,0,1,6.3,25.576,120.038,120.038,0,0,1,1.477,12.9L208.25,78.6c-7.03,2.144-14.031,4.423-21.214,6.009a139.783,139.783,0,0,1-42.468,2.705A137.993,137.993,0,0,1,121.23,83.18l-9.479-2.529L95.371,76.28,74.858,70.806,53.324,65.06,33.576,59.79,18.453,55.755c-2.477-.661-4.948-1.371-7.438-1.985-.111-.027-.222-.059-.333-.088a1.6,1.6,0,0,0-.848,3.078Z" transform="translate(292.581 127.232)"/>
    <path id="Path-44" data-name="Path" d="M0,3.131s13.5-10.61,26.525,7.234c7.716,14.951-8.681,22.667-8.681,22.667" transform="translate(593.171 22.152)" fill="#fff"/>
    <path id="Path-45" data-name="Path" d="M2.72,5.808c-.653.51-.108.09.058-.023.337-.23.687-.441,1.043-.641a13.263,13.263,0,0,1,3.4-1.413,14.867,14.867,0,0,1,11.438,1.42,25.453,25.453,0,0,1,7.174,6.381,13.145,13.145,0,0,1,2.743,7.582A13.5,13.5,0,0,1,24.191,29.2a19.739,19.739,0,0,1-5.561,4c-1.856.878-.238,3.63,1.611,2.756,5.99-2.834,11.185-8.855,11.52-15.638a17.889,17.889,0,0,0-1.834-8.33,19.111,19.111,0,0,0-3.639-4.783,28.771,28.771,0,0,0-4.02-3.527A18.555,18.555,0,0,0,7.932.286,17.488,17.488,0,0,0,.463,3.552a1.606,1.606,0,0,0,0,2.257,1.634,1.634,0,0,0,2.257,0Z" transform="translate(591.58 20.603)"/>
    <path id="Path-46" data-name="Path" d="M20.7,38.326,0,169.6s139-16,152.444.212c-2.69-32.426-15.041-97.785-22.971-137.727A39.853,39.853,0,0,0,88.616.04L38.687,2.254" transform="translate(536.922 116.058)" fill="#458dc9"/>
    <path id="Path-47" data-name="Path" d="M20.717,39.483,18.661,52.527,13.722,83.856,7.746,121.768,2.576,154.56C1.737,159.883.869,165.2.059,170.529c-.012.077-.024.154-.036.231-.142.9.4,2.151,1.539,2.02,4.615-.531,9.238-1,13.86-1.464q16.864-1.683,33.765-2.968c13.964-1.055,27.949-1.9,41.948-2.336a355.9,355.9,0,0,1,38.408.431,93.709,93.709,0,0,1,13.853,1.878,37.693,37.693,0,0,1,5.178,1.5c.191.072.38.149.57.224.253.1-.078-.034-.106-.046.09.038.18.076.269.117.339.155.678.311,1.009.484a14.122,14.122,0,0,1,1.63,1.007c.246.174-.309-.255-.081-.063.057.048.118.092.173.142.089.081.183.158.272.241a6.773,6.773,0,0,1,.569.6A1.61,1.61,0,0,0,155.6,171.4c-1.531-18.357-4.541-36.614-7.58-54.77-3.552-21.226-7.476-42.39-11.558-63.52q-1.366-7.07-2.758-14.136c-.927-4.707-1.76-9.365-3.646-13.806A41.553,41.553,0,0,0,110.715,4.48,42.871,42.871,0,0,0,89.276.065L75.227.688,40.963,2.207l-.715.032c-2.046.091-2.057,3.282,0,3.192L69.719,4.124l17.06-.757c5.336-.237,10.543-.2,15.747,1.3a38.457,38.457,0,0,1,21.856,16.47c4.971,7.966,6.011,17.43,7.774,26.473,4.034,20.7,7.919,41.421,11.489,62.2C146.859,128.52,150,147.3,151.926,166.2q.265,2.6.484,5.2l2.724-1.128c-1.9-2.266-5.048-3.4-7.791-4.224a73.422,73.422,0,0,0-13.192-2.369c-12.308-1.323-24.775-1.276-37.135-1.009-14.141.306-28.272,1.088-42.379,2.092q-17.874,1.271-35.709,3.022-5.818.566-11.63,1.182c-1.8.192-3.717.233-5.5.6-.078.016-.161.018-.241.027l1.539,2.02,2.056-13.044L10.1,127.235l5.977-37.912,5.17-32.792c.839-5.323,1.708-10.642,2.517-15.969.012-.077.024-.154.036-.23a1.649,1.649,0,0,0-1.115-1.963,1.607,1.607,0,0,0-1.963,1.115Z" transform="translate(535.361 114.477)"/>
    <path id="Path-48" data-name="Path" d="M7.778,14.569l-.646,5.087A45.644,45.644,0,0,0,8.463,37.387l-4.9,7.562a22.138,22.138,0,0,0,.1,24.236h0a22.138,22.138,0,0,0,22.151,9.636l34.5-5.807C67.366,68.414,90.088,20.531,72.482,0" transform="translate(513.57 32.326)"/>
    <path id="Path-49" data-name="Path" d="M7.752,16.227c-.294,2.313-.649,4.629-.84,6.954A47.967,47.967,0,0,0,8.495,39.469l.161-1.23c-2.82,4.351-6.237,8.7-7.722,13.727a23.9,23.9,0,0,0,7.9,25.164A24.491,24.491,0,0,0,28.566,81.89l12.713-2.14,16.195-2.726c1.476-.248,2.971-.446,4.437-.747a5.17,5.17,0,0,0,2.628-1.87c3.087-3.433,5.312-7.73,7.312-11.853a113.03,113.03,0,0,0,7.083-18.622A79.277,79.277,0,0,0,82.19,23.08c.043-6.443-1.023-13.123-4.3-18.759A26.362,26.362,0,0,0,75.18.529c-1.331-1.568-3.579.7-2.257,2.257,4.235,4.989,5.807,11.64,6.042,18.047a72,72,0,0,1-2.934,21.618,107.7,107.7,0,0,1-7.319,19.27,71.965,71.965,0,0,1-3.992,7.123q-.421.651-.864,1.287-.206.294-.418.585c-.074.1-.52.685-.317.427a15.256,15.256,0,0,1-1.548,1.738c-.118.11-.243.212-.362.321-.221.2.327-.172-.079.055.281-.157.416-.1.108-.085a13.028,13.028,0,0,0-1.489.251L53.338,74.5,35.645,77.478c-3.6.605-7.3,1.525-10.953,1.691A20.55,20.55,0,0,1,5.266,49.59a71.669,71.669,0,0,1,4.282-6.866c.588-.907,1.234-1.8,1.773-2.735a2.641,2.641,0,0,0,.039-2.177q-.564-2.221-.917-4.489a49.2,49.2,0,0,1,.083-13.8l.419-3.3a1.606,1.606,0,0,0-1.6-1.6,1.634,1.634,0,0,0-1.6,1.6Z" transform="translate(512 30.669)"/>
    <path id="Path-50" data-name="Path" d="M12.14,37.14l-5.2-17.29L34.875,0,44.78,37.34l10.447-.2L38.5,54.614A22.352,22.352,0,0,1,20.89,61.46h0A22.352,22.352,0,0,1,.033,37.95l.052-.963Z" transform="translate(562.86 79.576)" fill="#fc7272"/>
    <path id="Path-51" data-name="Path" d="M15.261,38.307l-5.2-17.29-.733,1.8L33.834,5.405l3.429-2.437-2.345-.954,3.335,12.572L43.6,34.749l1.222,4.606a1.621,1.621,0,0,0,1.539,1.172l10.447-.2L55.681,37.6,40.691,53.259c-.58.606-1.156,1.215-1.74,1.817a21.048,21.048,0,0,1-9.64,5.718,20.767,20.767,0,0,1-24.69-12.41,23.022,23.022,0,0,1-1.358-9.806l-1.6,1.6,12.055.153c2.054.027,2.056-3.165,0-3.192L1.668,36.982a1.627,1.627,0,0,0-1.6,1.6A24.726,24.726,0,0,0,6.183,56.816a24.031,24.031,0,0,0,18.752,7.856,24.676,24.676,0,0,0,16.8-7.887l8.524-8.9,7.681-8.022a1.614,1.614,0,0,0-1.128-2.724l-10.447.2L47.9,38.507,44.567,25.935,39.218,5.773,38,1.166A1.607,1.607,0,0,0,35.652.213L11.146,17.626,7.716,20.063a1.649,1.649,0,0,0-.733,1.8l5.2,17.29C12.774,41.117,15.855,40.281,15.261,38.307Z" transform="translate(561.277 77.985)"/>
    <path id="Path-52" data-name="Path" d="M51.083,63.083a54.018,54.018,0,0,1-18.142,9.432C.2,76.689,0,17.333,0,17.333L58.934,0s10.979,10.754,11.91,16.761c1.6,10.346-6.386,20.09-5.776,33.8" transform="translate(534.072 34.139)" fill="#fc7272"/>
    <path id="Path-53" data-name="Path" d="M51.55,63.55a51.286,51.286,0,0,1-15.527,8.387,11.339,11.339,0,0,1-3.165.738,23.9,23.9,0,0,1-2.6.025,18.058,18.058,0,0,1-4.343-.708c-5.452-1.553-9.667-5.652-12.667-10.452A58.828,58.828,0,0,1,6.383,44.11a111.685,111.685,0,0,1-2.7-16.54c-.264-2.868-.479-5.76-.49-8.642L2.02,20.467l19.974-5.875L53.686,5.271l7.267-2.137L59.4,2.724A58.709,58.709,0,0,1,69.347,14.9a11.628,11.628,0,0,1,1.539,3.791,18.029,18.029,0,0,1-.046,5.524c-.6,4.146-2.1,8.119-3.315,12.111a48.129,48.129,0,0,0-2.457,15.827c.08,2.047,3.272,2.057,3.192,0A44.152,44.152,0,0,1,70.415,37.8c1.225-4.121,2.773-8.19,3.458-12.45.6-3.706.58-7.406-1.107-10.824a43.973,43.973,0,0,0-6.315-8.895C64.923,3.853,63.334,2.111,61.658.467a1.605,1.605,0,0,0-1.553-.41L40.131,5.931,8.439,15.252,1.172,17.389A1.631,1.631,0,0,0,0,18.928c.01,2.495.181,5,.388,7.482A122.418,122.418,0,0,0,3.019,43.748,65.055,65.055,0,0,0,10,62.358c3.215,5.423,7.756,10.135,13.788,12.3a22.97,22.97,0,0,0,9.9,1.139c2.992-.286,6.027-1.781,8.748-3.006a51.9,51.9,0,0,0,7.872-4.371c1.2-.819,2.366-1.7,3.5-2.617a1.608,1.608,0,0,0,0-2.257,1.631,1.631,0,0,0-2.257,0Z" transform="translate(532.476 32.544)"/>
    <path id="Path-54" data-name="Path" d="M3.192,12.142c.011-.321.034-.641.06-.961q.043-.545.1-1.088c.021-.194.045-.388.069-.582.047-.381-.046.31,0,.028.021-.137.04-.274.061-.411a23.041,23.041,0,0,1,.623-2.9c.069-.239.144-.476.225-.712q.056-.162.116-.322c.029-.078.178-.455.079-.211s.044-.1.071-.153q.077-.166.161-.329a6.617,6.617,0,0,1,.354-.606c.025-.037.168-.279.193-.273s-.284.317-.1.133c.037-.037.069-.081.105-.119.079-.086.163-.164.247-.245.027-.026.059-.048.086-.074.184-.182-.244.149-.117.092a2.959,2.959,0,0,0,.279-.17c.3-.18-.267.063-.052.02a2.463,2.463,0,0,0,.278-.075c.213-.071-.18.037-.207.025a.774.774,0,0,0,.225-.011A1.6,1.6,0,1,0,6.048,0C3.491.046,2.092,2.33,1.316,4.478A25.247,25.247,0,0,0,.1,10.728c-.043.47-.082.942-.1,1.414a1.609,1.609,0,0,0,1.6,1.6,1.629,1.629,0,0,0,1.6-1.6Z" transform="translate(583.757 54.576)"/>
    <path id="Path-55" data-name="Path" d="M2.709,6.282a7.458,7.458,0,0,1,.775-.74c.077-.066.482-.391.265-.221-.238.186.076-.055.121-.088q.114-.083.231-.164A12.319,12.319,0,0,1,5.383,4.29c.25-.132.506-.251.763-.369-.357.164.037-.014.09-.035q.215-.084.434-.159A13.218,13.218,0,0,1,8.516,3.26q.284-.043.022-.007.152-.019.3-.033.234-.022.468-.035a11.3,11.3,0,0,1,1.141,0,9.443,9.443,0,0,1,2.238.37A1.6,1.6,0,1,0,13.539.474a13.429,13.429,0,0,0-9.557.952,11.782,11.782,0,0,0-3.53,2.6,1.635,1.635,0,0,0,0,2.257,1.611,1.611,0,0,0,2.257,0Z" transform="translate(555.188 55.843)"/>
    <path id="Path-56" data-name="Path" d="M2.719,5.576c.2-.168-.373.245.054-.035.334-.22.662-.443,1.009-.643A14.547,14.547,0,0,1,7.311,3.46a5.762,5.762,0,0,1,6.338,1.864c1.376,1.827,1.329,4.384.947,6.538a19.712,19.712,0,0,1-1.288,4.3,19.462,19.462,0,0,0-1.084,2.281,3.545,3.545,0,0,0,.219,1.941c1.114,3.18,4.692,2.534,7.155,1.546a1.646,1.646,0,0,0,1.115-1.963,1.607,1.607,0,0,0-1.963-1.115,13.59,13.59,0,0,1-1.927.645,3.929,3.929,0,0,1-.577.1c-.071.006-.614,0-.4.021-.064-.006-.466-.144-.207-.036-.142-.059-.093-.106-.065-.01a3,3,0,0,1-.213-.707l-.218.805c2.144-4.073,4.025-9.7,2.178-14.247A8.788,8.788,0,0,0,12.351.539,10.24,10.24,0,0,0,5.032.831,15.167,15.167,0,0,0,.462,3.318a1.608,1.608,0,0,0,0,2.257,1.631,1.631,0,0,0,2.257,0Z" transform="translate(534.54 61.67)"/>
    <circle id="Oval-4" data-name="Oval" cx="2.15" cy="2.15" r="2.15" transform="translate(540.912 70.094)"/>
    <path id="Path-57" data-name="Path" d="M4.25,2.594c.015.057.027.114.039.172.036.158,0-.036,0-.04.041.053.012.247.01.312,0,.028.007.121-.01.14l.014-.1q-.006.041-.015.082c-.02.1-.053.2-.081.293-.051.179.083-.151,0,.013-.017.032-.032.066-.05.1q-.039.073-.084.142c-.008.013-.1.167-.033.054s-.027.031-.042.048c-.031.035-.062.068-.095.1s-.068.062-.1.095c-.121.119.119-.072-.014.013-.08.051-.157.1-.241.147-.054.028-.165.128-.019.015a.5.5,0,0,1-.138.048c-.094.03-.19.048-.286.07-.116.027.2-.008.012,0-.057,0-.114.007-.171.006s-.112,0-.169-.007c-.163-.006.047.007.046.008-.039.028-.251-.056-.3-.07-.027-.009-.116-.023-.13-.045l.088.038L2.4,4.188c-.088-.049-.174-.1-.262-.152-.159-.094.123.116-.014-.008-.034-.031-.069-.06-.1-.092s-.066-.065-.1-.1c-.008-.009-.134-.142-.045-.047s-.027-.041-.037-.055c-.026-.039-.051-.08-.074-.12s-.044-.084-.067-.126c-.084-.151.037.132-.01-.022-.032-.1-.065-.2-.087-.312L1.6,3.127q-.022-.135,0,.04a.4.4,0,0,1-.01-.143c0-.095,0-.187.008-.282,0-.118-.044.2,0,.019.013-.054.023-.109.037-.162s.034-.105.049-.158c.05-.17-.066.106-.008.012.048-.077.082-.164.13-.242.015-.025.051-.1.076-.114l-.058.074q.026-.032.053-.064c.076-.081.156-.156.236-.234s-.16.1-.007,0c.039-.025.078-.053.118-.077s.081-.048.123-.07c.01-.005.181-.085.061-.033s.057-.018.068-.022c.047-.015.094-.029.142-.041s.1-.021.143-.032c.162-.039-.166.01.045,0,.1-.007.207,0,.311,0,.191.005-.177-.04.009,0,.054.012.108.023.162.037s.105.034.158.049c.152.044-.139-.076.013,0,.1.052.191.107.286.164.152.09-.084-.088-.007-.009.044.046.1.084.144.129q.04.039.077.08c.025.027.05.055.073.084q-.1-.134-.023-.028c.062.1.117.193.173.292.03.053.076.08-.011-.032a.742.742,0,0,1,.074.223.8.8,0,1,0,1.539-.425A3,3,0,0,0,3.148.007a2.946,2.946,0,1,0,2.64,2.161.8.8,0,0,0-1.539.425Z" transform="translate(540.116 69.297)"/>
    <circle id="Oval-5" data-name="Oval" cx="2.15" cy="2.15" r="2.15" transform="translate(560.446 64.774)"/>
    <path id="Path-58" data-name="Path" d="M4.249,2.594c.015.057.027.114.039.172.036.158,0-.036,0-.04.04.053.012.247.009.312,0,.028.007.121-.01.14l.014-.1q-.006.041-.015.082c-.02.1-.053.2-.081.293-.051.179.083-.151,0,.013-.017.032-.032.066-.05.1q-.039.073-.084.142c-.008.013-.1.167-.033.054s-.027.031-.042.048c-.031.035-.062.068-.1.1s-.068.062-.1.095c-.121.119.119-.072-.014.013-.08.051-.157.1-.241.147-.054.028-.165.128-.019.015a.5.5,0,0,1-.138.048c-.094.03-.19.048-.286.07-.117.027.2-.008.012,0-.057,0-.114.007-.171.006s-.112,0-.169-.007c-.163-.006.047.007.046.008-.039.028-.251-.056-.3-.07-.027-.009-.115-.023-.13-.045l.088.038L2.4,4.188c-.089-.049-.174-.1-.262-.152-.159-.094.123.116-.014-.008-.034-.031-.069-.06-.1-.092s-.066-.065-.1-.1c-.008-.009-.134-.142-.045-.047s-.027-.041-.037-.055c-.027-.039-.051-.08-.074-.12s-.044-.084-.067-.126c-.084-.151.037.132-.01-.022-.032-.1-.065-.2-.087-.312L1.6,3.127q-.022-.135,0,.04a.4.4,0,0,1-.01-.143c0-.095,0-.188.008-.282,0-.118-.044.2,0,.019.013-.054.023-.109.037-.162s.034-.105.049-.158c.05-.17-.066.106-.008.012.048-.077.082-.164.13-.242.015-.025.051-.1.076-.114l-.058.074q.026-.033.053-.064c.076-.082.156-.156.235-.234s-.16.1-.007,0c.04-.025.078-.053.118-.077s.081-.048.123-.07c.01-.005.181-.085.061-.033s.057-.018.068-.022q.07-.023.142-.041c.048-.012.1-.021.143-.032.162-.039-.166.01.045,0,.1-.007.207,0,.311,0,.191.005-.177-.04.009,0,.054.012.108.023.162.037s.105.034.158.049c.152.044-.139-.076.013,0,.1.052.191.107.286.164.152.09-.084-.088-.007-.009.044.046.1.084.144.129q.04.039.077.08t.073.084q-.1-.133-.023-.028c.061.1.117.193.173.292.03.053.076.08-.011-.032a.745.745,0,0,1,.074.223.8.8,0,0,0,1.539-.425A3,3,0,0,0,3.148.007a2.946,2.946,0,1,0,2.64,2.161.8.8,0,0,0-1.539.425Z" transform="translate(559.651 63.977)"/>
    <path id="Path-59" data-name="Path" d="M5.656,1.172a3.331,3.331,0,0,1-.094.38q-.063.212-.142.418c-.016.041-.032.081-.048.122-.073.188.2-.449.1-.237-.044.1-.087.193-.135.288A6.066,6.066,0,0,1,5,2.727q-.094.145-.2.284c-.191.26.166-.206.1-.133-.048.057-.093.115-.142.171a5.567,5.567,0,0,1-.594.59c-.049.042-.1.081-.149.123-.133.112.332-.248.189-.146l-.092.067q-.2.146-.42.272-.242.142-.5.259l-.088.04c-.166.08.4-.158.169-.072-.095.035-.189.072-.285.1a7.132,7.132,0,0,1-1.33.305L2.1,4.534q-.244.031-.489.049a1.6,1.6,0,1,0,0,3.192,7.982,7.982,0,0,0,5.1-2.133A7.685,7.685,0,0,0,8.583,2.581a3.832,3.832,0,0,0,.151-.56A1.727,1.727,0,0,0,8.574.791a1.6,1.6,0,0,0-2.917.381Z" transform="translate(557.324 81.222)"/>
    <path id="Path-60" data-name="Path" d="M0,37l.423-3.889C2.659,15.417,13.462-.667,50.547.021c0,0,15.239.7,31.154,14.2l4.823,4.341a31.959,31.959,0,0,1,4.921,7.747,44.054,44.054,0,0,1,4.1,22.8q-.054.621-.092,1.241L93.222,89.219a10.347,10.347,0,0,1-7.664,9.4h0L73.414,60.137c2.345-2.86,4.521-12.265,3.428-17.136-1.652-7.358-5.99-8.2-11.129-7.049S57.071,48.089,58.681,55.26L54.368,39.921A8.339,8.339,0,0,0,43.325,34.4c-5.915,2.295-17.51,6.23-27.795,9.422a11.338,11.338,0,0,1-7.343-.19" transform="translate(521.117 12.023)"/>
    <path id="Path-61" data-name="Path" d="M3.192,38.649c.535-4.923,1.235-9.895,3.159-14.476A29.481,29.481,0,0,1,16.7,11.288c6.186-4.294,13.662-6.378,21.059-7.33a80.028,80.028,0,0,1,14.4-.692c.441.024.88.077,1.317.13.36.044-.286-.041-.038-.006.1.014.2.028.3.043.225.034.449.069.674.106q.939.157,1.87.356a59.132,59.132,0,0,1,23.866,11.46c2.243,1.756,4.316,3.717,6.432,5.622A22.844,22.844,0,0,1,91.1,27.639a41.993,41.993,0,0,1,4.518,16.407,71.971,71.971,0,0,1-.214,8.783l-.787,13.7L93.6,84.334c-.211,3.665.189,8.268-2.193,11.319a8.835,8.835,0,0,1-4.675,3.079l1.963,1.115-4.11-13.023-6.52-20.662-1.515-4.8-.41,1.553c2.442-3.086,3.365-7.449,3.883-11.261.575-4.232.436-8.937-2.172-12.541-2.331-3.221-5.986-3.884-9.719-3.291-3.85.611-6.182,3.474-7.68,6.91a24.417,24.417,0,0,0-1.713,14.6l3.078-.848C60.391,51.416,59,46.338,57.541,41.279A10.048,10.048,0,0,0,47.095,33.93c-2.369.229-4.609,1.354-6.829,2.155-2.782,1-5.578,1.971-8.38,2.919q-5.249,1.776-10.528,3.461c-1.8.575-3.612,1.252-5.454,1.684a10.065,10.065,0,0,1-5.7-.408c-1.941-.684-2.776,2.4-.848,3.078,3.293,1.16,6.412.75,9.669-.27q4.69-1.469,9.356-3.013C33.693,41.782,39,39.992,44.23,38.014c2.138-.808,4.165-1.352,6.374-.394a6.86,6.86,0,0,1,3.831,4.407c.722,2.428,1.372,4.88,2.058,7.319l2.245,7.986a1.6,1.6,0,0,0,3.078-.848,20.838,20.838,0,0,1,1.618-12.65A9.931,9.931,0,0,1,66.5,39.682a8.144,8.144,0,0,1,4.649-.9c3.888.177,5.663,4.087,5.93,7.556a26.678,26.678,0,0,1-2.307,12.717c-.524,1.125-1.582,2.01-1.266,3.276.112.448.281.89.42,1.33l1.934,6.129L81.695,88.27,85.616,100.7a1.626,1.626,0,0,0,1.963,1.115,12.017,12.017,0,0,0,8.684-9.6c.2-1.269.222-2.57.3-3.851l.954-16.6.972-16.9c.063-1.091.116-2.183.192-3.272a49.33,49.33,0,0,0-1.652-17.7A41.425,41.425,0,0,0,90.04,20.025a37.117,37.117,0,0,0-4.506-4.282A64.578,64.578,0,0,0,61.571,1.978,47.234,47.234,0,0,0,53.48.2,52.018,52.018,0,0,0,44.566.178C35.833.607,26.9,2.1,19.058,6.152A33.43,33.43,0,0,0,5.377,18.99,41.23,41.23,0,0,0,.385,35.112C.254,36.291.128,37.471,0,38.65a1.608,1.608,0,0,0,1.6,1.6,1.631,1.631,0,0,0,1.6-1.6Z" transform="translate(519.52 10.376)"/>
    <path id="Path-62" data-name="Path" d="M45.052,0,0,59.418c7.057,4.5,16.1,12.485,25,22.489,6.951,7.816,17.583,33.23,21.49,39.845l67.037-80.541" transform="translate(543.791 148.045)" fill="#458dc9"/>
    <path id="Path-63" data-name="Path" d="M45.263.778l-15.3,20.174L5.764,52.872.211,60.2a1.615,1.615,0,0,0,.573,2.183A97.764,97.764,0,0,1,14.792,73.623q4.013,3.769,7.763,7.807a51.813,51.813,0,0,1,4.754,5.58A105.935,105.935,0,0,1,34.28,99.073c2.361,4.574,4.586,9.215,6.809,13.857,1.8,3.757,3.5,7.615,5.609,11.212a1.608,1.608,0,0,0,2.506.323l6.685-8.031L71.936,97.154,91.265,73.93l16.711-20.077c2.717-3.264,5.471-6.5,8.152-9.794l.113-.136c1.305-1.568-.941-3.838-2.257-2.257L107.3,49.7,91.253,68.977,71.924,92.2,55.213,112.277l-5.53,6.644a35.6,35.6,0,0,0-2.622,3.15,1.524,1.524,0,0,1-.113.136l2.506.323c-1.847-3.145-3.353-6.5-4.928-9.79-2.222-4.636-4.433-9.278-6.764-13.861a123.736,123.736,0,0,0-7.147-12.672C27.339,81.3,22.973,77.08,18.753,72.992A106.349,106.349,0,0,0,2.395,59.624l.573,2.183,15.3-20.174,24.2-31.921,5.553-7.323A1.607,1.607,0,0,0,47.446.205a1.633,1.633,0,0,0-2.183.573Z" transform="translate(542.201 146.462)"/>
    <path id="Path-64" data-name="Path" d="M3.936,7.674Q2,9.566,0,11.376c7.8,5.838,14,8.438,16.435,6.275,2.489-2.213.487-8.936-4.66-17.651Z" transform="translate(573.105 252.63)"/>
    <path id="Path-65" data-name="Path" d="M4.389,8.13q-1.934,1.888-3.936,3.7a1.619,1.619,0,0,0,.323,2.506,51.437,51.437,0,0,0,8.851,5.544c2.044.954,4.407,1.917,6.714,1.664a4.594,4.594,0,0,0,4.108-3.421c.582-2.171.017-4.591-.649-6.673A53.606,53.606,0,0,0,14.735.779,1.614,1.614,0,0,0,12.229.456L4.389,8.13c-1.47,1.439.787,3.7,2.257,2.257l7.84-7.674L11.98,2.39a56.46,56.46,0,0,1,4.175,8.3,14.674,14.674,0,0,1,1.32,5.965c-.006.108-.076.543-.016.224-.033.177-.08.347-.122.522a2.247,2.247,0,0,1-.081.242c0-.013.123-.255.04-.1a3.788,3.788,0,0,1-.271.458c.185-.257.019-.032-.093.064-.289.248.19-.086-.148.1-.126.069-.406.165-.111.067a5.034,5.034,0,0,1-.556.146c-.235.049.269-.02.02,0-.07,0-.141.014-.211.014-.2,0-.4,0-.6-.006a5.208,5.208,0,0,1-1.078-.178,15.553,15.553,0,0,1-2.9-1.03,51.028,51.028,0,0,1-8.96-5.594l.323,2.506q2-1.817,3.936-3.7C8.118,8.95,5.861,6.694,4.389,8.13Z" transform="translate(571.523 251.045)"/>
    <path id="Path-66" data-name="Path" d="M17.77,113.969,130.693,88.956a140.959,140.959,0,0,0,62.89-32.9q2-1.812,3.936-3.7l7.84-7.674a148.172,148.172,0,0,0-16.575-22.2c-8.9-10-17.94-17.991-25-22.489l-8.923,11.768L142.6,27.938,0,59.923" transform="translate(379.522 207.946)" fill="#fc7272"/>
    <path id="Path-67" data-name="Path" d="M19.763,117.09l5.471-1.212,14.2-3.145,19.875-4.4,22.307-4.941,21.542-4.772,17.511-3.879,10.464-2.318a142.427,142.427,0,0,0,53.051-23.828c7.869-5.722,14.841-12.355,21.773-19.141l2.1-2.058a1.624,1.624,0,0,0,.249-1.934A143.448,143.448,0,0,0,193.64,25.416,160.092,160.092,0,0,0,175.417,7.134,88.808,88.808,0,0,0,166.16.2a1.637,1.637,0,0,0-2.183.573L146.829,23.392l-4.036,5.323.954-.733-14.228,3.192-34.153,7.66L54.3,48.045l-35.667,8L6.945,58.665c-1.846.414-3.728.754-5.555,1.246-.081.022-.164.037-.246.055-2,.449-1.155,3.527.848,3.078l5.8-1.3L23.153,58.3,45,53.4l25.273-5.669,25.63-5.748,22.919-5.14,17.086-3.832c2.776-.623,5.579-1.178,8.339-1.87,1.246-.313,1.955-1.675,2.7-2.653l7.324-9.66L164.893,4.814l1.839-2.426-2.183.573A104.359,104.359,0,0,1,181.12,16.668,170.679,170.679,0,0,1,198.4,36.425a122.832,122.832,0,0,1,7.146,10.648l.249-1.934c-5.313,5.2-10.536,10.507-16.255,15.269a139.767,139.767,0,0,1-32.488,20.176,135.432,135.432,0,0,1-25.765,8.539l-8.446,1.871-16.218,3.592L85.894,99.176l-22.308,4.941L42.944,108.69,27.12,112.2c-2.615.579-5.256,1.092-7.856,1.74-.116.029-.233.052-.35.077-2,.444-1.156,3.522.849,3.078Z" transform="translate(377.954 206.364)"/>
    <path id="Path-68" data-name="Path" d="M251.979,11.129l48.138,30.459A71.816,71.816,0,0,1,322.4,140.675L169.513,382.307,0,275.048,152.891,33.417a71.816,71.816,0,0,1,99.088-22.288Z" transform="translate(121.976 43.232)" fill="#fc7272"/>
    <path id="Path-69" data-name="Path" d="M252.761,14.041l36.483,23.084c4.547,2.877,9.184,5.651,13.637,8.675a70.181,70.181,0,0,1,19.59,95.83q-4.748,7.523-9.513,15.034l-21.259,33.6-28.4,44.887-30.851,48.757-28.829,45.562-22.311,35.261-11.1,17.541-.485.766,2.183-.572-16.894-10.689-40.557-25.662L65.573,315.181,23.306,288.437,9.354,279.609c-2.136-1.351-4.351-3.2-6.672-4.222a2.394,2.394,0,0,1-.289-.183l.573,2.183,5.728-9.052,15.185-24,21.876-34.572,25.537-40.359L97.7,127.665l24.512-38.739,19.563-30.918,11.881-18.776,2.122-3.354A70.139,70.139,0,0,1,237.322,6.7a71.411,71.411,0,0,1,15.438,7.343c1.745,1.1,3.348-1.665,1.611-2.756a73.96,73.96,0,0,0-64.783-6.744,74.745,74.745,0,0,0-37.025,30.452L143.65,49.081,125.857,77.2l-23.47,37.093L75.96,156.059,49.61,197.7,26.368,234.435,9.007,261.872C6.2,266.311,3.3,270.706.576,275.2c-.118.2-.245.386-.367.579a1.622,1.622,0,0,0,.573,2.183L17.675,288.65l40.557,25.662,48.883,30.931,42.267,26.744c6.85,4.334,13.585,9.024,20.624,13.05.1.056.193.122.289.183a1.622,1.622,0,0,0,2.183-.573l7.788-12.308,20.24-31.988,28.008-44.264,31.091-49.138L289.1,200.342l23.2-36.673,12.235-19.336c10.056-15.892,14.294-34.461,11.087-53.1a73.679,73.679,0,0,0-16.207-34.778c-5.659-6.727-12.511-11.927-19.887-16.594L257.938,13.542l-3.566-2.256C252.631,10.184,251.028,12.944,252.761,14.041Z" transform="translate(120.389 41.698)"/>
    <path id="Path-70" data-name="Path" d="M211.4,129.14h0a15.618,15.618,0,0,0-4.847-21.549L40.339,2.42A15.618,15.618,0,0,0,18.79,7.267h0L0,36.963,193.915,156.774Z" transform="translate(106.513 280.197)" fill="#389b48"/>
    <path id="Path-71" data-name="Path" d="M214.365,131.543a17.376,17.376,0,0,0-4.4-23.031c-.895-.664-1.863-1.236-2.8-1.831l-13.825-8.748L169.246,82.69l-30-18.984L107.472,43.6,78.133,25.039,55.427,10.672,43.556,3.161A18.579,18.579,0,0,0,33.738,0,17.412,17.412,0,0,0,22.088,4.394a21.047,21.047,0,0,0-3.708,4.643L1.713,35.38.21,37.755a1.621,1.621,0,0,0,.573,2.183L5.97,43.144,20.09,51.867l20.882,12.9L66.45,80.511l27.9,17.241,28.162,17.4,26.171,16.17,22.192,13.711,15.953,9.857c2.51,1.551,5,3.158,7.537,4.657.111.065.219.135.328.2a1.624,1.624,0,0,0,2.183-.573l15.306-24.189,2.179-3.444c1.1-1.741-1.659-3.344-2.756-1.611L196.3,154.121l-2.179,3.444,2.183-.573-5.188-3.206L177,145.064l-20.882-12.9-25.477-15.741-27.9-17.241L74.574,81.78,48.4,65.61,26.211,51.9,10.258,42.042c-2.5-1.546-4.963-3.233-7.537-4.657-.112-.062-.219-.135-.328-.2l.573,2.183,14.9-23.546c1.933-3.055,3.742-6.741,6.481-9.169a14.177,14.177,0,0,1,16.9-1.178c3.017,1.9,6.022,3.81,9.033,5.715L70.608,24.053,98.447,41.668l31.2,19.74,30.5,19.3,25.685,16.252,16.942,10.72,3.956,2.5a14.617,14.617,0,0,1,6.657,8.778,14.087,14.087,0,0,1-1.778,10.971C210.508,131.673,213.269,133.276,214.365,131.543Z" transform="translate(104.925 278.6)"/>
    <path id="Path-72" data-name="Path" d="M15.618,0h0A15.618,15.618,0,0,1,31.236,15.618V212.311a15.618,15.618,0,0,1-15.618,15.618h0A15.618,15.618,0,0,1,0,212.311V15.618A15.618,15.618,0,0,1,15.618,0Z" transform="matrix(0.535, -0.845, 0.845, 0.535, 99.467, 328.296)"/>
    <path id="Path-73" data-name="Path" d="M24.761,5.4l5.5,3.481,14.777,9.35L66.42,31.755,92.067,47.983l26.984,17.074L145.06,81.514l22.353,14.144,16.068,10.167,7.313,4.627a14.03,14.03,0,0,1-5.356,25.823,14.5,14.5,0,0,1-9.953-2.32l-2.807-1.776-12.81-8.105L139.855,111.41l-24.8-15.694L88.106,78.666,61.692,61.953,38.208,47.093,20.336,35.785l-9.656-6.11a18.478,18.478,0,0,1-3.73-2.9A14.025,14.025,0,0,1,24.761,5.4c1.751,1.084,3.356-1.675,1.611-2.756A17.212,17.212,0,0,0,1.791,24.856c2.145,4.419,5.958,6.74,9.879,9.221l13.4,8.479L45.829,55.69l25.51,16.142L98.725,89.161l26.646,16.86,23.279,14.73,17.1,10.817,8.179,5.175A17.215,17.215,0,1,0,192.571,107.8c-.58-.374-1.167-.738-1.75-1.107l-11.2-7.084L160.414,87.454,135.8,71.877,108.544,54.634,81.473,37.5,57.19,22.14,38.34,10.212l-10.587-6.7-1.381-.874C24.631,1.538,23.027,4.3,24.761,5.4Z" transform="translate(103.801 306.233)"/>
    <rect id="Rectangle" width="271.367" height="21.475" rx="10.738" transform="matrix(0.535, -0.845, 0.845, 0.535, 276.214, 347.143)" fill="#fff"/>
    <path id="Path-74" data-name="Path" d="M150.887,4.576a9.271,9.271,0,0,1,2.579,12.918q-.933,1.482-1.873,2.959L142.6,34.668,128.067,57.635,109.71,86.646,89.351,118.822,68.835,151.245,49.876,181.21,34.163,206.042l-10.5,16.6-2.792,4.413a14.744,14.744,0,0,1-2.4,3.176A9.149,9.149,0,0,1,3.814,220.106a18.322,18.322,0,0,1,1.731-3.032l7.384-11.67L26.28,184.3l17.6-27.821,20.039-31.669,20.627-32.6,19.5-30.818L120.739,35.02l11.9-18.811c1.818-2.873,3.627-5.751,5.453-8.619a9.273,9.273,0,0,1,12.793-3.014c1.756,1.075,3.362-1.684,1.611-2.756a12.5,12.5,0,0,0-17.091,4.052c-.561.878-1.114,1.761-1.671,2.641l-8.86,14L110.314,45.529,91.737,74.888,71.143,107.436l-20.81,32.888L31.105,170.711,15.428,195.488,5.092,211.824C2.851,215.365.069,218.88,0,223.265a12.334,12.334,0,0,0,19.075,10.5,15.362,15.362,0,0,0,4.4-4.877l7.16-11.315,13.416-21.2L61.75,168.41,82.07,136.3,103,103.221l19.741-31.2,16.746-26.465,11.8-18.647c1.685-2.663,3.394-5.311,5.055-7.989a12.482,12.482,0,0,0-3.84-17.1C150.757.718,149.154,3.479,150.887,4.576Z" transform="translate(278.694 120.369)"/>
    <rect id="Rectangle-2" data-name="Rectangle" width="271.367" height="21.475" rx="10.738" transform="matrix(0.535, -0.845, 0.845, 0.535, 228.783, 317.132)" fill="#fff"/>
    <path id="Path-75" data-name="Path" d="M150.887,4.576a9.271,9.271,0,0,1,2.579,12.918q-.933,1.482-1.873,2.959L142.6,34.668,128.067,57.635,109.71,86.646,89.351,118.822,68.835,151.246,49.876,181.21,34.163,206.043l-10.5,16.6-2.792,4.413a14.748,14.748,0,0,1-2.4,3.176A9.149,9.149,0,0,1,3.813,220.107a18.323,18.323,0,0,1,1.731-3.032l7.384-11.67L26.28,184.3l17.6-27.822,20.039-31.669,20.627-32.6L104.05,61.4,120.739,35.02l11.9-18.811c1.818-2.873,3.627-5.751,5.454-8.619a9.273,9.273,0,0,1,12.793-3.015c1.756,1.076,3.362-1.684,1.611-2.756a12.5,12.5,0,0,0-17.091,4.051c-.561.878-1.114,1.761-1.671,2.641l-8.86,14L110.314,45.529,91.737,74.889,71.142,107.436l-20.81,32.889L31.105,170.712,15.428,195.488,5.092,211.824C2.851,215.366.069,218.88,0,223.265a12.334,12.334,0,0,0,19.075,10.5,15.359,15.359,0,0,0,4.4-4.877l7.159-11.315,13.416-21.2,17.694-27.963L82.07,136.3,103,103.222l19.741-31.2,16.746-26.466,11.8-18.647c1.685-2.663,3.394-5.311,5.055-7.989a12.482,12.482,0,0,0-3.84-17.1C150.757.719,149.154,3.48,150.887,4.576Z" transform="translate(231.263 90.357)"/>
    <rect id="Rectangle-3" data-name="Rectangle" width="271.367" height="21.475" rx="10.738" transform="matrix(0.535, -0.845, 0.845, 0.535, 181.352, 287.12)" fill="#fff"/>
    <path id="Path-76" data-name="Path" d="M150.887,4.576a9.271,9.271,0,0,1,2.579,12.918q-.933,1.482-1.873,2.959L142.6,34.668,128.067,57.635,109.71,86.646,89.351,118.822,68.835,151.246,49.876,181.21,34.163,206.042l-10.5,16.6-2.792,4.413a14.749,14.749,0,0,1-2.4,3.176A9.149,9.149,0,0,1,3.813,220.106a18.323,18.323,0,0,1,1.731-3.032l7.384-11.67L26.28,184.3l17.6-27.821,20.039-31.669,20.627-32.6,19.5-30.818L120.739,35.02l11.9-18.811c1.818-2.873,3.627-5.751,5.454-8.619a9.273,9.273,0,0,1,12.793-3.014c1.756,1.075,3.362-1.684,1.611-2.756a12.5,12.5,0,0,0-17.091,4.052c-.561.878-1.114,1.761-1.671,2.641l-8.86,14L110.314,45.529,91.737,74.889,71.143,107.436l-20.81,32.889L31.105,170.711,15.428,195.488,5.092,211.824C2.851,215.366.069,218.88,0,223.265a12.334,12.334,0,0,0,19.076,10.5,15.362,15.362,0,0,0,4.4-4.877l7.16-11.316,13.416-21.2L61.75,168.41,82.07,136.3,103,103.221l19.741-31.2,16.746-26.465,11.8-18.647c1.685-2.662,3.394-5.311,5.055-7.989a12.482,12.482,0,0,0-3.84-17.1C150.757.719,149.154,3.479,150.887,4.576Z" transform="translate(183.833 60.346)"/>
    <path id="Path-77" data-name="Path" d="M60.066,0,10.017,59.842,37.945,72.213C22.784,86.363,14.582,94.136,5.193,101.767s-5.225,15.588,5.927,10.284c11.6-6.946,30.94-21.729,41.76-30.183a30.4,30.4,0,0,0,10.6-15.911h0a30.414,30.414,0,0,1,8.8-14.391l15.608-3.5" transform="translate(322.371 270.978)" fill="#fc7272"/>
    <path id="Path-78" data-name="Path" d="M60.527.534,55.546,6.489l-11.96,14.3L29.12,38.085,16.669,52.972c-2.034,2.432-4.1,4.839-6.1,7.3l-.088.106a1.615,1.615,0,0,0,.323,2.506L35.235,73.705l3.494,1.548-.323-2.506C28.847,81.67,19.4,90.754,9.4,99.193c-2.249,1.9-4.752,3.639-6.624,5.928-1.6,1.961-3.041,4.447-2.741,7.079a5.33,5.33,0,0,0,4.151,4.583c2.981.744,6.28-.236,8.966-1.525a60.193,60.193,0,0,0,7.185-4.533c2.7-1.813,5.37-3.677,8.018-5.568,5.59-3.991,11.1-8.1,16.561-12.26q3.731-2.841,7.435-5.715A52.909,52.909,0,0,0,59.417,81.1a32,32,0,0,0,5.713-8.9c1.37-3.209,2.032-6.635,3.648-9.749A29.343,29.343,0,0,1,71.6,58.014c.545-.7,1.131-1.377,1.74-2.025q.428-.456.873-.894c-.036.035.5-.506.517-.5s-.487.113-.416.161c.123.084.913-.2,1.053-.236L77.714,54l11.377-2.551.805-.181c2-.449,1.156-3.527-.848-3.078l-8.768,1.966-5.391,1.209c-.434.1-.885.17-1.312.294-1.045.3-1.895,1.427-2.616,2.2a31.741,31.741,0,0,0-5.782,8.75c-1.351,3.07-1.985,6.385-3.448,9.408a29.173,29.173,0,0,1-5.9,8.2,76.518,76.518,0,0,1-6.748,5.486C39.01,93.5,28.834,101.23,18.233,108.3a46.226,46.226,0,0,1-7.04,4.357c-1.989.851-5.072,1.852-7.03.708a1.969,1.969,0,0,1-.957-1.382,4.65,4.65,0,0,1,.478-2.46c1.232-2.7,3.691-4.513,5.913-6.351,9.2-7.612,17.876-15.852,26.6-24L40.662,75a1.606,1.606,0,0,0-.323-2.506L15.9,61.674l-3.494-1.548.323,2.506,4.981-5.955,11.96-14.3,14.466-17.3L56.592,10.194c2.034-2.432,4.1-4.839,6.1-7.3l.089-.106c1.309-1.565-.937-3.835-2.257-2.257Z" transform="translate(320.782 269.316)"/>
    <path id="Path-79" data-name="Path" d="M57.523,3.981S28.2,29.366,11.027,38.723C-.329,43.572-4.17,35.454,5.52,28.208S23.72,13.527,39.44,0" transform="translate(313.777 336.833)" fill="#fc7272"/>
    <path id="Path-80" data-name="Path" d="M58,4.389c-9.742,8.43-19.825,16.538-30.254,24.1C24.238,31.036,20.673,33.516,17,35.827c-3.33,2.1-7.293,4.884-11.452,4.245-1.376-.212-2.2-.83-2.349-2,.014.112.008-.513.025-.66a6.8,6.8,0,0,1,.248-.968,8.412,8.412,0,0,1,1.364-2.36,28.35,28.35,0,0,1,5.349-4.669q2.518-1.926,4.994-3.9c9.209-7.361,18.064-15.162,27-22.85,1.56-1.342-.707-3.591-2.257-2.257C31.452,7.7,23.05,15.076,14.361,22.1Q11.895,24.1,9.387,26.04a54.955,54.955,0,0,0-5.781,4.647c-2.589,2.63-5.324,7.407-2.234,10.724,3.113,3.342,9.227,1.812,12.659-.1,3.755-2.092,7.353-4.466,10.885-6.913,7.8-5.405,15.3-11.244,22.677-17.209,4.271-3.454,8.514-6.95,12.667-10.544C61.817,5.3,59.552,3.05,58,4.389Z" transform="translate(312.168 335.296)"/>
    <path id="Path-81" data-name="Path" d="M58.863,4.754s-30.391,24.1-47.946,32.712C-.637,41.823-4.125,33.547,5.867,26.724S24.68,12.839,40.967,0" transform="translate(304.02 329.501)" fill="#fc7272"/>
    <path id="Path-82" data-name="Path" d="M59.337,5.207C49.479,13.023,38.721,20.93,27.943,28.05c-3.65,2.412-7.351,4.754-11.156,6.916-3.334,1.895-7.481,4.529-11.5,3.548a3.5,3.5,0,0,1-1.438-.662,1.858,1.858,0,0,1-.638-1.18c-.153-1.466.844-3.069,1.887-4.236a30.172,30.172,0,0,1,5.5-4.357q2.485-1.737,4.93-3.529C25.114,17.534,34.369,10.064,43.7,2.709a1.607,1.607,0,0,0,0-2.257,1.633,1.633,0,0,0-2.257,0C32.67,7.367,23.963,14.381,14.976,21.015q-2.608,1.925-5.257,3.794a52.126,52.126,0,0,0-5.93,4.4C1.116,31.728-1.645,36.278,1.2,39.685c2.874,3.44,8.947,2.278,12.424.591a117.982,117.982,0,0,0,11.236-6.44c8-5.032,15.708-10.515,23.3-16.133q4.383-3.243,8.707-6.567c1.5-1.156,3.1-2.26,4.524-3.515.064-.056.134-.106.2-.158a1.607,1.607,0,0,0,0-2.257,1.633,1.633,0,0,0-2.257,0Z" transform="translate(302.418 327.92)"/>
    <path id="Path-83" data-name="Path" d="M107.294,0,63.832,7.188,31.918,11.813a8.769,8.769,0,0,0-6.755,5.117h0A8.769,8.769,0,0,0,31.4,29.078l3.672.761a15.146,15.146,0,0,1,11.3,10.045h0a15.15,15.15,0,0,1-5.82,17.288C27.665,65.992,14.511,75.458,6.555,79.935c-10.545,5.934-7.784,14.48,4.1,11.138,18.233-7.062,50.592-28.448,50.592-28.448" transform="translate(290.413 263.79)" fill="#fc7272"/>
    <path id="Path-84" data-name="Path" d="M108.466.025,93.083,2.569l-23.6,3.9c-3.476.575-6.952,1.1-10.44,1.6L35.765,11.45c-3.2.464-6.224.985-8.574,3.538a10.486,10.486,0,0,0,1.79,15.665c1.872,1.293,4.071,1.628,6.243,2.078a15.459,15.459,0,0,1,6.825,2.906,13.68,13.68,0,0,1,3.8,16.375c-1.587,3.288-4.226,5.14-7.151,7.156q-5.215,3.593-10.414,7.211c-5.937,4.11-11.867,8.263-18.032,12.029C7.7,79.965,4.985,81.3,2.872,83.456,1.309,85.052-.085,87.209,0,89.532.221,95.187,7.217,95.4,11.3,94.52a36.3,36.3,0,0,0,7.284-2.867c2.461-1.136,4.889-2.345,7.294-3.595,5.151-2.676,10.208-5.534,15.212-8.475q10.878-6.394,21.456-13.29.556-.362,1.11-.727c1.706-1.127.109-3.893-1.611-2.756C57.063,66.1,52,69.263,46.909,72.371A308.3,308.3,0,0,1,18.025,88.4a42.682,42.682,0,0,1-6.549,2.79c-2.135.591-5.054,1.083-7.053.011a2.15,2.15,0,0,1-.771-.581c-.16-.174-.017.01-.183-.248a2.267,2.267,0,0,1-.15-.275c-.118-.254.124.336-.038-.127a2.79,2.79,0,0,1,.2-1.935c.949-2.3,3.372-3.957,5.474-5.162C14.565,79.663,19.91,76,25.237,72.348q4.921-3.376,9.817-6.789,2.625-1.82,5.254-3.634a44.131,44.131,0,0,0,4.512-3.279,16.738,16.738,0,0,0-7.867-28.81,23.876,23.876,0,0,1-5.251-1.29,7.175,7.175,0,0,1-.371-12.785,9.682,9.682,0,0,1,3.394-.959l21.157-3.066C59.786,11.17,63.7,10.647,67.59,10L88.346,6.571,108.2,3.286l1.11-.183c2.022-.334,1.164-3.411-.848-3.078Z" transform="translate(288.817 262.226)"/>
    <path id="Path-85" data-name="Path" d="M12.58.037A16.3,16.3,0,0,0,.827,11.047a21.745,21.745,0,0,0-.589,9.147,1.648,1.648,0,0,0,1.6,1.6,1.6,1.6,0,0,0,1.6-1.6C2.871,15.843,3.353,11.24,5.98,7.866A13.389,13.389,0,0,1,9.07,5.037a16.058,16.058,0,0,1,1.671-.955c.25-.124.5-.238.758-.351-.449.2.227-.088.38-.145a10.44,10.44,0,0,1,1.549-.471C15.44,2.708,14.589-.37,12.58.037Z" transform="translate(699.235 63.542)"/>
    <path id="Path-86" data-name="Path" d="M20.432,7.534,2.457,32.577A13.094,13.094,0,0,0,.974,45.168h0a35.55,35.55,0,0,0,11.862,15.2L24.053,68.6l4.086.589A8.752,8.752,0,0,0,37.5,63.8l.57-1.415h0A8.752,8.752,0,0,0,47.7,56.846l1.088-2.878,2.594-.557a8.752,8.752,0,0,0,6.854-7.524l.387-3.256a7.326,7.326,0,0,0,9.033-2.514h0A7.346,7.346,0,0,0,64.843,29.33c-9.736-4.761-18.65-8.748-25.1-14.826L45.57,3.337h0a18.069,18.069,0,0,0-25.138,4.2Z" transform="translate(239.636 55.025)" fill="#fc7272"/>
    <path id="Path-87" data-name="Path" d="M20.634,8.315,3.074,32.78A15.145,15.145,0,0,0,.033,42.922c.473,5.5,3.972,10.822,7.514,14.879a47.152,47.152,0,0,0,7.851,6.84l7.777,5.711a6.936,6.936,0,0,0,2.166,1.395,39.894,39.894,0,0,0,4.379.627,10.4,10.4,0,0,0,7.98-2.406,13.215,13.215,0,0,0,3.5-5.572l-1.963,1.115a10.459,10.459,0,0,0,9.48-3.167c1.648-1.818,2.35-4.117,3.2-6.364l-1.115,1.115c1.11-.238,2.256-.418,3.342-.753a10.443,10.443,0,0,0,5.224-3.653c1.914-2.506,2.084-5.467,2.441-8.469L59.4,45.6A8.936,8.936,0,0,0,69.445,31.115a17.59,17.59,0,0,0-4.817-2.841c-3.869-1.877-7.751-3.739-11.509-5.835a53.869,53.869,0,0,1-10.67-7.477L42.7,16.9,48.528,5.729a1.645,1.645,0,0,0-.573-2.183,19.667,19.667,0,0,0-27.322,4.77c-1.213,1.66,1.555,3.254,2.756,1.611A16.655,16.655,0,0,1,46.344,6.3l-.573-2.183L39.944,15.286a1.635,1.635,0,0,0,.249,1.934c5.081,4.743,11.239,8.09,17.419,11.168,1.673.833,3.355,1.649,5.037,2.464a18.836,18.836,0,0,1,4.331,2.327,5.754,5.754,0,0,1-5.97,9.662,1.626,1.626,0,0,0-2.4,1.378l-.231,1.945a14.687,14.687,0,0,1-.293,1.949,7.184,7.184,0,0,1-4.65,5.1c-1.509.492-3.886.29-4.607,1.923a27.973,27.973,0,0,1-1.777,4.173,7.177,7.177,0,0,1-6.972,3.12,1.662,1.662,0,0,0-1.963,1.115,9.1,9.1,0,0,1-2.675,4.164,7.71,7.71,0,0,1-5.358,1.52c-.59-.068-1.177-.17-1.765-.254a7.287,7.287,0,0,0-2.131-.307c-.291.076.251.173.218.118-.044-.072-.185-.13-.25-.184-.337-.277-.708-.52-1.059-.778l-7.3-5.362a52.014,52.014,0,0,1-6.671-5.487,33.752,33.752,0,0,1-4.809-6.259,21.541,21.541,0,0,1-2.979-6.983,12.136,12.136,0,0,1,2.495-9.344l9.086-12.659L23.389,9.926C24.589,8.254,21.822,6.659,20.634,8.315Z" transform="translate(238.056 53.439)"/>
    <path id="Path-88" data-name="Path" d="M6.034,7.616c-.17-.1-.333-.21-.493-.322q-.12-.084-.237-.172c-.317-.236.3.245.012.009-.212-.174-.421-.351-.621-.54a8.851,8.851,0,0,1-.616-.641c-.055-.063-.107-.128-.161-.192-.187-.221.127.179.072.095-.094-.143-.2-.277-.292-.422s-.167-.274-.241-.417q-.052-.1-.1-.2c-.016-.034-.03-.069-.046-.1-.08-.159.118.347.075.174-.039-.157-.11-.307-.151-.465q-.029-.11-.052-.221c-.01-.05-.018-.1-.028-.15-.043-.215.027.171.026.2.01-.193-.026-.391-.016-.587,0-.04.006-.08.008-.12.007-.219-.019.146-.029.181.026-.093.033-.193.054-.288.046-.2.173-.427.2-.631,0,0-.151.309-.068.167.04-.069.069-.146.106-.216.063-.119.131-.235.2-.35A1.6,1.6,0,1,0,.88.791a5.8,5.8,0,0,0-.2,5.8A9.866,9.866,0,0,0,3.691,9.877a7.816,7.816,0,0,0,.731.494A1.6,1.6,0,0,0,6.033,7.615Z" transform="translate(275.223 61.507)"/>
    <path id="Path-89" data-name="Path" d="M27.35,19.914,7.957,7.979A24.184,24.184,0,0,1,0,0" transform="translate(270.605 77.722)" fill="#fc7272"/>
    <path id="Path-90" data-name="Path" d="M29.783,20.092,10.669,8.329A23.37,23.37,0,0,1,3.005.751C1.923-.99-.839.611.249,2.362A26.593,26.593,0,0,0,8.8,10.927c1.058.659,2.124,1.307,3.186,1.961l12.685,7.806,3.5,2.154c1.754,1.079,3.359-1.68,1.611-2.756Z" transform="translate(268.977 76.166)"/>
    <path id="Path-91" data-name="Path" d="M27.35,19.914,7.957,7.979A24.185,24.185,0,0,1,0,0" transform="translate(262.046 88.212)" fill="#fc7272"/>
    <path id="Path-92" data-name="Path" d="M29.783,20.092,10.669,8.329A23.371,23.371,0,0,1,3.005.751C1.923-.99-.839.611.249,2.362A26.592,26.592,0,0,0,8.8,10.927c1.058.66,2.124,1.307,3.186,1.961l12.685,7.806,3.5,2.154c1.754,1.079,3.359-1.68,1.611-2.756Z" transform="translate(260.419 86.655)"/>
    <path id="Path-93" data-name="Path" d="M25.986,19.954,7.957,7.979A24.184,24.184,0,0,1,0,0" transform="translate(251.752 97.73)" fill="#fc7272"/>
    <path id="Path-94" data-name="Path" d="M28.419,20.132c-5.945-3.948-11.863-7.939-17.835-11.846A24.3,24.3,0,0,1,3.005.751C1.923-.99-.839.611.249,2.362a27.4,27.4,0,0,0,8.535,8.556c.932.6,1.851,1.23,2.777,1.844L23.53,20.711l3.278,2.177c1.716,1.14,3.316-1.623,1.611-2.756Z" transform="translate(250.125 96.173)"/>
    <path id="Path-95" data-name="Path" d="M0,1.539.864,25.7,1.29,37.627A30.658,30.658,0,0,0,6.3,53.8l7.5,11.314c1.13,1.7,3.895.108,2.756-1.611L9.751,53.234A32.03,32.03,0,0,1,5.92,46.018,27.158,27.158,0,0,1,4.5,38.088l-.959-26.85-.346-9.7C3.12-.508-.072-.518,0,1.54Z" transform="translate(562.232 281.673)"/>
    <path id="Path-96" data-name="Path" d="M23.971,2.42A15.618,15.618,0,0,0,2.422,7.267h0A15.618,15.618,0,0,0,7.269,28.816l59.9,37.9c12.992-5.337,26.06-10.4,36.281-14.007Z" transform="translate(105.396 307.83)"/>
    <path id="Path-97" data-name="Path" d="M26.371,2.639A17.212,17.212,0,0,0,1.791,24.856c1.679,3.458,4.484,5.808,7.649,7.81l7.6,4.807L42.664,53.688,64.8,67.694l2.493,1.577c.186.117.368.248.56.354,1.022.567,1.978-.032,2.964-.435C80.3,65.315,89.83,61.557,99.443,58.023q3.009-1.106,6.031-2.175a1.618,1.618,0,0,0,.381-2.917l-7.9-5-18.972-12L56.028,21.4,36.174,8.842C32.968,6.813,29.817,4.59,26.51,2.727c-.047-.027-.093-.059-.139-.088C24.631,1.538,23.027,4.3,24.761,5.4l7.9,5,18.972,12L74.588,36.924,94.442,49.486l6.569,4.156a33.2,33.2,0,0,0,3.1,1.958,1.49,1.49,0,0,1,.139.088l.381-2.917C92.4,57.09,80.335,61.857,68.344,66.779l1.23.161-9.891-6.258L38.128,47.043,17.438,33.952l-6.2-3.922A19.3,19.3,0,0,1,6.266,26,14.034,14.034,0,0,1,20.573,3.6,14.618,14.618,0,0,1,24.76,5.4C26.512,6.48,28.116,3.72,26.371,2.639Z" transform="translate(103.801 306.233)"/>
    <path id="Path-98" data-name="Path" d="M53.256,33.7,0,0C8.443,19.281,17.2,42.822,16.848,47.625L36.554,60.094A15.618,15.618,0,0,0,58.1,55.247h0A15.618,15.618,0,0,0,53.256,33.7Z" transform="translate(242.324 381.724)"/>
    <path id="Path-99" data-name="Path" d="M55.584,33.96l-18-11.387L8.906,4.424,2.328.262C.845-.677-.44,1.108.144,2.445Q5.093,13.759,9.486,25.306c2.326,6.13,4.629,12.32,6.335,18.657.294,1.093.57,2.194.776,3.308a5.877,5.877,0,0,1,.178,1.993,1.6,1.6,0,0,0,.79,1.378L35.759,62.155a31.282,31.282,0,0,0,3.127,1.851,17.212,17.212,0,0,0,16.7-30.047c-1.73-1.118-3.332,1.643-1.611,2.756a14.023,14.023,0,0,1-14.56,23.962c-.767-.445-1.509-.94-2.258-1.415L27.088,52.893l-7.913-5.007.79,1.378a17.444,17.444,0,0,0-.8-5.133c-.683-2.715-1.536-5.389-2.422-8.044C14.263,28.662,11.434,21.349,8.49,14.1Q5.784,7.429,2.9.835L.717,3.018l18,11.387L47.4,32.554l6.578,4.162C55.714,37.817,57.317,35.056,55.584,33.96Z" transform="translate(240.802 380.084)"/>
    <path id="Path-100" data-name="Path" d="M86.916,14.9,63.375,0C56.186,2.536,47,6.1,37.859,9.851,19.106,17.555.579,26.065.052,28.174-.994,32.359,14.025,77.992,21.787,80.649s75.3-28.282,76.894-31.85a1.271,1.271,0,0,0,.084-.41C99.014,45.011,92.854,28.456,86.916,14.9Z" transform="translate(147.651 361.608)" fill="#ffc41f"/>
    <path id="Path-101" data-name="Path" d="M89.322,15.07,70.6,3.225,66.625.709c-.263-.166-.522-.357-.8-.5-1.224-.655-3.038.433-4.233.867-8.673,3.153-17.251,6.573-25.77,10.119-8.106,3.374-16.187,6.842-24.095,10.661-2.618,1.264-5.238,2.554-7.744,4.032C2.7,26.64.844,27.563.226,29.016A6.045,6.045,0,0,0,.2,32.191c.221,1.463.56,2.907.92,4.341C2.213,40.9,3.569,45.2,5.01,49.467c1.7,5.04,3.557,10.033,5.615,14.939a100.3,100.3,0,0,0,6.151,12.705c1.412,2.366,3.35,5.754,6.188,6.628,2.059.634,4.546-.04,6.565-.518,8.118-1.921,15.987-5.163,23.7-8.3q14.265-5.8,28.186-12.405c3.749-1.777,7.48-3.6,11.159-5.514A70.877,70.877,0,0,0,99.622,53a6.579,6.579,0,0,0,1.933-1.678c.864-1.335.246-3.379-.1-4.8-1.61-6.664-4.265-13.145-6.8-19.5Q92.368,21.3,89.894,15.642a1.608,1.608,0,0,0-2.183-.573,1.634,1.634,0,0,0-.573,2.183C89.907,23.585,92.51,30,94.878,36.489c.945,2.591,1.856,5.2,2.657,7.837.306,1.009.6,2.023.845,3.047.091.378.178.757.251,1.139q.051.265.095.532c.064.391.006-.126.027.233a2.84,2.84,0,0,0,.015.663s.189-.524.091-.317.2-.23.156-.2a5.049,5.049,0,0,0-.439.415c-.291.283.3-.2-.061.047-.138.094-.271.195-.409.289-.331.228-.671.444-1.012.657-2.056,1.278-4.2,2.413-6.35,3.529-6.617,3.441-13.381,6.6-20.178,9.669-7.741,3.491-15.552,6.836-23.466,9.918a135.059,135.059,0,0,1-18.794,6.282c-.534.121-1.07.234-1.609.329-.224.04-.448.074-.672.109-.367.058.27-.029-.013,0-.123.013-.245.029-.368.041a9.751,9.751,0,0,1-1.1.054c-.159,0-.319-.024-.476-.024-.114,0,.377.133-.04-.016-.092-.033-.5-.179-.248-.068s-.252-.157-.365-.222c-.094-.054-.179-.123-.266-.186.195.138.169.144.013,0-.2-.182-.4-.36-.6-.553a14.731,14.731,0,0,1-2.2-2.847c-4.29-6.594-7.191-14.191-9.912-21.532A163.365,163.365,0,0,1,3.7,33.576c-.124-.567-.24-1.136-.338-1.709-.038-.224-.073-.448-.106-.672.061.409-.012-.1-.031-.332-.025-.308,0-.61-.013-.916,0,.041-.091.476-.029.242.07-.265-.127.26-.078.171.14-.252-.245.249-.06.071.075-.073.142-.154.222-.223s.187-.164.282-.244c.2-.164-.173.119.13-.1s.591-.408.894-.6c.792-.506,1.61-.972,2.433-1.426,2.315-1.276,4.689-2.445,7.073-3.586C27.756,17.707,41.85,11.94,56.019,6.545Q60.69,4.766,65.4,3.091L64.17,2.93,84.74,15.946l2.971,1.88C89.451,18.927,91.055,16.167,89.322,15.07Z" transform="translate(146.051 360.055)"/>
    <path id="Path-102" data-name="Path" d="M.807,25.1c4.727,2.407,9.5,4.733,14.282,7.025,8.877,4.25,17.827,8.406,27,11.989A74.913,74.913,0,0,0,52.7,47.629c2.175.492,4.824,1.035,6.537-.776,2.254-2.385,3.56-5.86,4.837-8.819,2-4.624,3.771-9.341,5.474-14.079,2.564-7.131,5.169-14.327,7.264-21.615.036-.127.079-.252.118-.378C77.539,0,74.459-.845,73.849,1.113,71.986,7.095,70,13.041,67.936,18.956c-1.663,4.767-3.385,9.518-5.268,14.2a63.923,63.923,0,0,1-4.793,10.2c-.161.257-.335.505-.5.758-.187.281-.1.139-.051.078-.086.1-.17.211-.26.312-.138.154-.287.29-.437.431.14-.132.3-.173.087-.078-.313.138.15-.047.123-.042-.111.021-.61.139-.291.088.3-.047-.3.011-.45.011-.233,0-.465-.018-.7-.035-.129-.01-.257-.027-.385-.041.4.045.035.005-.143-.025a53.44,53.44,0,0,1-9.56-2.873c-8.886-3.308-17.521-7.312-26.084-11.371-5.552-2.632-11.034-5.4-16.553-8.1-.085-.041-.168-.085-.252-.128C.591,21.411-1.026,24.164.806,25.1Z" transform="translate(145.862 366.29)"/>
    <path id="Path-103" data-name="Path" d="M2.959,36.582,9.128,25.055l9.845-18.4L21.25,2.406C22.219.6,19.465-1.019,18.494.795L12.325,12.322,2.48,30.718.2,34.971c-.969,1.811,1.785,3.424,2.756,1.611Z" transform="translate(167.882 407.018)"/>
    <path id="Path-104" data-name="Path" d="M36.386,13.966,6.21,1.754l-4.2-1.7A1.608,1.608,0,0,0,.05,1.17,1.633,1.633,0,0,0,1.165,3.133L31.34,15.345l4.2,1.7A1.608,1.608,0,0,0,37.5,15.929a1.633,1.633,0,0,0-1.115-1.963Z" transform="translate(210.48 394.965)"/>
    <circle id="Oval-6" data-name="Oval" cx="3.338" cy="3.338" r="3.338" transform="translate(193.823 396.584)" fill="#fff"/>
    <path id="Path-105" data-name="Path" d="M6.668,4.92c0,.093-.008.186-.01.278-.007.262.011-.124.024-.152a3.351,3.351,0,0,0-.1.437,1.7,1.7,0,0,0-.088.251c0-.029.177-.359.054-.14-.086.154-.171.3-.267.451-.165.257.215-.216.063-.082-.053.047-.1.11-.146.161-.1.1-.224.188-.322.292.246-.263.221-.16.112-.1-.075.045-.146.095-.223.138-.051.029-.1.053-.155.082-.257.148.376-.115.016-.005-.143.044-.283.091-.43.122-.17.036-.245-.034.111-.006a1.991,1.991,0,0,0-.23.018c-.156.007-.309,0-.464-.011-.22-.01.424.082.109.013-.088-.019-.175-.037-.262-.061s-.169-.054-.254-.081c-.147-.047-.086-.116.136.06-.107-.085-.266-.134-.385-.208-.061-.038-.118-.087-.18-.122-.177-.1.3.273.085.06-.126-.122-.247-.242-.365-.372-.17-.187.084.093.09.117a1.18,1.18,0,0,0-.144-.219q-.045-.075-.086-.152c-.078-.147-.072-.323.012.063-.031-.142-.1-.28-.138-.422-.015-.058-.027-.117-.04-.176-.07-.305.031.412,0,.017a3.4,3.4,0,0,1,0-.418c.008-.147.1-.377-.018.06.015-.057.021-.119.034-.177.032-.146.08-.286.124-.428.1-.31-.18.338-.023.057.043-.076.08-.156.125-.231s.08-.122.118-.184c.1-.158.18-.1-.066.08a3.766,3.766,0,0,0,.3-.316c.053-.049.113-.092.164-.143.145-.144-.342.224-.079.067a2.509,2.509,0,0,0,.456-.259c-.018.018-.381.138-.137.059.085-.028.168-.059.253-.083s.52-.091.229-.064.012,0,.062,0c.078,0,.155-.006.233-.005s.154.008.232.01c.322.009-.352-.078-.063-.009.175.042.345.088.516.143.3.093-.268-.154-.1-.041.084.055.184.092.271.144q.075.044.148.093c.354.236-.17-.174.023.015.1.1.212.2.308.306l.057.066q.156.192-.09-.117a1.507,1.507,0,0,0,.144.219c.045.075.083.154.127.23.142.25-.117-.353-.02-.058.056.172.1.34.146.515.035.141-.042.182-.015-.155-.009.117.019.251.021.37a1.6,1.6,0,0,0,3.192,0A5.022,5.022,0,0,0,6.537.272,4.929,4.929,0,1,0,9.86,4.92a1.6,1.6,0,1,0-3.192,0Z" transform="translate(192.235 394.99)" fill="#fff"/>
    <path id="Path-106" data-name="Path" d="M384.034,191.714c0-10.145-2.188-19.909-7.523-28.633a51.736,51.736,0,0,0-23.45-20.417,54.823,54.823,0,0,0-16.9-4.143l1.539,2.02c1.278-5.891,2.592-11.776,3.833-17.675a39.283,39.283,0,0,0-10.368-35.676c-3.753-3.783-8.268-6.345-12.828-8.995l.733.954a38.943,38.943,0,0,0-49.6-25.507q-4.637,1.5-9.268,3.017l1.963,1.115L255.625,30.9a41.51,41.51,0,0,0-8.2-16.946A38.99,38.99,0,0,0,226.1.862C220.851-.318,215.685-.071,210.394.34L193.143,1.678l-6.922.537c-1.126.087-2.355-.032-3.076.983a27.318,27.318,0,0,0-1.576,2.939l-3.177,5.925L163.5,39.838l1.8-.733-13-2.228c-4.815-.825-9.7-1.919-14.6-2.052A43.969,43.969,0,0,0,97.155,59.8c-2.255,4.817-3.825,10-5.631,15l1.539-1.172c-4.555.584-9.183,1-13.685,1.918a57.75,57.75,0,0,0-20.966,8.9,58.715,58.715,0,0,0-24.3,36.617c-1.376,6.9-1.136,13.691-.63,20.651l.79-1.378a103.671,103.671,0,0,0-10.749,7.281,57,57,0,0,0-13.087,15.3,57.712,57.712,0,0,0-6.894,18.441c-.552,2.913-1.08,5.831-1.62,8.746l-1.9,10.234c-.372,2.008,2.7,2.869,3.078.848l3.411-18.417a55.176,55.176,0,0,1,17.073-31.009,84.258,84.258,0,0,1,12.3-8.666,1.589,1.589,0,0,0,.79-1.378c-.414-5.686-.8-11.316.03-16.994A55.163,55.163,0,0,1,77.644,79.213c5.04-1.284,10.271-1.737,15.419-2.4A1.7,1.7,0,0,0,94.6,75.645c1.33-3.681,2.64-7.37,3.992-11.044a40.442,40.442,0,0,1,37.492-26.6c4.829-.056,9.553.953,14.289,1.765l14.076,2.413a1.651,1.651,0,0,0,1.8-.733L183.47,9.34l2.464-4.594-1.378.79,16.911-1.312c6.068-.471,12.4-1.449,18.5-1.052A35.934,35.934,0,0,1,247.65,19.649c3.776,5.963,5.055,12.749,6.695,19.489l4.739,19.485a1.611,1.611,0,0,0,1.963,1.115c7.1-2.312,14.1-5.1,21.694-4.924a35.7,35.7,0,0,1,32.042,21.837,24.141,24.141,0,0,0,1.368,3.728,4.318,4.318,0,0,0,1.581,1.159c3.993,2.321,7.886,4.6,11.173,7.909a35.962,35.962,0,0,1,9.547,32.571c-1.24,5.9-2.556,11.784-3.833,17.675a1.624,1.624,0,0,0,1.539,2.02c20.07,1.846,37.415,15.542,42.9,35.135a54.509,54.509,0,0,1,1.785,14.866,1.6,1.6,0,0,0,3.192,0Z" transform="translate(0 510.666)"/>
    <path id="Path-107" data-name="Path" d="M78.638,87.187C74.879,88.561,3.975,61.105.383,53.515S19.546,2.331,23.363.111s76.727,29.564,78.255,33.672S82.4,85.813,78.638,87.187Z" transform="translate(97.754 486.927)" fill="#fff"/>
    <path id="Path-108" data-name="Path" d="M79.847,87.248c-.357.121.464.064.094-.008a3.329,3.329,0,0,0-.506-.027c-.352-.008.436.078.077.011-.108-.02-.218-.035-.326-.054-.279-.049-.556-.108-.833-.17-1.522-.339-3.02-.785-4.509-1.243-4.691-1.441-9.317-3.1-13.919-4.8-11.848-4.375-23.581-9.122-35.072-14.365-4.844-2.21-9.67-4.5-14.316-7.1A53.472,53.472,0,0,1,5.73,56.522c-.147-.1-.291-.212-.438-.317-.084-.06-.165-.124-.248-.186.323.244.157.123.087.067-.261-.208-.519-.418-.767-.641-.193-.174-.374-.358-.556-.543-.08-.081-.148-.173-.226-.257-.015-.016.175.331-.006-.018a2.4,2.4,0,0,0-.138-.231c-.216-.319.051.208,0,0-.034-.134-.077-.269-.116-.4-.025-.086-.034-.176-.053-.263-.07-.316.032.358,0,.048a12.219,12.219,0,0,1,.054-2.413c.006-.059.069-.5.013-.113.013-.092.027-.185.042-.277.039-.239.079-.478.123-.717.106-.567.229-1.131.364-1.693.293-1.219.641-2.425,1.018-3.621A140.5,140.5,0,0,1,11.9,27.64c2.655-5.662,5.5-11.246,8.626-16.665,1.116-1.938,2.263-3.864,3.528-5.709q.331-.483.677-.955c.1-.134.382-.493.12-.163.112-.141.223-.282.34-.418.159-.187.333-.357.5-.539.389-.436-.237.091.136-.114.142-.078-.506.186-.22.1.3-.088-.4,0-.213.024a4.336,4.336,0,0,0,.512,0c.1,0,.19.021.285.027.137.008-.454-.085-.041,0,.272.054.546.1.818.155,1.479.315,2.931.762,4.371,1.222,4.52,1.444,8.959,3.145,13.374,4.878,11.472,4.5,22.8,9.4,34,14.546,4.842,2.228,9.666,4.5,14.409,6.936a59.707,59.707,0,0,1,8.389,4.825c-.493-.365.035.043.163.153.21.18.37.575.092.044.211.4-.119-.416-.012-.067.088.288.015-.462-.017-.142-.011.114.006.238,0,.353s-.019.231-.024.347c-.02.469.032-.154,0,.053-.059.348-.121.693-.2,1.038-.185.848-.416,1.686-.66,2.518-1.5,5.119-3.481,10.109-5.483,15.049q-3.574,8.82-7.621,17.44A112.923,112.923,0,0,1,81,85.5c-.192.3-.388.6-.593.888-.089.127-.182.252-.273.377s.226-.245-.057.068c-.154.171-.329.338-.475.514-.186.223-.139.042.088-.057-.147.064-.439.2.158-.039a1.647,1.647,0,0,0-1.115,1.963A1.606,1.606,0,0,0,80.7,90.326a6.773,6.773,0,0,0,2.845-2.887A62.274,62.274,0,0,0,86.651,82c2.816-5.38,5.344-10.914,7.774-16.477,2.567-5.875,5.028-11.807,7.23-17.829.839-2.3,1.649-4.607,2.329-6.955a18.089,18.089,0,0,0,.941-4.666c.03-2.465-2.726-3.735-4.562-4.808-3.812-2.23-7.8-4.173-11.773-6.092C77.157,19.648,65.508,14.551,53.769,9.715,48.521,7.552,43.246,5.445,37.911,3.5A68.736,68.736,0,0,0,27.424.227a4.876,4.876,0,0,0-3.211.094,9.454,9.454,0,0,0-2.7,3.029,120.377,120.377,0,0,0-7.865,13.577c-3.191,6.136-6.152,12.4-8.764,18.805C2.846,40.722.745,45.976.136,51.371a7.713,7.713,0,0,0,.6,4.728A10.326,10.326,0,0,0,3.6,58.9a73.916,73.916,0,0,0,11.334,6.5c11.5,5.731,23.427,10.652,35.394,15.313,5.534,2.155,11.1,4.24,16.714,6.169a90.44,90.44,0,0,0,10.785,3.264,5.8,5.8,0,0,0,2.87.177C82.63,89.669,81.8,86.586,79.847,87.248Z" transform="translate(96.12 485.328)"/>
    <path id="Path-109" data-name="Path" d="M.08,1.962C1.983,8.1,4,14.2,6.081,20.278c3.5,10.254,7.084,20.585,11.687,30.409,1.332,2.842,2.772,6.3,5.148,8.462,2.084,1.895,4.917.919,7.315.183a133.1,133.1,0,0,0,13.087-5.045c5.3-2.263,10.551-4.657,15.775-7.1C66.3,43.819,73.6,40.506,80.638,36.78c.122-.065.248-.124.371-.186,1.836-.921.222-3.675-1.611-2.756q-8.78,4.405-17.668,8.594c-9.573,4.539-19.211,9.152-29.185,12.754a49.984,49.984,0,0,1-4.965,1.573c-.306.076-.614.147-.924.207-.138.027-.277.048-.414.074-.49.1.274-.005-.117.016-.209.011-.423.012-.631.029-.538.044.357.062-.131-.024.3.053.146.159-.116-.1-.214-.21.317.3.033.025-.088-.087-.185-.167-.274-.254-.183-.18-.347-.377-.515-.571-.19-.219-.154-.2-.079-.1-.114-.155-.228-.311-.338-.469a35.734,35.734,0,0,1-2.491-4.336c-4.63-9.177-8-19.055-11.372-28.774C7.788,15.507,5.581,8.461,3.261,1.446c-.037-.11-.069-.222-.1-.333C2.551-.842-.531-.008.08,1.962Z" transform="translate(119.167 485.495)"/>
    <path id="Path-110" data-name="Path" d="M1.971,14.126l12.915-3.719,20.474-5.9L40.1,3.148C42.069,2.58,41.232-.5,39.251.07L26.336,3.789,5.862,9.684,1.123,11.049c-1.97.567-1.132,3.648.848,3.078Z" transform="translate(96.213 528.256)"/>
    <path id="Path-111" data-name="Path" d="M17.466,36.306l-4.83-11.844L4.923,5.549,3.134,1.161A1.649,1.649,0,0,0,1.171.047,1.605,1.605,0,0,0,.056,2.01l4.83,11.844L12.6,32.767l1.79,4.388a1.649,1.649,0,0,0,1.963,1.115,1.605,1.605,0,0,0,1.115-1.963Z" transform="translate(160.495 537.509)"/>
    <circle id="Oval-7" data-name="Oval" cx="3.417" cy="3.417" r="3.417" transform="translate(145.565 527.142)"/>
    <path id="Path-112" data-name="Path" d="M6.277,6.321a4.123,4.123,0,0,1-.321.278l.323-.249a3.661,3.661,0,0,1-.771.442l.381-.161a3.672,3.672,0,0,1-.838.225L5.477,6.8a3.676,3.676,0,0,1-.927,0l.425.057a3.676,3.676,0,0,1-.837-.225l.381.161a3.663,3.663,0,0,1-.768-.441l.323.249a3.712,3.712,0,0,1-.647-.648l.249.323a3.654,3.654,0,0,1-.442-.77l.161.381a3.672,3.672,0,0,1-.225-.838l.057.425a3.673,3.673,0,0,1,0-.927l-.057.425a3.681,3.681,0,0,1,.225-.837l-.161.381a3.652,3.652,0,0,1,.441-.768l-.25.323a3.715,3.715,0,0,1,.648-.647L3.75,3.67a3.659,3.659,0,0,1,.77-.442l-.381.161a3.672,3.672,0,0,1,.838-.225l-.425.057a3.68,3.68,0,0,1,.927,0l-.425-.057a3.674,3.674,0,0,1,.837.225l-.381-.161a3.66,3.66,0,0,1,.768.441L5.957,3.42a3.709,3.709,0,0,1,.647.648l-.249-.323a3.655,3.655,0,0,1,.442.77l-.161-.381a3.677,3.677,0,0,1,.225.838L6.8,4.547a3.68,3.68,0,0,1,0,.927L6.86,5.05a3.676,3.676,0,0,1-.225.837L6.8,5.506a3.656,3.656,0,0,1-.441.768L6.6,5.951a3.991,3.991,0,0,1-.327.37A1.6,1.6,0,1,0,8.533,8.578,4.925,4.925,0,0,0,9.917,6.03,4.977,4.977,0,0,0,10,4.547,5.741,5.741,0,0,0,9.512,2.81,4.978,4.978,0,0,0,4.684.012,5.308,5.308,0,0,0,1.705,1.25,4.882,4.882,0,0,0,.167,3.727a4.962,4.962,0,0,0,.1,2.88A5.293,5.293,0,0,0,2.25,9.186a4.825,4.825,0,0,0,3.061.821,5.2,5.2,0,0,0,3.223-1.43A1.6,1.6,0,0,0,6.277,6.321Z" transform="translate(143.967 525.55)"/>
    <path id="Path-113" data-name="Path" d="M99.554,55.1C97.695,58.644,26.741,85.974,18.98,82.768S-1.235,31.991.1,27.781,76.78-1.9,80.673.113,101.414,51.556,99.554,55.1Z" transform="translate(180.796 593.309)" fill="#fff"/>
    <path id="Path-114" data-name="Path" d="M99.786,55.913c-.15.271.288-.434.038-.064A.844.844,0,0,1,99.65,56c-.189.147.4-.259.06-.05-.42.257-.823.537-1.252.781-1.355.771-2.764,1.448-4.174,2.111-4.463,2.1-8.8,3.888-13.342,5.719-11.779,4.745-23.724,9.135-35.821,13-5.072,1.619-10.183,3.169-15.374,4.363-1,.229-2,.443-3,.63q-.636.119-1.275.221c-.2.032-.4.061-.6.091-.086.012-.49.062-.035.005-.111.014-.221.029-.332.041a19.317,19.317,0,0,1-2.032.14c-.26,0-.517-.022-.776-.028-.45-.011.184.047.021.009a2.7,2.7,0,0,0-.354-.071,1.681,1.681,0,0,1-.257-.078c.069.018.309.2.007-.009-.113-.078-.239-.148-.356-.22-.091-.056-.324-.267.034.033-.073-.061-.15-.119-.219-.186-.256-.247-.509-.489-.743-.757-.13-.148-.255-.3-.378-.455.233.292-.207-.282-.287-.4a37.732,37.732,0,0,1-3.327-6.046A140.619,140.619,0,0,1,9.42,57.306C7.581,51.329,5.936,45.28,4.6,39.169c-.476-2.185-.922-4.382-1.225-6.6.059.429-.021-.179-.035-.294-.021-.183-.042-.366-.059-.549-.033-.346-.062-.693-.073-1.04-.008-.243.016-.49.005-.733-.018-.4-.061.191-.02.088.03-.074.033-.164.059-.242-.173.513-.167.39-.08.23.02-.036-.359.3-.115.157a3,3,0,0,0,.38-.343c-.471.429.064-.034.226-.141.232-.153.47-.3.71-.435,1.307-.76,2.682-1.406,4.057-2.033,2.06-.94,3.631-1.595,5.661-2.42q3.645-1.481,7.327-2.868c11.589-4.4,23.332-8.413,35.15-12.146C61.656,8.2,66.757,6.641,71.9,5.253c1.879-.507,3.766-.994,5.667-1.412.715-.157,1.433-.306,2.154-.43.281-.049.563-.092.846-.133-.6.088.235-.024.427-.038s.377-.016.566-.024c.076,0,.157.016.233.008.359-.039-.411-.1-.157-.023.412.117-.434-.217-.06-.028.021.011-.283-.337-.1-.068a1.952,1.952,0,0,0,.24.259c.265.263-.211-.317.01.011.076.112.156.221.231.333.2.293.377.6.552.9.433.752.825,1.528,1.2,2.308a157.282,157.282,0,0,1,5.973,14.658q3.308,9.023,6.14,18.214a112.93,112.93,0,0,1,3.69,14.1c.031.183.059.366.088.549.074.461-.021-.251.025.179.031.287.063.573.075.862.01.232-.019.47-.006.7.016.295.108-.468.012-.124s.125-.237.078-.141c-.9,1.837,1.848,3.456,2.756,1.611.617-1.254.319-2.779.114-4.1a62.309,62.309,0,0,0-1.356-6.12c-1.531-5.876-3.38-11.673-5.319-17.425-2.025-6.007-4.171-11.981-6.567-17.85-.951-2.33-1.931-4.655-3.038-6.916a16.933,16.933,0,0,0-2.446-4.058c-1.65-1.8-4.592-.849-6.651-.415-4.321.911-8.579,2.152-12.811,3.4-12.114,3.58-24.106,7.61-35.986,11.9C23.16,17.869,17.854,19.85,12.616,22a70.613,70.613,0,0,0-10.191,4.72A4.615,4.615,0,0,0,.18,28.952a9.307,9.307,0,0,0,.033,3.8A123.929,123.929,0,0,0,3.557,48.39C5.3,55.017,7.29,61.593,9.649,68.029c1.829,4.989,3.754,10.358,6.915,14.689a8.046,8.046,0,0,0,3.8,3.276,9.693,9.693,0,0,0,3.721.156A76.847,76.847,0,0,0,37.164,83.3C49.471,79.83,61.55,75.478,73.483,70.9c5.6-2.149,11.179-4.375,16.692-6.747a90.443,90.443,0,0,0,10.179-4.832,5.625,5.625,0,0,0,2.189-1.8C103.54,55.727,100.785,54.115,99.786,55.913Z" transform="translate(179.185 591.69)"/>
    <path id="Path-115" data-name="Path" d="M.768,30.762C6.3,34.026,11.9,37.185,17.522,40.289c9.49,5.238,19.083,10.468,29.1,14.646,2.909,1.214,6.294,2.8,9.522,2.791,2.781-.01,4.234-2.715,5.492-4.832a130.4,130.4,0,0,0,6.215-12.353c2.429-5.3,4.728-10.664,6.98-16.043q2.984-7.127,5.845-14.3c1.046-2.619,2.167-5.227,3.111-7.885.046-.13.1-.258.15-.387.741-1.917-2.344-2.747-3.078-.848-2.36,6.109-4.809,12.184-7.3,18.239C69.515,29.108,65.466,39,60.5,48.366a49.95,49.95,0,0,1-2.619,4.5c-.176.262-.359.518-.545.774-.268.369.161-.181-.063.08-.1.116-.194.235-.3.348-.142.156-.3.293-.448.445-.226.238.274-.15.1-.071-.069.03-.4.212-.071.065.284-.128-.621.025.034,0-.227.007-.449.026-.677.017-.123-.005-.245-.021-.368-.028-.449-.025.132.028-.065-.006-.334-.058-.667-.119-1-.2a35.736,35.736,0,0,1-4.759-1.536C40.307,49.15,30.967,44,21.969,39.09,15.483,35.55,9.132,31.778,2.68,28.182c-.1-.057-.2-.118-.3-.177A1.6,1.6,0,0,0,.768,30.761Z" transform="translate(179.073 591.924)"/>
    <path id="Path-116" data-name="Path" d="M3,36.121l7.063-11.434L21.262,6.56l2.592-4.2C24.936.612,22.177-.993,21.1.753L14.035,12.188,2.839,30.315.247,34.51C-.835,36.263,1.924,37.868,3,36.121Z" transform="translate(198.142 641.312)"/>
    <path id="Path-117" data-name="Path" d="M36.665,16.56,25.128,11.037,6.7,2.219,2.43.172C.586-.71-1.035,2.041.819,2.928L12.356,8.451,30.779,17.27l4.275,2.046c1.844.883,3.465-1.868,1.611-2.756Z" transform="translate(244.597 630.542)"/>
    <circle id="Oval-8" data-name="Oval" cx="3.417" cy="3.417" r="3.417" transform="translate(227.362 631.167)"/>
    <path id="Path-118" data-name="Path" d="M6.809,5.2c-.012.158-.11.358.014-.048-.018.057-.023.124-.036.183a4.093,4.093,0,0,1-.132.44c-.109.312.182-.333.016-.049-.03.052-.055.107-.085.159-.044.078-.1.151-.142.228-.149.247.243-.266.034-.039-.1.11-.2.22-.308.32a.957.957,0,0,0-.134.116l.183-.14q-.072.053-.146.1c-.125.083-.257.149-.387.221-.222.123.1-.05.135-.052a1.748,1.748,0,0,0-.3.1c-.073.021-.146.04-.221.056-.049.011-.354.059-.06.018s-.015,0-.066,0c-.079,0-.157.005-.236,0S4.778,6.814,4.7,6.81c-.332-.014.311.064.1.013-.166-.04-.33-.073-.491-.129l-.086-.031q-.235-.093.13.055a.873.873,0,0,0-.161-.081,2.558,2.558,0,0,0-.38-.237c.249.072.228.2.078.056-.054-.051-.111-.1-.163-.151s-.1-.109-.153-.161c-.264-.265.16.26,0,.009-.08-.126-.162-.248-.231-.381a1.03,1.03,0,0,0-.078-.161l.091.216q-.033-.084-.062-.17c-.048-.145-.079-.292-.115-.44s.06-.13.017.15a2.242,2.242,0,0,0-.019-.327,3.646,3.646,0,0,0,.022-.428c.048.342-.04.254.006.055.014-.06.029-.12.046-.179.025-.088.057-.174.086-.261.082-.249-.035.114-.055.13a2.442,2.442,0,0,0,.267-.468c.161-.266-.209.217-.062.073.052-.051.1-.114.147-.167a3.461,3.461,0,0,0,.324-.3c-.168.243-.235.162-.074.063.063-.039.124-.082.188-.12s.1-.059.156-.087.107-.054.161-.078q-.367.15-.131.059c.145-.044.287-.094.436-.126.059-.013.122-.019.18-.034-.4.107-.245.03-.1.021a3.437,3.437,0,0,1,.473,0c.217.016.14.108-.1-.018a1.366,1.366,0,0,0,.273.058q.134.034.264.079.065.022.128.047.172.067-.173-.072a2.818,2.818,0,0,0,.468.267c.215.128-.087-.064-.108-.09a2.793,2.793,0,0,0,.266.237c.042.042.083.084.123.128.189.207.031.1-.024-.048a4.919,4.919,0,0,0,.283.453c.093.179.028.274-.012-.055a1.707,1.707,0,0,0,.089.256c.022.073.041.146.058.22q.016.067.029.134.043.256-.017-.15a5.036,5.036,0,0,0,.013.565A1.607,1.607,0,0,0,8.4,6.8,1.63,1.63,0,0,0,10,5.2,5.016,5.016,0,0,0,1.342,1.571,5.1,5.1,0,0,0,.583,7.383,5.022,5.022,0,0,0,5.663,9.956,4.96,4.96,0,0,0,8.615,8.467,5.213,5.213,0,0,0,10,5.2a1.6,1.6,0,0,0-1.6-1.6A1.635,1.635,0,0,0,6.809,5.2Z" transform="translate(225.785 629.58)"/>
    <path id="Path-119" data-name="Path" d="M54.258,0,0,99.472" transform="translate(86.68 368.323)" fill="#fff"/>
    <path id="Path-120" data-name="Path" d="M54.467.79l-5.388,9.878L36.137,34.395,20.421,63.206,6.883,88.028C4.692,92.044,2.381,96.017.3,100.092c-.029.057-.062.113-.093.17-.984,1.8,1.771,3.417,2.756,1.611L8.353,92,21.295,68.269,37.01,39.457,50.549,14.635c2.19-4.016,4.5-7.989,6.581-12.065.029-.057.062-.113.093-.17C58.207.6,55.452-1.016,54.467.79Z" transform="translate(85.093 366.728)"/>
    <path id="Path-121" data-name="Path" d="M29.257,0,0,53.726" transform="translate(113.809 414.07)" fill="#fff"/>
    <path id="Path-122" data-name="Path" d="M29.465.79,19.571,18.959,3.812,47.9l-3.6,6.617c-.983,1.8,1.772,3.417,2.756,1.611l9.894-18.169L28.618,9.018l3.6-6.617C33.2.6,30.449-1.016,29.465.79Z" transform="translate(112.222 412.474)"/>
    <path id="Path-123" data-name="Path" d="M25.533,0,0,46.811" transform="translate(215.409 445.986)" fill="#fff"/>
    <path id="Path-124" data-name="Path" d="M25.742.79l-8.6,15.773L3.363,41.819.209,47.6c-.984,1.8,1.771,3.417,2.756,1.611l8.6-15.773L25.344,8.182,28.5,2.4C29.482.6,26.727-1.016,25.742.79Z" transform="translate(213.822 444.391)"/>
    <path id="Path-125" data-name="Path" d="M31.916,0,0,58.513" transform="translate(246.793 413.538)" fill="#fff"/>
    <path id="Path-126" data-name="Path" d="M32.125.789,21.315,20.608,4.116,52.14.209,59.3c-.984,1.8,1.771,3.417,2.756,1.611L13.775,41.1l17.2-31.532L34.881,2.4C35.864.6,33.11-1.016,32.125.79Z" transform="translate(245.207 411.943)"/>
    <path id="Path-127" data-name="Path" d="M1.94,1.538,1.285,15.53.242,37.836,0,42.962c-.1,2.053,3.1,2.048,3.192,0l.655-13.992L4.892,6.665l.24-5.127C5.227-.515,2.035-.51,1.94,1.538Z" transform="translate(673.406 448.77)"/>
    <path id="Path-128" data-name="Path" d="M2.971,83.438l4.494-8.085L18.2,56.038,31.239,32.583l11.226-20.2c1.823-3.278,3.769-6.516,5.478-9.855.024-.046.05-.091.076-.136,1-1.8-1.757-3.408-2.756-1.611L40.768,8.87,30.032,28.185,16.995,51.64,5.768,71.836C3.946,75.114,2,78.352.29,81.691c-.024.046-.051.091-.076.136-1,1.8,1.757,3.408,2.756,1.611Z" transform="translate(721.167 519.516)"/>
  </g>
</svg>
