<svg id="loading___load_download_upload_progress_man_people" data-name="loading _ load, download, upload, progress, man, people" xmlns="http://www.w3.org/2000/svg" width="550.714" height="557.5" viewBox="0 0 550.714 557.5">
  <g id="Group">
    <path id="Path" d="M0,29.709,47.251,0,73.476,45.932,40.939,62.486,12.983,57.621" transform="translate(85.758 405.504)" fill="#fc7272"/>
    <path id="Path-2" data-name="Path" d="M1.834,32.017l4.695-2.952,11.276-7.09L31.451,13.4l11.8-7.421,3.894-2.448A20.831,20.831,0,0,0,49,2.36a.93.93,0,0,1,.083-.052l-1.7-.445,2.6,4.552,6.279,11L63.829,30.66l6.542,11.458L72.531,45.9a19.621,19.621,0,0,0,1.036,1.814.837.837,0,0,1,.044.077l.445-1.7L63.039,51.7,45.551,60.6,41.52,62.651l.956-.125L33.02,60.88,17.96,58.259l-3.44-.6a1.277,1.277,0,0,0-1.527.867,1.252,1.252,0,0,0,.867,1.527l11.832,2.059,15.273,2.658a3.979,3.979,0,0,0,1.511.148,5.6,5.6,0,0,0,.967-.466l4.784-2.434,16-8.143c3.627-1.845,7.349-3.573,10.907-5.549.056-.031.115-.058.173-.088a1.257,1.257,0,0,0,.445-1.7l-2.6-4.552-6.279-11L59.313,17.744,52.771,6.285C51.71,4.426,50.72,2.5,49.575.687c-.016-.025-.029-.052-.044-.077a1.256,1.256,0,0,0-1.7-.445L43.137,3.116l-11.277,7.09-13.646,8.58-11.8,7.421C4.5,27.41,2.54,28.562.664,29.822c-.027.018-.055.035-.083.052-1.35.848-.1,3,1.253,2.144Z" transform="translate(84.55 404.267)"/>
    <path id="Path-3" data-name="Path" d="M37.812,0,0,23.479l50.988,82.8s21.988-15.269,6.049-46.6a12.621,12.621,0,0,1,4.683-16.56c7.142-4.306,11.133-6.684,11.133-6.684L64.495,22.725l-3.605,1.741A15.441,15.441,0,0,1,43.5,21.721h0a15.441,15.441,0,0,1-4.716-9.893Z" transform="translate(55.487 430.703)" fill="#fff"/>
    <path id="Path-4" data-name="Path" d="M38.421.194,25.608,8.149,5.272,20.777l-4.663,2.9a1.26,1.26,0,0,0-.445,1.7L5.233,33.6,17.408,53.374l14.731,23.92,12.736,20.68c2.061,3.347,4.048,6.755,6.19,10.051.03.046.058.094.087.141a1.254,1.254,0,0,0,1.7.445A23.805,23.805,0,0,0,57,104.764a33.347,33.347,0,0,0,6.626-11.512,36.668,36.668,0,0,0,.808-18.94A54.607,54.607,0,0,0,60.157,61.97a17.091,17.091,0,0,1-1.965-5.48,11.759,11.759,0,0,1,.628-5.267,11.219,11.219,0,0,1,2.891-4.358,31.551,31.551,0,0,1,5.524-3.612q3.58-2.153,7.166-4.3l.314-.187a1.259,1.259,0,0,0,.445-1.7L67.848,25.08,66.8,23.364a1.274,1.274,0,0,0-1.7-.445,31.883,31.883,0,0,1-6.574,2.763,14.2,14.2,0,0,1-17.268-12.6c-.161-1.823-.3-3.648-.45-5.472l-.522-6.349c-.13-1.581-2.614-1.595-2.482,0,.324,3.937.625,7.877.971,11.812A16.676,16.676,0,0,0,57.125,28.415c3.366-.376,6.236-1.906,9.231-3.353l-1.7-.445L71.97,36.609l1.046,1.716.445-1.7q-2.426,1.445-4.845,2.9-2.9,1.74-5.8,3.486A15.289,15.289,0,0,0,58.3,47,13.955,13.955,0,0,0,55.916,57.9a26.038,26.038,0,0,0,2.372,5.9A54.812,54.812,0,0,1,60.717,70a37.272,37.272,0,0,1,1.295,19.822,29.706,29.706,0,0,1-2.576,7.025,31.867,31.867,0,0,1-1.662,2.841q-.415.632-.859,1.243c-.131.18-.265.359-.4.537a1,1,0,0,1-.081.106l-.243.307a30.16,30.16,0,0,1-3.056,3.294c-.352.325-.713.642-1.084.946-.14.114-.572.429-.145.121-.047.034-.209.119-.231.174-.008.019-.062.045-.081.058l1.7.445-5.07-8.232L36.05,78.91,21.319,54.99,8.584,34.31,4.37,27.468c-.651-1.057-1.242-2.206-1.976-3.209-.032-.044-.058-.094-.087-.141l-.445,1.7,12.813-7.956L35.011,5.233l4.663-2.9C41.028,1.5,39.783-.652,38.421.194Z" transform="translate(54.252 429.437)"/>
    <path id="Path-5" data-name="Path" d="M53.092,90.059l10.449-7.635-.03-.049C66.572,79.929,81.393,66.44,71.4,41.425L57.66,49.541a12.615,12.615,0,0,1-17.135-4.21L12.4,0,8.966,1.716A40.638,40.638,0,0,0,0,7.817H0Z" transform="translate(43.502 454.192)"/>
    <path id="Path-6" data-name="Path" d="M54.958,92.362l9.134-6.675,1.315-.96a1.267,1.267,0,0,0,.445-1.7l-.03-.049-.194,1.5a30.68,30.68,0,0,0,7-8.224A33.87,33.87,0,0,0,77.26,57.441a46.683,46.683,0,0,0-3.424-15.116,1.261,1.261,0,0,0-1.823-.742c-4.555,2.691-9.1,5.4-13.666,8.073a11.516,11.516,0,0,1-12.859-.763,15.551,15.551,0,0,1-3.515-4.351L33.281,30.536l-11.7-18.854C19.325,8.045,17.137,4.354,14.807.764c-.034-.053-.066-.107-.1-.16a1.273,1.273,0,0,0-1.7-.445c-1.3.649-2.6,1.285-3.893,1.951A41.93,41.93,0,0,0,.361,8.17a1.251,1.251,0,0,0-.194,1.5L5.478,17.9,18.144,37.521,33.455,61.238l13.3,20.6c2.138,3.311,4.216,6.671,6.418,9.941.031.045.059.092.089.138.864,1.338,3.013.095,2.143-1.253l-5.311-8.226L37.427,62.816,22.116,39.1,8.818,18.5,4.464,11.756c-.68-1.053-1.3-2.2-2.064-3.2-.033-.043-.06-.093-.089-.138l-.194,1.5A39.5,39.5,0,0,1,10.6,4.135c1.217-.619,2.442-1.222,3.663-1.832l-1.7-.445,5.793,9.336,11.7,18.862,9.388,15.129a31.15,31.15,0,0,0,2.518,3.744,13.946,13.946,0,0,0,14.67,4.2c2.718-.869,5.214-2.662,7.652-4.1L72.7,44.06l.563-.333-1.823-.742c2.942,7.414,4.4,15.573,2.524,23.44a29.923,29.923,0,0,1-3.053,7.837,31.962,31.962,0,0,1-1.963,3.073c-.146.2-.3.4-.446.6l-.137.179c.013-.016.111-.143.024-.032q-.151.193-.3.383-.451.558-.927,1.095a26.9,26.9,0,0,1-3.288,3.166,1.244,1.244,0,0,0-.194,1.5l.03.049.445-1.7-9.134,6.675-1.315.96a1.278,1.278,0,0,0-.445,1.7,1.251,1.251,0,0,0,1.7.446Z" transform="translate(42.262 452.961)"/>
    <path id="Path-7" data-name="Path" d="M1.825,29.48a22.715,22.715,0,0,0,4.952-3.95,16.665,16.665,0,0,0,3.5-15.6,19.115,19.115,0,0,0-2.5-5.142L5.023.571C4.153-.762,2,.481,2.88,1.824L5.086,5.2A23.928,23.928,0,0,1,7.394,9.166,14.338,14.338,0,0,1,5.573,23.1a18.516,18.516,0,0,1-5,4.237C-.762,28.2.48,30.355,1.825,29.48Z" transform="translate(66.432 444.269)"/>
    <path id="Path-8" data-name="Path" d="M7.593.006A12.178,12.178,0,0,0,0,2.368" transform="translate(104.476 490.054)" fill="#a8542a"/>
    <path id="Path-9" data-name="Path" d="M8.834.018a10.107,10.107,0,0,0-2.676.2A13.986,13.986,0,0,0,.615,2.549,1.241,1.241,0,0,0,1.868,4.693a14.02,14.02,0,0,1,1.406-.871q.324-.174.657-.329c.116-.054.233-.108.352-.158-.191.081.162-.062.164-.063A12.665,12.665,0,0,1,6.818,2.61q.132-.023.265-.043c.08-.012.228-.1.087-.013q-.164.022,0,0l.117-.013.187-.018c.249-.022.5-.036.748-.04a5.486,5.486,0,0,1,.617.016,1.245,1.245,0,0,0,1.241-1.241A1.275,1.275,0,0,0,8.835.017Z" transform="translate(103.235 488.801)"/>
    <path id="Path-10" data-name="Path" d="M7.952.638A12.178,12.178,0,0,0,0,.7" transform="translate(102.557 483.689)" fill="#a8542a"/>
    <path id="Path-11" data-name="Path" d="M9.523.663A10.06,10.06,0,0,0,6.9.086,14.014,14.014,0,0,0,.912.722a1.242,1.242,0,1,0,.66,2.394,13.984,13.984,0,0,1,1.6-.426,8.075,8.075,0,0,1,1.275-.176A13.515,13.515,0,0,1,6.9,2.569c.244.026-.16-.029-.008,0,.072.013.145.022.218.034q.239.04.476.09c.232.049.463.105.691.171a5.492,5.492,0,0,1,.584.194A1.244,1.244,0,0,0,10.39,2.19,1.28,1.28,0,0,0,9.523.663Z" transform="translate(101.316 482.467)"/>
    <path id="Path-12" data-name="Path" d="M7.328,3.087A12.178,12.178,0,0,0,0,0" transform="translate(104.258 476.546)" fill="#a8542a"/>
    <path id="Path-13" data-name="Path" d="M9.447,3.451A10.066,10.066,0,0,0,7.269,1.843,14.58,14.58,0,0,0,1.241,0,1.246,1.246,0,0,0,0,1.241,1.274,1.274,0,0,0,1.241,2.482c.166.015.332.032.5.051-.217-.026.1.015.151.023q.4.064.8.153a13.065,13.065,0,0,1,1.355.379c.221.075.437.16.655.242.242.092-.2-.094.1.04.1.044.194.087.291.132q.508.239.993.522.4.236.787.5c.11.077.217.157.325.236.162.117-.248-.2-.091-.071l.124.1a5.479,5.479,0,0,1,.464.413A1.241,1.241,0,0,0,9.447,3.451Z" transform="translate(103.017 475.305)"/>
    <path id="Path-14" data-name="Path" d="M22.634.16Q16.348,3.547,10.243,7.267c-2.823,1.714-5.551,3.348-7.5,6.089A15.262,15.262,0,0,0,.007,21.52,15.658,15.658,0,0,0,1.33,28.3q.531,1.248,1.065,2.5L6.8,41.133l3.2,7.5a1.249,1.249,0,0,0,1.7.445,1.274,1.274,0,0,0,.445-1.7L5.188,31.068,3.734,27.66c-.1-.225-.194-.449-.288-.675-.017-.04-.043-.111.03.071-.132-.328-.255-.658-.364-.995a13.769,13.769,0,0,1-.492-2.021,12.681,12.681,0,0,1,1.221-7.7,12.858,12.858,0,0,1,2.3-3.2A19.021,19.021,0,0,1,9.8,10.45Q16.713,6.165,23.887,2.3c1.407-.758.155-2.9-1.253-2.144Z" transform="translate(92.997 454.009)"/>
    <path id="Path-15" data-name="Path" d="M16.977,67.1,0,13.932,51.023,0l7.911,35.639L47.246,61.5" transform="translate(294.439 441.551)" fill="#fc7272"/>
    <path id="Path-16" data-name="Path" d="M19.412,68.01l-1.687-5.283L13.674,50.038l-4.9-15.355L4.531,21.4l-1.4-4.382a20.7,20.7,0,0,0-.666-2.086.923.923,0,0,1-.03-.093l-.867,1.527,5.057-1.381L18.843,11.65,33.558,7.632,46.287,4.156l4.2-1.148a19.513,19.513,0,0,0,2.015-.55.838.838,0,0,1,.086-.023l-1.527-.867,2.679,12.068L58,32.791l.98,4.416.125-.956L55.147,45l-6.3,13.929-1.438,3.182a1.279,1.279,0,0,0,.445,1.7,1.251,1.251,0,0,0,1.7-.445L54.5,52.418l6.386-14.127a4.124,4.124,0,0,0,.526-1.414,5.254,5.254,0,0,0-.207-1.064l-1.163-5.241L56.152,13.044C55.27,9.071,54.521,5.038,53.5,1.1c-.016-.062-.028-.126-.042-.189A1.257,1.257,0,0,0,51.932.042L46.875,1.422,34.658,4.758,19.942,8.776,7.213,12.252c-2.066.564-4.179,1.045-6.219,1.7-.028.009-.057.016-.086.023A1.255,1.255,0,0,0,.042,15.5l1.687,5.283L5.78,33.472l4.9,15.355,4.241,13.282c.687,2.153,1.317,4.335,2.065,6.468.011.031.02.062.03.093.484,1.516,2.882.868,2.394-.66Z" transform="translate(293.201 440.313)"/>
    <path id="Path-17" data-name="Path" d="M13.408,70.385A27.019,27.019,0,0,1,4.1,66.149C2.659,65.019,1.26,63.433,1.24,61.5a6,6,0,0,1,2.44-4.409,18.342,18.342,0,0,1,6.714-3.371A38.416,38.416,0,0,1,21.944,52.27c.5.007.868-.71.439-1.059-4.639-3.774-9.323-7.823-12.894-12.662a18.618,18.618,0,0,1-2.57-4.428,5.53,5.53,0,0,1-.409-3.032A2.45,2.45,0,0,1,7.8,29.424a6,6,0,0,1,2.816-.573,22.063,22.063,0,0,1,9.137,2.5,50.326,50.326,0,0,1,12.7,8.813.625.625,0,0,0,1.037-.6c-2.447-7.644-4.611-15.6-5.088-23.646a29.513,29.513,0,0,1,.285-7.11,9.375,9.375,0,0,1,1.58-4.06,2.758,2.758,0,0,1,2.377-1.171,4.347,4.347,0,0,1,1.4.377,7.609,7.609,0,0,1,1.631,1.075c3.221,2.745,5.173,6.982,6.627,10.859A75.908,75.908,0,0,1,46.576,36.55q.126,1.586.2,3.176A.624.624,0,0,0,48,39.891c1.778-4.731,3.841-9.372,6.035-13.923A128.036,128.036,0,0,1,60.35,14.274a47.6,47.6,0,0,1,7.307-9.547c1.9-1.817,4.513-3.835,7.322-3.446,2.286.317,3.227,2.149,3.338,4.348.164,3.242-.856,6.545-1.894,9.576a99.043,99.043,0,0,1-4.774,11.258c-2.512,5.154-5.316,10.143-8.23,15.077-.049.083-.1.166-.152.248-.347.562.321,1.107.849.849,1.778-.868,3.613-1.632,5.459-2.343A42.338,42.338,0,0,1,80.082,37.4c2.283-.245,6.227-.264,6.583,2.8a6.341,6.341,0,0,1-1.31,3.955,23.478,23.478,0,0,1-3.425,4.017A46.19,46.19,0,0,1,75.9,53.15a.624.624,0,0,0,.478,1.134A53.893,53.893,0,0,1,87.928,53.1c2.282.029,4.959.147,6.939,1.422a3,3,0,0,1,1.41,2.033,9.27,9.27,0,0,1-.832,5.305A12.959,12.959,0,0,1,90.8,67.217c-.57.359-.213,1.376.478,1.134a5.044,5.044,0,0,1,2.864-.2c2.469.6,2.44,3.62,2.165,5.642-.041.3.069.705.433.763,3.094.492,6.773,1.6,8.214,4.68a5.607,5.607,0,0,1,.523,2.286,6.111,6.111,0,0,1-.038.8.768.768,0,1,0-.03.158c-.18.777,1.017,1.109,1.2.33.714-3.089-1.3-6.113-3.878-7.613a16.256,16.256,0,0,0-5.657-1.84l.433.763c.354-2.6.26-6.066-2.7-7.072a6.184,6.184,0,0,0-3.858.1l.478,1.134a14.407,14.407,0,0,0,4.5-4.7,11.378,11.378,0,0,0,1.659-5.377A5.343,5.343,0,0,0,96.6,54.4c-1.562-1.863-4.42-2.271-6.692-2.454a43.455,43.455,0,0,0-8.679.325c-1.733.21-3.47.459-5.181.815l.478,1.134a49.1,49.1,0,0,0,5.6-4.519,29.011,29.011,0,0,0,3.838-4.24,9.336,9.336,0,0,0,1.94-4.476,4.223,4.223,0,0,0-1.63-3.752,7.083,7.083,0,0,0-4.212-1.177C78.248,36,74.388,37.23,70.838,38.5a72.925,72.925,0,0,0-7.348,3.061l.849.849c2.672-4.332,5.119-8.821,7.409-13.364A118.946,118.946,0,0,0,76.9,17.531,36.079,36.079,0,0,0,79.55,7c.131-2.356-.3-5.183-2.61-6.387C74.381-.718,71.412.31,69.2,1.846a32.6,32.6,0,0,0-7.775,8.5,102.147,102.147,0,0,0-6.822,11.678,179.178,179.178,0,0,0-7.692,17.243c-.037.1-.075.2-.112.293l1.219.165A83.2,83.2,0,0,0,44.08,17.164C42.578,12.742,40.554,8,37.147,4.686c-1.8-1.752-4.618-3.335-6.954-1.576a7.15,7.15,0,0,0-2.3,3.717,22.478,22.478,0,0,0-.805,6.566c0,7.7,1.9,15.436,4.063,22.777q.551,1.867,1.147,3.722l1.037-.6A52.387,52.387,0,0,0,21.3,30.729a25.989,25.989,0,0,0-10.041-3.1C9.21,27.516,6.608,27.9,5.6,29.965c-1.22,2.5.414,5.57,1.746,7.657a41.248,41.248,0,0,0,5.145,6.317A100.228,100.228,0,0,0,21.5,52.088l.439-1.059a40.519,40.519,0,0,0-11.1,1.276A21.142,21.142,0,0,0,3.2,55.892,7.688,7.688,0,0,0,.023,60.975a6.736,6.736,0,0,0,2.434,5.4c2.886,2.707,6.891,4.134,10.621,5.21a.621.621,0,0,0,.33-1.2Z" transform="translate(443.965 462.042)"/>
    <path id="Path-18" data-name="Path" d="M20.21,10.307a28.22,28.22,0,0,0-1.586-3.953A13.483,13.483,0,0,0,14.369.787a4.353,4.353,0,0,0-5.935.859c-1.4,1.918-.937,4.7-.376,6.826a26.039,26.039,0,0,0,1.994,5.215l.7-.912c-2.789-1.138-6.516-1.62-9.236-.095a2.441,2.441,0,0,0-1.359,3.06,7.381,7.381,0,0,0,2.525,2.954,19.6,19.6,0,0,0,2.436,1.66V19.281c-2.468,1.6-4.009,4.631-2.156,7.294.453.651,1.53.031,1.072-.627a3.237,3.237,0,0,1,.083-4.042,6.476,6.476,0,0,1,1.628-1.554.628.628,0,0,0,0-1.072A12.4,12.4,0,0,1,1.7,15.992c-.58-.822-.655-1.566.269-2.138a7.842,7.842,0,0,1,5.274-.729,14.128,14.128,0,0,1,3.183.846c.543.221.922-.481.7-.911A25,25,0,0,1,9.64,9.433c-.631-1.925-1.332-4.381-.573-6.368A3.034,3.034,0,0,1,13.589,1.76c1.769,1.087,2.917,3.114,3.817,4.922a26.133,26.133,0,0,1,1.607,3.955c.234.761,1.432.437,1.2-.33Z" transform="translate(479.166 522.553)"/>
    <path id="Path-19" data-name="Path" d="M0,24.839,13.3,67.315,106.2,38.6S96.9,13.5,62.585,21.117a12.621,12.621,0,0,1-14.867-8.668C45.331,4.458,44.025,0,44.025,0L28.664,4.673,29.451,8.6a15.441,15.441,0,0,1-7,16.154h0A15.441,15.441,0,0,1,11.7,26.85Z" transform="translate(308.931 475.385)" fill="#fff"/>
    <path id="Path-20" data-name="Path" d="M.063,26.407,4.569,40.8l7.153,22.845,1.64,5.238a1.26,1.26,0,0,0,1.527.867L24.126,66.9,46.31,60.039l26.84-8.295,23.2-7.171c3.756-1.161,7.549-2.24,11.278-3.485.052-.018.106-.033.158-.049a1.253,1.253,0,0,0,.867-1.527,23.481,23.481,0,0,0-2.533-4.746,33.421,33.421,0,0,0-8.851-8.993,35.719,35.719,0,0,0-16.824-5.89,50.388,50.388,0,0,0-12.048.382q-1.693.241-3.37.575a24.262,24.262,0,0,1-3.143.553,11.41,11.41,0,0,1-10.045-4.655,20.312,20.312,0,0,1-2.529-6.272Q47.949,5.89,46.6,1.31l-.118-.4A1.259,1.259,0,0,0,44.955.041L31.517,4.129l-1.923.585a1.273,1.273,0,0,0-.867,1.527,32.273,32.273,0,0,1,1.04,6.966A14.2,14.2,0,0,1,13.276,26.889c-1.828-.3-3.653-.628-5.479-.942L1.59,24.881a1.278,1.278,0,0,0-1.527.867A1.252,1.252,0,0,0,.93,27.274c3.891.669,7.78,1.36,11.675,2.007A16.678,16.678,0,0,0,32.1,15.026c.425-3.223-.353-6.31-.982-9.445l-.867,1.527L43.692,3.02l1.923-.585-1.527-.867q.908,3.1,1.831,6.2c1.3,4.367,2.148,9.1,5.609,12.351a14.024,14.024,0,0,0,11.45,3.645c2.256-.308,4.464-.906,6.73-1.188a52.31,52.31,0,0,1,6.13-.414A35.655,35.655,0,0,1,93.762,26.5a31.522,31.522,0,0,1,3.2,2.092c.309.23.26.193.5.384s.481.388.718.587q.642.54,1.255,1.114,1.136,1.064,2.165,2.237.471.537.918,1.094l.2.251c.208.262-.03-.042.081.1.131.173.262.347.391.523a29.877,29.877,0,0,1,2.274,3.612c.211.4.412.8.6,1.207.062.135.117.275.181.409-.171-.356-.126-.072-.013-.025.012.005.027.07.033.086l.867-1.527L97.892,41.5,75.709,48.355,48.869,56.65l-23.2,7.171-7.678,2.373c-1.186.366-2.447.651-3.6,1.113-.051.02-.106.033-.158.049l1.527.867L11.25,53.83,4.1,30.986l-1.64-5.238C1.981,24.228-.416,24.877.063,26.407Z" transform="translate(307.671 474.147)"/>
    <path id="Path-21" data-name="Path" d="M70.648,22.1l70.9,262.734L68.947,304S15.843,103.26,10.01,72.561,0,0,0,0" transform="translate(218.87 178.558)" fill="#fb7853"/>
    <path id="Path-22" data-name="Path" d="M70.7,23.62l1.892,7.012,5.175,19.177,7.627,28.261,9.3,34.47,10.188,37.754,10.323,38.253,9.588,35.527,8.1,30.021,5.826,21.589,1.813,6.718c.311,1.152.529,2.395.948,3.513.053.14.08.3.119.44l.867-1.527-24.6,6.494-39.03,10.3-8.972,2.368,1.527.867q-1.021-3.86-2.039-7.721-2.737-10.375-5.464-20.752-3.946-15.012-7.874-30.029-4.7-17.974-9.374-35.955-4.955-19.073-9.868-38.158-4.705-18.292-9.346-36.6Q23.414,119.781,19.5,103.9C17.614,96.2,15.742,88.5,14.01,80.773,11.468,69.427,9.69,57.919,8.035,46.414Q4.96,25.035,2.732,3.541,2.609,2.364,2.49,1.187C2.332-.388-.152-.4.007,1.187,1.061,11.733,2.325,22.262,3.689,32.772c1.932,14.886,3.92,29.854,7.028,44.548,1.446,6.837,3.088,13.633,4.73,20.425q3.6,14.9,7.368,29.767,4.527,18,9.145,35.971,4.892,19.079,9.839,38.144,4.777,18.425,9.589,36.842,4.17,15.965,8.36,31.924,3.071,11.7,6.153,23.392c.987,3.746,1.906,7.519,2.968,11.245.046.162.086.327.13.49a1.261,1.261,0,0,0,1.527.867l24.6-6.494,39.03-10.3,8.972-2.368a1.26,1.26,0,0,0,.867-1.527l-1.892-7.012-5.175-19.177L129.3,231.245l-9.3-34.47-10.189-37.754L99.488,120.768,89.9,85.241,81.8,55.22,75.973,33.631c-.919-3.407-1.765-6.845-2.761-10.231-.043-.146-.079-.294-.119-.44a1.242,1.242,0,0,0-2.394.66Z" transform="translate(217.622 177.371)"/>
    <path id="Path-23" data-name="Path" d="M1.54,21.351l7.107-1.89,16.919-4.5,20.6-5.479,17.69-4.705c2.878-.765,5.812-1.425,8.658-2.3.039-.012.079-.021.119-.032A1.242,1.242,0,0,0,71.97.047l-7.107,1.89-16.919,4.5-20.6,5.479L9.657,16.623c-2.878.765-5.812,1.425-8.658,2.3-.039.012-.079.021-.119.032a1.242,1.242,0,0,0,.66,2.394Z" transform="translate(249.903 317.334)" fill="#fc7f3a"/>
    <path id="Path-24" data-name="Path" d="M68.045,259.274q-.962-3.272-1.921-6.544-2.6-8.863-5.191-17.728-3.767-12.885-7.518-25.774-4.493-15.438-8.961-30.882-4.771-16.5-9.505-33-4.621-16.12-9.186-32.255-3.988-14.116-7.892-28.256c-1.958-7.12-3.9-14.246-5.737-21.4C10.636,57.6,9.372,51.8,8.37,45.859,6.018,31.9,4.254,17.841,2.758,3.769Q2.621,2.479,2.49,1.187C2.332-.388-.152-.4.007,1.187c1.078,10.787,2.42,21.556,3.952,32.287A269.1,269.1,0,0,0,8.734,60.108c1.587,6.418,3.312,12.8,5.047,19.182q3.665,13.476,7.463,26.915,4.421,15.729,8.918,31.437,4.745,16.6,9.538,33.195,4.576,15.85,9.181,31.692,3.986,13.716,7.991,27.427,2.922,10.005,5.853,20.008c.933,3.182,1.816,6.385,2.8,9.551.043.139.082.279.123.419a1.242,1.242,0,0,0,2.394-.66Z" transform="translate(235.496 218.68)" fill="#fc7f3a"/>
    <path id="Path-25" data-name="Path" d="M.053,1.535,1.841,7.875,6.684,25.052l7.185,25.483,8.737,30.986,9.568,33.933,9.658,34.253,9.035,32.044L58.5,208.82l5.467,19.389c.862,3.059,1.675,6.138,2.589,9.182.039.13.074.262.111.393a1.242,1.242,0,0,0,2.394-.66l-1.788-6.339-4.843-17.178-7.185-25.483-8.737-30.986L36.938,123.2,27.28,88.95,18.245,56.906,10.613,29.839,5.146,10.45C4.284,7.391,3.471,4.312,2.557,1.268c-.039-.13-.074-.262-.111-.393a1.242,1.242,0,0,0-2.394.66Z" transform="translate(281.648 228.832)" fill="#fc7f3a"/>
    <path id="Path-26" data-name="Path" d="M.048,1.539,1.717,7.726,6.256,24.56l6.663,24.707L21.1,79.6l8.96,33.229,8.985,33.32,8.434,31.276L54.6,203.846l5.1,18.929c.806,2.988,1.558,6,2.419,8.97.037.128.069.257.1.386a1.242,1.242,0,0,0,2.394-.66l-1.668-6.187-4.539-16.834-6.663-24.707-8.179-30.333-8.96-33.229L25.628,86.861,17.194,55.584,10.07,29.163l-5.1-18.929c-.806-2.988-1.558-6-2.419-8.97-.037-.128-.069-.257-.1-.386a1.242,1.242,0,0,0-2.394.66Z" transform="translate(262.088 240.691)" fill="#fc7f3a"/>
    <path id="Path-27" data-name="Path" d="M1.54,21.812l7.246-1.933,17.326-4.622,20.95-5.589L65.229,4.82c2.923-.78,5.9-1.459,8.792-2.346.041-.012.082-.022.123-.033a1.242,1.242,0,0,0-.66-2.394L66.237,1.981,48.911,6.6l-20.95,5.589L9.794,17.039C6.871,17.819,3.9,18.5,1,19.385c-.041.012-.082.022-.123.033a1.242,1.242,0,0,0,.66,2.394Z" transform="translate(281.762 443.479)" fill="#fc7f3a"/>
    <path id="Path-28" data-name="Path" d="M1.54,21.352l7.046-1.885L25.5,14.941,45.882,9.488,63.5,4.773c2.858-.765,5.768-1.428,8.6-2.3.039-.012.08-.021.12-.032a1.242,1.242,0,0,0-.66-2.394L64.51,1.933,47.595,6.459,27.214,11.912,9.594,16.626c-2.858.765-5.767,1.428-8.6,2.3-.039.012-.08.021-.12.032a1.242,1.242,0,0,0,.66,2.394Z" transform="translate(274.314 413.322)" fill="#fc7f3a"/>
    <path id="Path-29" data-name="Path" d="M1.54,20.692l6.849-1.813,16.451-4.354,19.91-5.27L61.975,4.7c2.792-.739,5.633-1.38,8.4-2.222.04-.012.082-.022.123-.032a1.242,1.242,0,0,0-.66-2.394L62.984,1.86,46.533,6.214l-19.91,5.27L9.4,16.043c-2.792.739-5.633,1.38-8.4,2.222-.04.012-.082.022-.123.032a1.242,1.242,0,0,0,.66,2.394Z" transform="translate(268.448 384.728)" fill="#fc7f3a"/>
    <path id="Path-30" data-name="Path" d="M1.54,21.351l7.107-1.89,16.919-4.5,20.6-5.479,17.69-4.706c2.878-.765,5.812-1.425,8.658-2.3.039-.012.079-.021.119-.032A1.242,1.242,0,0,0,71.97.047l-7.107,1.89-16.919,4.5-20.6,5.479L9.657,16.623c-2.878.765-5.812,1.425-8.658,2.3-.039.012-.079.021-.119.032a1.242,1.242,0,0,0,.66,2.394Z" transform="translate(259.833 357.053)" fill="#fc7f3a"/>
    <path id="Path-31" data-name="Path" d="M70.7,23.62l1.892,7.012,5.175,19.177,7.627,28.261,9.3,34.47,10.188,37.754,10.323,38.253,9.588,35.527,8.1,30.021,5.826,21.589,1.813,6.718c.311,1.152.529,2.395.948,3.513.053.14.08.3.119.44l.867-1.527-24.6,6.494-39.03,10.3-8.972,2.368,1.527.867q-1.021-3.86-2.039-7.721-2.737-10.375-5.464-20.752-3.946-15.012-7.874-30.029-4.7-17.974-9.374-35.955-4.955-19.073-9.868-38.158-4.705-18.292-9.346-36.6Q23.414,119.781,19.5,103.9C17.614,96.2,15.742,88.5,14.01,80.773,11.468,69.427,9.69,57.919,8.035,46.414Q4.96,25.035,2.732,3.541,2.609,2.364,2.49,1.187C2.332-.388-.152-.4.007,1.187,1.061,11.733,2.325,22.262,3.689,32.772c1.932,14.886,3.92,29.854,7.028,44.548,1.446,6.837,3.088,13.633,4.73,20.425q3.6,14.9,7.368,29.767,4.527,18,9.145,35.971,4.892,19.079,9.839,38.144,4.777,18.425,9.589,36.842,4.17,15.965,8.36,31.924,3.071,11.7,6.153,23.392c.987,3.746,1.906,7.519,2.968,11.245.046.162.086.327.13.49a1.261,1.261,0,0,0,1.527.867l24.6-6.494,39.03-10.3,8.972-2.368a1.26,1.26,0,0,0,.867-1.527l-1.892-7.012-5.175-19.177L129.3,231.245l-9.3-34.47-10.189-37.754L99.488,120.768,89.9,85.241,81.8,55.22,75.973,33.631c-.919-3.407-1.765-6.845-2.761-10.231-.043-.146-.079-.294-.119-.44a1.242,1.242,0,0,0-2.394.66Z" transform="translate(217.622 177.371)"/>
    <path id="Path-32" data-name="Path" d="M143.769,31.92l20.573,101.088c6.307,39.1-8.255,78.882-38.86,104.025A100.761,100.761,0,0,1,114,245.227L39.927,290.373,0,226.776s60.905-42.826,88.472-57.541L72.524,64.654a87.475,87.475,0,0,1,1.49-33.907L81.51,0" transform="translate(103.961 179.084)" fill="#fb7853"/>
    <path id="Path-33" data-name="Path" d="M143.8,33.466l2.8,13.767,6.329,31.1,6.847,33.643,4.265,20.957A104.967,104.967,0,0,1,164,172.145,110.4,110.4,0,0,1,141.4,221.7a112.458,112.458,0,0,1-29.251,25.169L90.2,260.242,60.585,278.3l-19.1,11.644-.948.578,1.7.445L28.723,269.445,7.214,235.185,2.3,227.365l-.445,1.7q11.016-7.746,22.162-15.307c14.625-9.971,29.344-19.822,44.338-29.232,7.205-4.522,14.469-8.988,21.973-13a1.28,1.28,0,0,0,.57-1.4l-2.975-19.508-6.2-40.642-5.487-35.98-1.226-8.041a87.014,87.014,0,0,1,.816-30.964C78.117,24.139,81.05,13.4,83.675,2.632l.265-1.086c.378-1.552-2.015-2.214-2.394-.66L74.174,31.124a90.523,90.523,0,0,0-1.7,34.53c.287,1.97.6,3.937.9,5.906l5.1,33.446,6.367,41.751,2.413,15.821c.391,2.566.553,5.316,1.195,7.834.03.119.038.248.056.37l.57-1.4C74.645,177.1,60.906,186.187,47.25,195.185q-19.583,12.9-38.837,26.3Q4.5,224.191.607,226.92a1.265,1.265,0,0,0-.445,1.7L13.67,250.135,35.179,284.4l4.909,7.819a1.261,1.261,0,0,0,1.7.445l13.926-8.488,29.024-17.69,25.47-15.524,5.436-3.314a106.887,106.887,0,0,0,19.048-14.888,112.205,112.205,0,0,0,28.422-46.609c5.184-16.622,6.829-35.1,3.651-52.285-.932-5.04-2.046-10.053-3.068-15.075L157.208,86.9l-6.826-33.54-3.989-19.6-.194-.955c-.318-1.564-2.712-.9-2.394.66Z" transform="translate(102.728 177.868)"/>
    <path id="Path-34" data-name="Path" d="M1.821,183.166q4.665-3.071,9.34-6.125,11.327-7.411,22.687-14.774,13.982-9.06,28.031-18.018,6.745-4.292,13.519-8.537,3.115-1.949,6.241-3.882a48.95,48.95,0,0,0,6.651-4.553,27.189,27.189,0,0,0,8.827-15.7,30.783,30.783,0,0,0,0-9.546L94.97,86.484l-3.3-23.875L89.187,44.669c-.228-1.649-.5-3.305-.6-4.967a32.911,32.911,0,0,1,1.018-9.714c.4-1.687.857-3.362,1.287-5.042a7.509,7.509,0,0,0,.468-2.373c-.228-2.839-.76-5.686-1.138-8.508L88.768,3.184l-.26-1.943A1.284,1.284,0,0,0,87.267,0a1.247,1.247,0,0,0-1.241,1.241l2.446,18.292a30.582,30.582,0,0,1,.409,3.06,9.15,9.15,0,0,1-.544,2.326c-.427,1.653-.872,3.3-1.255,4.966a34.392,34.392,0,0,0-.985,9.662c.072,1.283.251,2.552.426,3.823l1.919,13.874,3.251,23.5,2.655,19.194c.167,1.206.342,2.412.5,3.619a25.941,25.941,0,0,1-.059,6.957,24.849,24.849,0,0,1-8.665,15.356,54.306,54.306,0,0,1-6.435,4.244q-6.422,3.974-12.8,8.017-14.064,8.89-28.029,17.937-12.259,7.919-24.476,15.9-6.612,4.318-13.213,8.654l-.6.4c-1.329.875-.087,3.025,1.253,2.144Z" transform="translate(110.827 236.61)" fill="#fc7f3a"/>
    <path id="Path-35" data-name="Path" d="M109.619,1.181l1.731,14.169,3.624,29.66,3.155,25.824c.226,1.846.472,3.691.677,5.539a102.579,102.579,0,0,1,.088,19.271c-1.13,14.166-5.621,27.953-14.406,39.25a78.424,78.424,0,0,1-21.712,18.851l-17.03,10.26-25.761,15.52L15.233,194.438,1.257,202.857l-.665.4A1.242,1.242,0,0,0,1.845,205.4l9.959-6,23.237-14,26.557-16,19.918-12,4.357-2.625a76.179,76.179,0,0,0,13.77-10.769,71.642,71.642,0,0,0,20.052-36.565,101.218,101.218,0,0,0,1.372-32.886l-2.682-21.946L114.645,22,112.223,2.173l-.121-.991c-.191-1.566-2.676-1.585-2.482,0Z" transform="translate(134.8 249.957)" fill="#fc7f3a"/>
    <path id="Path-36" data-name="Path" d="M100.145,1.53a174.254,174.254,0,0,1,6.214,30.6,128.251,128.251,0,0,1,.03,31.09c-1.181,8.773-3.618,17.726-8.741,25.063a37.23,37.23,0,0,1-10.46,9.7c-1.314.861-2.654,1.678-4,2.494l-8.716,5.3L59.147,115.1,40.8,126.264,22.682,137.291,8.248,146.072.923,150.528l-.334.2c-1.363.829-.117,2.977,1.253,2.144l5.166-3.143,13.177-8.017,17.708-10.774,18.758-11.413,16.28-9.9,10.442-6.353c4.557-2.773,9.213-5.539,12.92-9.427,6.1-6.4,9.486-14.937,11.347-23.458a111.654,111.654,0,0,0,1.85-30.834,175.1,175.1,0,0,0-5-31.563q-.9-3.58-1.955-7.118a1.242,1.242,0,0,0-2.394.66Z" transform="translate(123.632 287.588)" fill="#fc7f3a"/>
    <path id="Path-37" data-name="Path" d="M1.2,2.486l8.143.207,19.4.493,23.608.6,20.29.515c3.3.084,6.626.3,9.926.252.046,0,.091,0,.137,0a1.242,1.242,0,0,0,0-2.482l-8.143-.207-19.4-.492L31.551.774,11.261.259c-3.3-.084-6.626-.3-9.926-.252-.046,0-.091,0-.137,0a1.242,1.242,0,0,0,0,2.483Z" transform="translate(186.952 318.161)" fill="#fc7f3a"/>
    <path id="Path-38" data-name="Path" d="M.2,1.835,4.188,8.2l9.5,15.146L25.218,41.715,35.183,57.6c1.612,2.57,3.164,5.191,4.842,7.718.023.035.045.072.068.108.847,1.35,3,.106,2.144-1.253L38.245,57.81l-9.5-15.147L17.215,24.291,7.25,8.408C5.638,5.838,4.086,3.217,2.408.69,2.384.654,2.362.618,2.34.582,1.493-.769-.656.476.2,1.835Z" transform="translate(123.441 391.022)" fill="#fc7f3a"/>
    <path id="Path-39" data-name="Path" d="M.194,1.837l4.05,6.507,9.725,15.625L25.694,42.806l10.2,16.385c1.637,2.63,3.212,5.315,4.918,7.9.024.036.046.074.069.111.842,1.354,2.991.109,2.144-1.253l-4.05-6.507L29.248,43.818,17.523,24.981,7.325,8.6C5.688,5.966,4.113,3.282,2.407.7,2.383.659,2.361.621,2.338.584,1.5-.77-.653.475.194,1.837Z" transform="translate(154.06 371.16)" fill="#fc7f3a"/>
    <path id="Path-40" data-name="Path" d="M.395,2.089,6.159,7.305l13.9,12.576L36.818,35.048,51.307,48.16c2.35,2.126,4.661,4.307,7.054,6.383.032.028.064.058.1.086,1.182,1.07,2.943-.681,1.755-1.755l-5.764-5.216L40.55,35.082,23.789,19.915,9.3,6.8C6.95,4.677,4.639,2.5,2.245.42,2.213.392,2.182.363,2.15.334.968-.736-.793,1.014.395,2.089Z" transform="translate(177.224 355.85)" fill="#fc7f3a"/>
    <path id="Path-41" data-name="Path" d="M.889,2.43,8.033,4.073,25.264,8.034,46.042,12.81l18.014,4.141c2.9.666,5.79,1.41,8.705,2,.04.008.08.018.12.028,1.555.357,2.219-2.035.66-2.394L66.4,14.944,49.165,10.983,28.387,6.206,10.374,2.065c-2.9-.666-5.79-1.41-8.705-2-.04-.008-.08-.018-.12-.027C-.006-.321-.67,2.072.889,2.43Z" transform="translate(191.069 347.135)" fill="#fc7f3a"/>
    <path id="Path-42" data-name="Path" d="M143.8,33.466l2.8,13.767,6.329,31.1,6.847,33.643,4.265,20.957A104.967,104.967,0,0,1,164,172.145,110.4,110.4,0,0,1,141.4,221.7a112.458,112.458,0,0,1-29.251,25.169L90.2,260.242,60.585,278.3l-19.1,11.644-.948.578,1.7.445L28.723,269.445,7.214,235.185,2.3,227.365l-.445,1.7q11.016-7.746,22.162-15.307c14.625-9.971,29.344-19.822,44.338-29.232,7.205-4.522,14.469-8.988,21.973-13a1.28,1.28,0,0,0,.57-1.4l-2.975-19.508-6.2-40.642-5.487-35.98-1.226-8.041a87.014,87.014,0,0,1,.816-30.964C78.117,24.139,81.05,13.4,83.675,2.632l.265-1.086c.378-1.552-2.015-2.214-2.394-.66L74.174,31.124a90.523,90.523,0,0,0-1.7,34.53c.287,1.97.6,3.937.9,5.906l5.1,33.446,6.367,41.751,2.413,15.821c.391,2.566.553,5.316,1.195,7.834.03.119.038.248.056.37l.57-1.4C74.645,177.1,60.906,186.187,47.25,195.185q-19.583,12.9-38.837,26.3Q4.5,224.191.607,226.92a1.265,1.265,0,0,0-.445,1.7L13.67,250.135,35.179,284.4l4.909,7.819a1.261,1.261,0,0,0,1.7.445l13.926-8.488,29.024-17.69,25.47-15.524,5.436-3.314a106.887,106.887,0,0,0,19.048-14.888,112.205,112.205,0,0,0,28.422-46.609c5.184-16.622,6.829-35.1,3.651-52.285-.932-5.04-2.046-10.053-3.068-15.075L157.208,86.9l-6.826-33.54-3.989-19.6-.194-.955c-.318-1.564-2.712-.9-2.394.66Z" transform="translate(102.728 177.868)"/>
    <path id="Path-43" data-name="Path" d="M97.366,30.3,92.58,18.281l-.055.017C90.92,14.723,81.557-2.995,54.839.439l4.43,15.33a12.615,12.615,0,0,1-8.354,15.543L0,47.237l.805,3.751a40.641,40.641,0,0,0,3.671,10.2h0Z" transform="translate(322.343 495.068)"/>
    <path id="Path-44" data-name="Path" d="M99.8,31.215,95.614,20.7l-.6-1.512a1.267,1.267,0,0,0-1.527-.867l-.055.017,1.4.57a30.69,30.69,0,0,0-6.248-8.861A33.841,33.841,0,0,0,71.6.908,46.6,46.6,0,0,0,56.074.438a1.261,1.261,0,0,0-1.2,1.571c1.469,5.083,2.953,10.161,4.407,15.248a11.516,11.516,0,0,1-3.937,12.264,15.566,15.566,0,0,1-5.116,2.331L34.459,36.785,13.287,43.407c-4.065,1.271-8.163,2.468-12.2,3.817-.059.02-.12.037-.179.056a1.272,1.272,0,0,0-.867,1.527c.3,1.38.581,2.763.891,4.14a41.983,41.983,0,0,0,3.71,10.113,1.251,1.251,0,0,0,1.4.57l9.291-3.09,22.161-7.369,26.788-8.907,23.266-7.736c3.741-1.244,7.51-2.423,11.228-3.734.052-.018.1-.035.156-.052,1.509-.5.862-2.9-.66-2.394L88.98,33.437,66.818,40.806,40.031,49.714,16.765,57.45,9.148,59.983c-1.189.4-2.457.708-3.611,1.2-.05.021-.1.035-.156.052l1.4.57a39.544,39.544,0,0,1-3.517-9.779c-.283-1.292-.556-2.587-.833-3.88l-.867,1.527,10.429-3.262,21.244-6.644L50.2,34.462a32.338,32.338,0,0,0,4.214-1.478,13.941,13.941,0,0,0,7.811-13.146c-.153-2.864-1.271-5.741-2.061-8.474L57.453,1.978l-.182-.628-1.2,1.571c7.908-1,16.184-.374,23.324,3.391a29.609,29.609,0,0,1,6.876,4.948,32.01,32.01,0,0,1,2.446,2.626q.25.3.493.608c.045.057.28.362.117.148q.135.176.267.354.443.6.858,1.212a26.856,26.856,0,0,1,2.233,3.957,1.244,1.244,0,0,0,1.4.57l.055-.017-1.527-.867L96.8,30.362l.6,1.512a1.279,1.279,0,0,0,1.527.867A1.25,1.25,0,0,0,99.8,31.215Z" transform="translate(321.108 493.827)"/>
    <path id="Path-45" data-name="Path" d="M28.045,13.079a22.713,22.713,0,0,0-2.609-5.815A16.664,16.664,0,0,0,11.175.008,19.433,19.433,0,0,0,5.569,1.161L.856,2.755C-.65,3.264,0,5.662,1.516,5.149L5.339,3.856A25.048,25.048,0,0,1,9.686,2.617,14.311,14.311,0,0,1,22.767,7.808a18.455,18.455,0,0,1,2.884,5.93c.507,1.506,2.905.86,2.394-.66Z" transform="translate(316.322 522.148)"/>
    <path id="Path-46" data-name="Path" d="M.485,0A12.178,12.178,0,0,0,.878,7.942" transform="translate(370.609 496.862)" fill="#a8542a"/>
    <path id="Path-47" data-name="Path" d="M.516.905a10.125,10.125,0,0,0-.48,2.641A14.02,14.02,0,0,0,.908,9.507a1.269,1.269,0,0,0,1.527.867A1.256,1.256,0,0,0,3.3,8.847,14,14,0,0,1,2.81,7.269q-.091-.372-.16-.749c-.02-.11-.038-.22-.057-.331-.069-.419.02.227-.026-.185a12.894,12.894,0,0,1-.048-2.459c.012-.152.03-.3.045-.456.028-.282-.042.244,0,0,.013-.077.023-.154.036-.231.039-.234.086-.467.142-.7a5.509,5.509,0,0,1,.169-.592A1.248,1.248,0,0,0,2.043.038,1.274,1.274,0,0,0,.516.9Z" transform="translate(369.381 495.627)"/>
    <path id="Path-48" data-name="Path" d="M1.975,0A12.178,12.178,0,0,0,.047,7.715" transform="translate(363.179 496.942)" fill="#a8542a"/>
    <path id="Path-49" data-name="Path" d="M2.131.6A10.035,10.035,0,0,0,.918,2.984a14,14,0,0,0-.885,5.96,1.241,1.241,0,1,0,2.482,0,13.936,13.936,0,0,1-.01-1.72c.014-.245.038-.489.064-.732.041-.387-.042.241.018-.136.018-.113.036-.225.056-.337a12.64,12.64,0,0,1,.668-2.375,2.419,2.419,0,0,1,.093-.23c-.013,0-.117.262,0,.009.059-.13.119-.26.182-.388q.165-.336.354-.66a5.489,5.489,0,0,1,.335-.52,1.245,1.245,0,0,0-.445-1.7A1.278,1.278,0,0,0,2.131.6Z" transform="translate(361.951 495.714)"/>
    <path id="Path-50" data-name="Path" d="M4.818,0A12.178,12.178,0,0,0,0,6.326" transform="translate(356.058 494.727)" fill="#a8542a"/>
    <path id="Path-51" data-name="Path" d="M5.432.17A9.2,9.2,0,0,0,3.988,1.256a13.631,13.631,0,0,0-2.6,3.109A15.053,15.053,0,0,0,.043,7.237,1.249,1.249,0,0,0,.91,8.764,1.273,1.273,0,0,0,2.437,7.9c.071-.2.146-.4.223-.594.089-.226-.064.137.034-.082.048-.107.1-.213.145-.319q.254-.539.555-1.053.277-.472.594-.92.072-.1.146-.2c.032-.044.158-.26.073-.1s.037-.046.073-.091q.084-.1.169-.206A12.231,12.231,0,0,1,5.62,3.121q.238-.214.487-.414c.254-.2-.2.145-.016.012.063-.046.125-.093.189-.138.132-.093.265-.187.405-.267A1.241,1.241,0,1,0,5.432.17Z" transform="translate(354.818 493.486)"/>
    <path id="Path-52" data-name="Path" d="M30.363.019C45.753-.429,60.276,7.305,68.582,17.1L125.92,84.754l61.247,40.271c-4.74,4.255-10.509,11.14-15.993,19.421-3.507,5.295-9.848,27.811-12.051,32.433l-63.85-35.073a76.909,76.909,0,0,1-18.166-13.761l-50.564-74L0,2.058Z" transform="translate(227.049 93.954)" fill="#389b48"/>
    <path id="Path-53" data-name="Path" d="M31.592,2.5A48.406,48.406,0,0,1,68.417,18.621c2.1,2.379,4.108,4.835,6.158,7.254L88.491,42.294l16.828,19.854,14.373,16.958,4.589,5.414c.643.759,1.249,1.621,1.963,2.316a13.816,13.816,0,0,0,2.09,1.418l5.953,3.914,19.428,12.773,21.008,13.813,12.455,8.19.591.388-.251-1.949a85.382,85.382,0,0,0-10.155,11.253c-2.708,3.5-5.626,7.091-7.466,11.144-3.09,6.807-5.214,14.07-7.562,21.154-.583,1.758-1.167,3.516-1.784,5.263-.241.684-.487,1.365-.748,2.041-.1.256-.2.511-.3.764,0,0-.1.226-.219.487l1.7-.445L146.521,169.1l-28.262-15.525L98.208,142.563a82.424,82.424,0,0,1-13.234-8.837c-1.847-1.54-3.508-3.262-5.3-4.856a2.107,2.107,0,0,1-.4-.41c-.382-.5-.713-1.044-1.067-1.562L65.7,108.595,47.294,81.653,32.255,59.643c-1.081-1.582-2.189-3.15-3.245-4.749a30.4,30.4,0,0,1-1.559-2.972L14.638,26.828,2.961,3.959,2.3,2.667,1.23,4.535l26.56-1.783,3.8-.255c1.586-.106,1.6-2.59,0-2.482L5.033,1.8l-3.8.255A1.258,1.258,0,0,0,.158,3.92L8.917,21.075l14.2,27.8c1.157,2.266,2.266,4.563,3.473,6.8a26.539,26.539,0,0,0,1.534,2.3L40.981,76.8l18.546,27.143,14.712,21.531c.98,1.435,1.937,2.89,2.943,4.307a10.22,10.22,0,0,0,1.2,1.3q2.672,2.643,5.593,5.016a80.131,80.131,0,0,0,11.9,8.01q7.261,3.994,14.527,7.98l28.347,15.571,19.942,10.954,1.033.567a1.254,1.254,0,0,0,1.7-.445,67.4,67.4,0,0,0,2.724-7.4c1.22-3.644,2.4-7.3,3.639-10.94,1.167-3.435,2.344-6.881,3.754-10.225a49.071,49.071,0,0,1,6.235-10,87.916,87.916,0,0,1,11.5-13.032,1.255,1.255,0,0,0-.251-1.949l-8.934-5.874-19.972-13.132L139.411,92.569c-3.79-2.492-7.548-5.041-11.374-7.478-.083-.053-.163-.116-.249-.164.114.063.268.312.172.108a4.723,4.723,0,0,0-.714-.842l-3.569-4.211L110.52,64.457,93.706,44.619,78.693,26.906l-7.779-9.178A51.273,51.273,0,0,0,42.246.954,47.819,47.819,0,0,0,31.592.014,1.242,1.242,0,0,0,31.592,2.5Z" transform="translate(225.82 92.718)"/>
    <path id="Path-54" data-name="Path" d="M1.134,17.342C-1.259,15.757.26,8.916,4.508,0L16.563,6.579C9.689,14.53,3.622,18.989,1.134,17.342Z" transform="translate(385.07 253.497)"/>
    <path id="Path-55" data-name="Path" d="M3.009,17.507c-.217-.151.16.158-.012-.016-.06-.061-.119-.123-.174-.189.2.234-.084-.18-.135-.291.125.271,0-.007-.015-.075-.027-.1-.059-.2-.083-.307s-.046-.22-.064-.331c.041.26-.01-.127-.012-.147a12.734,12.734,0,0,1,.339-3.524A50.648,50.648,0,0,1,6.828,1.863l-1.7.445L15.667,8.06l1.517.828-.251-1.949A54.472,54.472,0,0,1,8.05,15.563a19.911,19.911,0,0,1-1.8,1.172,8.61,8.61,0,0,1-1.478.7c-.222.076-.448.132-.675.19q-.106.023-.213.041.21-.025.073-.01c-.115.011-.228.014-.343.018a2.316,2.316,0,0,1-.278-.013c.332.028.056.011-.018-.016s-.163-.048-.242-.077c.33.12,0-.017-.072-.065-1.355-.855-2.6,1.292-1.253,2.144,2.256,1.424,5.229-.335,7.1-1.627a54.266,54.266,0,0,0,9.833-9.33,1.258,1.258,0,0,0-.251-1.949L7.9.993,6.382.165a1.254,1.254,0,0,0-1.7.445A49.891,49.891,0,0,0,.313,12.679c-.426,2.305-.765,5.438,1.442,6.972C3.071,20.564,4.313,18.413,3.009,17.507Z" transform="translate(383.822 252.26)"/>
    <path id="Path-56" data-name="Path" d="M8.645,19.421C14.129,11.14,19.9,4.255,24.638,0l8.817,5.8,14.5,9.536-22.5,33.08L12.055,41.1,0,34.518a126.311,126.311,0,0,1,8.645-15.1Z" transform="translate(389.578 218.979)" fill="#fc7f3a"/>
    <path id="Path-57" data-name="Path" d="M10.95,21.284c4.561-6.872,9.649-13.628,15.8-19.17l-1.5.194,8.834,5.809,10.306,6.776,4.181,2.749-.445-1.7L40.507,27.137,28.386,44.959l-2.764,4.064,1.7-.445-11.19-6.107L7.251,37.625,1.859,34.682l.445,1.7a126.2,126.2,0,0,1,8.645-15.1c.883-1.337-1.266-2.581-2.144-1.253a126.2,126.2,0,0,0-8.645,15.1,1.266,1.266,0,0,0,.445,1.7l11.028,6.019,9.318,5.085,5.116,2.792a1.274,1.274,0,0,0,1.7-.445l7.613-11.194L47.5,21.26,50.264,17.2a1.261,1.261,0,0,0-.445-1.7L39.833,8.932,31.988,3.774,26.5.164a1.263,1.263,0,0,0-1.5.194c-6.3,5.678-11.515,12.633-16.187,19.672C7.92,21.366,10.069,22.61,10.95,21.284Z" transform="translate(388.345 217.743)"/>
    <path id="Path-58" data-name="Path" d="M80.056,0,36.343,1.272C29.225,1.479,2.751,17.655,0,28.19c0,0,3.11,82.6.9,117.367,71.559-15.56,126.236-2.518,126.236-2.518L102.195,49.291" transform="translate(175.324 96.342)" fill="#389b48"/>
    <path id="Path-59" data-name="Path" d="M81.3,0,68.782.365l-22,.64-7.492.218a17.731,17.731,0,0,0-4.046.426,44.062,44.062,0,0,0-9.786,4.26,96.092,96.092,0,0,0-11.586,7.467,58.737,58.737,0,0,0-9.915,9,22.662,22.662,0,0,0-3,4.384A7,7,0,0,0,0,29.541c-.039,3.115.221,6.263.322,9.377Q.667,49.457.934,60q.351,13.769.562,27.541c.143,9.652.226,19.306.188,28.959-.033,8.43-.137,16.864-.515,25.287Q1.057,144.293.9,146.8A1.255,1.255,0,0,0,2.472,148a333.993,333.993,0,0,1,73.518-7.58q13.478.109,26.916,1.351,5.088.479,10.156,1.145l.245.033.095.013.538.073,1.106.154q1.017.144,2.033.3,1.77.267,3.535.563c2.461.414,4.9.924,7.341,1.411.031.006.062.014.093.022a1.255,1.255,0,0,0,1.527-1.527l-2.489-9.356-5.975-22.456-7.185-27-6.238-23.447c-1-3.768-1.891-7.591-3.013-11.326-.016-.053-.029-.107-.043-.16a1.242,1.242,0,0,0-2.394.66l2.489,9.356L110.7,82.675l7.185,27,6.238,23.447,2.043,7.679c.32,1.2.557,2.472.97,3.647.018.052.029.107.043.16l1.527-1.527c-1.985-.473-4-.835-6.01-1.188-5.659-1-11.362-1.748-17.076-2.342-8.61-.894-17.26-1.4-25.914-1.569a334.428,334.428,0,0,0-33.479,1.036,338.016,338.016,0,0,0-39.315,5.514q-2.555.514-5.1,1.067l1.571,1.2c.5-7.835.65-15.692.735-23.541.1-9.417.062-18.835-.042-28.251q-.155-14.069-.492-28.135-.268-11.6-.626-23.191-.2-6.49-.43-12.978c-.013-.363-.012-.729-.04-1.091,0-.058-.006-.118-.007-.176.006.416-.021.18.039.028s.1-.3.149-.453a5.285,5.285,0,0,1,.377-.889c1.622-3.332,4.315-6,7.074-8.491a83.51,83.51,0,0,1,11.025-8.276,77.874,77.874,0,0,1,11.036-6,26.9,26.9,0,0,1,4-1.383c.269-.065.539-.116.811-.167.366-.068-.068,0,.1-.016.143-.012.285-.027.429-.034.09,0,.181-.005.272-.008,1.671-.053,3.342-.1,5.013-.146L63.643,3l16.772-.488.882-.026c1.594-.046,1.6-2.529,0-2.482Z" transform="translate(174.083 95.101)"/>
    <rect id="Rectangle" width="439.707" height="133.226" transform="translate(1.241 169.216)" fill="#fff"/>
    <path id="Path-60" data-name="Path" d="M440.949,133.269H7.869c-1.925,0-3.963-.192-5.88,0-.244.024-.5,0-.748,0l1.241,1.241V1.285L1.241,2.526H434.32c1.925,0,3.963.192,5.88,0,.244-.024.5,0,.748,0l-1.241-1.241V134.511a1.242,1.242,0,0,0,2.482,0V1.285A1.259,1.259,0,0,0,440.949.043H19.09c-5.7,0-11.4-.1-17.1,0-.249,0-.5,0-.748,0A1.259,1.259,0,0,0,0,1.285V134.511a1.259,1.259,0,0,0,1.241,1.241H423.1c5.7,0,11.4.1,17.1,0,.249,0,.5,0,.748,0A1.242,1.242,0,0,0,440.949,133.269Z" transform="translate(0 167.932)"/>
    <rect id="Rectangle-2" data-name="Rectangle" width="361.927" height="62.889" transform="translate(40.132 212.66)" fill="#fff"/>
    <path id="Path-61" data-name="Path" d="M363.168,62.927H6.7c-1.59,0-3.255-.142-4.84,0-.2.018-.412,0-.615,0l1.241,1.241V1.279L1.241,2.52H357.712c1.59,0,3.255.142,4.84,0,.2-.018.412,0,.615,0l-1.241-1.241V64.168a1.242,1.242,0,0,0,2.482,0V1.279A1.259,1.259,0,0,0,363.168.038H15.933c-4.689,0-9.388-.085-14.076,0-.205,0-.41,0-.615,0A1.259,1.259,0,0,0,0,1.279V64.168A1.259,1.259,0,0,0,1.241,65.41H348.476c4.689,0,9.388.085,14.076,0,.205,0,.41,0,.615,0A1.242,1.242,0,0,0,363.168,62.927Z" transform="translate(38.89 211.38)"/>
    <rect id="Rectangle-3" data-name="Rectangle" width="237.593" height="62.889" transform="translate(37.03 212.66)" fill="#458dc9"/>
    <path id="Path-62" data-name="Path" d="M238.834,62.915H10.886c-3.055,0-6.191-.206-9.241,0-.133.009-.27,0-.4,0l1.241,1.241V1.267L1.241,2.509H229.19c3.055,0,6.191.206,9.241,0,.133-.009.27,0,.4,0l-1.241-1.241V64.157a1.242,1.242,0,0,0,2.482,0V1.267A1.259,1.259,0,0,0,238.834.026H10.886c-3.078,0-6.163-.059-9.241,0-.134,0-.269,0-.4,0A1.259,1.259,0,0,0,0,1.267V64.157A1.259,1.259,0,0,0,1.241,65.4H229.19c3.078,0,6.163.059,9.241,0,.134,0,.269,0,.4,0A1.242,1.242,0,0,0,238.834,62.915Z" transform="translate(35.789 211.392)"/>
    <path id="Path-63" data-name="Path" d="M.046,1.2V56.358c0,2.533-.1,5.091,0,7.623,0,.036,0,.071,0,.107a1.242,1.242,0,0,0,2.482,0V8.929c0-2.533.1-5.091,0-7.623,0-.036,0-.071,0-.107a1.242,1.242,0,0,0-2.482,0Z" transform="translate(35.847 211.461)"/>
    <path id="Path-64" data-name="Path" d="M.046,1.2V56.358c0,2.533-.1,5.091,0,7.623,0,.036,0,.071,0,.107a1.242,1.242,0,0,0,2.483,0V8.929c0-2.533.1-5.091,0-7.623,0-.036,0-.071,0-.107a1.242,1.242,0,0,0-2.483,0Z" transform="translate(62.234 211.461)"/>
    <path id="Path-65" data-name="Path" d="M.046,1.2V56.358c0,2.533-.1,5.091,0,7.623,0,.036,0,.071,0,.107a1.242,1.242,0,0,0,2.482,0V8.929c0-2.533.1-5.091,0-7.623,0-.036,0-.071,0-.107a1.242,1.242,0,0,0-2.482,0Z" transform="translate(88.622 211.461)"/>
    <path id="Path-66" data-name="Path" d="M.046,1.2V56.358c0,2.533-.1,5.091,0,7.623,0,.036,0,.071,0,.107a1.242,1.242,0,0,0,2.482,0V8.929c0-2.533.1-5.091,0-7.623,0-.036,0-.071,0-.107a1.242,1.242,0,0,0-2.482,0Z" transform="translate(115.01 211.461)"/>
    <path id="Path-67" data-name="Path" d="M.046,1.2V56.358c0,2.533-.1,5.091,0,7.623,0,.036,0,.071,0,.107a1.242,1.242,0,0,0,2.483,0V8.929c0-2.533.1-5.091,0-7.623,0-.036,0-.071,0-.107a1.242,1.242,0,0,0-2.483,0Z" transform="translate(141.398 211.461)"/>
    <path id="Path-68" data-name="Path" d="M.046,1.2V56.358c0,2.533-.1,5.091,0,7.623,0,.036,0,.071,0,.107a1.242,1.242,0,0,0,2.482,0V8.929c0-2.533.1-5.091,0-7.623,0-.036,0-.071,0-.107a1.242,1.242,0,0,0-2.482,0Z" transform="translate(167.785 211.461)"/>
    <path id="Path-69" data-name="Path" d="M.046,1.2V56.358c0,2.533-.1,5.091,0,7.623,0,.036,0,.071,0,.107a1.242,1.242,0,0,0,2.482,0V8.929c0-2.533.1-5.091,0-7.623,0-.036,0-.071,0-.107a1.242,1.242,0,0,0-2.482,0Z" transform="translate(194.173 211.461)"/>
    <path id="Path-70" data-name="Path" d="M.046,1.2V56.358c0,2.533-.1,5.091,0,7.623,0,.036,0,.071,0,.107a1.242,1.242,0,0,0,2.483,0V8.929c0-2.533.1-5.091,0-7.623,0-.036,0-.071,0-.107a1.242,1.242,0,0,0-2.483,0Z" transform="translate(220.561 211.461)"/>
    <path id="Path-71" data-name="Path" d="M.046,1.2V56.358c0,2.533-.1,5.091,0,7.623,0,.036,0,.071,0,.107a1.242,1.242,0,0,0,2.482,0V8.929c0-2.533.1-5.091,0-7.623,0-.036,0-.071,0-.107a1.242,1.242,0,0,0-2.482,0Z" transform="translate(246.948 211.461)"/>
    <path id="Path-72" data-name="Path" d="M.046,1.2V56.358c0,2.533-.1,5.091,0,7.623,0,.036,0,.071,0,.107a1.242,1.242,0,0,0,2.482,0V8.929c0-2.533.1-5.091,0-7.623,0-.036,0-.071,0-.107a1.242,1.242,0,0,0-2.482,0Z" transform="translate(273.336 211.461)"/>
    <path id="Path-73" data-name="Path" d="M145,67.673,60.848,87.065l14.125,57.412c-6.407-.519-15.884.246-26.253,2.361-5.73,1.168-26.958,13.1-31.532,14.664L.952,79.951c-5.718-24.479,15.394-40.728,34.8-49.262l12.939-4.65L122.745,4.9A103.89,103.89,0,0,1,148.237.958L181.158,0" transform="translate(64.326 94.319)" fill="#389b48"/>
    <path id="Path-74" data-name="Path" d="M145.91,67.718l-8.385,1.932L117.4,74.288,93.14,79.878,72.1,84.726c-3.385.78-6.867,1.393-10.206,2.352-.045.013-.093.021-.139.032a1.261,1.261,0,0,0-.867,1.527l4.8,19.507,7.589,30.846,1.737,7.059,1.2-1.571a78.2,78.2,0,0,0-15.516.6q-4.863.593-9.675,1.528a23.819,23.819,0,0,0-4.088,1.133c-7.093,2.723-13.815,6.47-20.584,9.892-1.683.851-3.368,1.7-5.068,2.515-.645.309-1.293.614-1.947.9l-.41.179c-.134.057.042-.018.057-.024-.075.031-.15.063-.225.092-.219.087-.438.172-.66.249l1.527.867-.925-4.648L16.3,145.74,13.059,129.45,9.553,111.839,6.364,95.822,4.12,84.552c-.447-2.244-.995-4.511-1.321-6.773a32.208,32.208,0,0,1,5.619-22.9c4.585-6.691,11.119-11.914,18-16.087A83.878,83.878,0,0,1,37.3,33.145c.258-.109-.084.027.114-.049.1-.039.2-.073.307-.11l1.119-.4,3.616-1.3c2.807-1.009,5.6-2.175,8.467-2.995l7.929-2.263,14.217-4.058,17.079-4.875,16.592-4.736,12.5-3.568,5.072-1.448A105.881,105.881,0,0,1,150.24,3.419l13.545-.394,15.847-.461,2.763-.08c1.594-.046,1.6-2.529,0-2.482L172.251.3l-17.12.5c-5.223.152-10.432.281-15.626.936a116.136,116.136,0,0,0-17.369,3.651l-9.444,2.7-15.206,4.34-17.413,4.97L64.051,21.959,52.774,25.178c-1.467.419-2.926.817-4.361,1.332-4.518,1.624-9.193,3.025-13.56,5.028A81.573,81.573,0,0,0,14.013,44.866C8.041,50.27,3.073,57.063,1.039,64.95a33.367,33.367,0,0,0-.768,12.5c.2,1.587.536,3.143.848,4.709l1.526,7.664,2.793,14.028,3.444,17.3,3.467,17.415,2.915,14.64,1.733,8.7.232,1.165a1.249,1.249,0,0,0,1.527.867,60.8,60.8,0,0,0,7.209-3.341c3.527-1.769,7.034-3.577,10.564-5.339,3.252-1.623,6.516-3.257,9.874-4.652,3.841-1.595,7.935-2.164,12.036-2.75a81.438,81.438,0,0,1,17.772-.9,1.253,1.253,0,0,0,1.2-1.571l-4.8-19.507L65.018,95.036l-1.737-7.059L62.415,89.5,70.8,87.572l20.13-4.639,24.255-5.589,21.04-4.848c3.385-.78,6.867-1.393,10.206-2.352.045-.013.093-.021.139-.032,1.556-.359.9-2.753-.66-2.394Z" transform="translate(63.089 93.078)"/>
    <path id="Path-75" data-name="Path" d="M.038,10.293C-.559,7.365,5.868,3.4,15.841,0l4.476,13.434C8.917,14.466.667,13.376.038,10.293Z" transform="translate(81.582 245.328)"/>
    <path id="Path-76" data-name="Path" d="M2.455,11.2q-.036-.2.011.09,0-.061,0-.122c-.042-.035.067-.463-.015-.041a3.19,3.19,0,0,1,.143-.508c-.116.311.048-.077.082-.138.05-.09.1-.179.162-.265s.123-.182.189-.268c-.146.191.068-.075.1-.111a13.859,13.859,0,0,1,3.006-2.4A54.8,54.8,0,0,1,17.391,2.435l-1.527-.867L19.773,13.3,20.34,15l1.2-1.571a61.354,61.354,0,0,1-13.657.045A20.9,20.9,0,0,1,5.6,13.04,12.582,12.582,0,0,1,3.926,12.5a6.275,6.275,0,0,1-.733-.394q-.128-.081-.251-.17c.251.182-.067-.06-.112-.106-.082-.084-.163-.166-.24-.255.12.139.078.125,0-.017-.047-.086-.164-.4-.05-.056-.033-.1-.063-.2-.086-.3-.351-1.558-2.745-.9-2.394.66C.686,14.629,4.424,15.43,6.769,15.8a60.4,60.4,0,0,0,14.768.112,1.257,1.257,0,0,0,1.2-1.571L18.825,2.609l-.567-1.7A1.258,1.258,0,0,0,16.731.041,54.185,54.185,0,0,0,4.275,5.683C2.242,7.031-.443,9.086.062,11.861a1.252,1.252,0,0,0,1.527.867A1.268,1.268,0,0,0,2.455,11.2Z" transform="translate(80.362 244.089)"/>
    <path id="Path-77" data-name="Path" d="M15.622,2.518C25.992.4,35.468-.362,41.876.157l.819,3.35a21.163,21.163,0,0,0,6.183,10.507L64.318,28.3q.278.258.548.524a20.955,20.955,0,0,1,5.907,17.6l-.319,2.483L38.182,50.148l-21.1-4.965L15.012,39.8,7.393,30.281A30.816,30.816,0,0,1,.815,14.308L0,6.688A128.743,128.743,0,0,1,15.622,2.518Z" transform="translate(97.423 238.641)" fill="#fc7272"/>
    <path id="Path-78" data-name="Path" d="M17.194,4.953c8.444-1.713,17.289-3,25.923-2.317l-1.2-.911c.367,1.5.684,3.025,1.135,4.5a22.71,22.71,0,0,0,4.686,8.365,75.684,75.684,0,0,0,5.519,5.256l8.228,7.615a39.323,39.323,0,0,1,5.942,6.081A19.761,19.761,0,0,1,70.868,43a32.951,32.951,0,0,1-.414,7.142L71.7,48.9l-8.023.309L48.49,49.8l-6.154.237-1.939.075a3.626,3.626,0,0,0-.924.036c-.173.061.428.11.22.032a3.636,3.636,0,0,0-.441-.1l-1.962-.462-6.671-1.57-7.336-1.727c-1.461-.344-2.929-.776-4.407-1.037-.075-.013-.149-.035-.223-.053l.867.867L18.33,43a11.1,11.1,0,0,0-1.217-2.857c-1.431-1.816-2.89-3.612-4.334-5.418-1.481-1.852-3.057-3.666-4.4-5.622A29.87,29.87,0,0,1,3.287,15.44q-.407-3.757-.8-7.514l-.911,1.2a129.162,129.162,0,0,1,15.622-4.17c1.564-.321.9-2.714-.66-2.394A129.151,129.151,0,0,0,.911,6.729,1.263,1.263,0,0,0,0,7.926c.534,4.989.755,10.149,2.437,14.915a33.276,33.276,0,0,0,5.457,9.727q1.9,2.382,3.809,4.761l3.674,4.592-.319-.548,1.06,2.757c.351.914.641,1.89,1.071,2.77.347.709.986.761,1.657.919l2.578.607,15.439,3.633a12.459,12.459,0,0,0,2.74.562c1.337,0,2.682-.1,4.017-.154l16.266-.626c3.87-.149,7.751-.226,11.618-.447.064,0,.128,0,.192-.007a1.283,1.283,0,0,0,1.241-1.241,37.191,37.191,0,0,0,.484-5.983,22.7,22.7,0,0,0-2.328-9.289,21.725,21.725,0,0,0-4.71-6.26q-.937-.871-1.878-1.738c-4.491-4.156-9-8.3-13.473-12.469a20.073,20.073,0,0,1-5.2-7.71,52.159,52.159,0,0,1-1.515-5.631,1.273,1.273,0,0,0-1.2-.911,70.657,70.657,0,0,0-11.764.2,134.157,134.157,0,0,0-14.819,2.2C14.97,2.877,15.632,5.27,17.194,4.953Z" transform="translate(96.181 237.402)"/>
    <path id="Path-79" data-name="Path" d="M7.171,28.784,0,0" transform="translate(120.382 162.27)" fill="#fff"/>
    <path id="Path-80" data-name="Path" d="M9.607,29.668,7.184,19.942,3.322,4.441,2.436.884a1.242,1.242,0,0,0-2.394.66L2.465,11.27l3.862,15.5.886,3.557a1.242,1.242,0,0,0,2.394-.66Z" transform="translate(119.143 161.055)"/>
    <path id="Path-81" data-name="Path" d="M0,2.077A34.118,34.118,0,0,0,34.2,31.27,34.118,34.118,0,0,0,67.636,1.216a96.477,96.477,0,0,0-29.76-.122A94.934,94.934,0,0,1,22.224.681Z" transform="translate(201.922 94.061)" fill="#fff"/>
    <path id="Path-82" data-name="Path" d="M.038,3.627A35.349,35.349,0,0,0,35.6,33.729,35.349,35.349,0,0,0,70.112,2.437a1.237,1.237,0,0,0-.911-1.2A75.224,75.224,0,0,0,57.8.081,101.714,101.714,0,0,0,46.064.29c-2.248.171-4.472.479-6.709.744a52.772,52.772,0,0,1-6.532.154c-2.687-.02-5.379-.12-8.054-.379q-.411-.04-.821-.086c-.17-.02-.773-.1-.144-.014a4.219,4.219,0,0,0-.872-.013L11.692,1.4,1.235,2.056c-1.587.1-1.6,2.583,0,2.482L22.207,3.222a6.616,6.616,0,0,0,1.151-.072c.266-.068-.247-.053-.2-.047.245.032.49.066.736.095,2.036.238,4.088.349,6.136.416q2.88.095,5.763.041c1.1-.019,2.225,0,3.32-.1,1.135-.107,2.265-.32,3.4-.448a100.016,100.016,0,0,1,12.478-.617A96.971,96.971,0,0,1,65,3.115q.438.051.875.107l.344.045c-.277-.036.037.005.1.013.406.057.812.116,1.216.18.338.054.676.108,1.012.174l-.911-1.2A32.888,32.888,0,0,1,35.263,31.244,32.888,32.888,0,0,1,2.431,2.968,1.249,1.249,0,0,0,.9,2.1,1.273,1.273,0,0,0,.038,3.627Z" transform="translate(200.687 92.84)"/>
    <path id="Path-83" data-name="Path" d="M43.094,0A21.556,21.556,0,1,1,0,1.254Z" transform="translate(214.318 93.973)" fill="#fc7272"/>
    <path id="Path-84" data-name="Path" d="M43.094,1.242a20.509,20.509,0,0,1-12.7,19.478A20.325,20.325,0,0,1,2.482,2.5L1.241,3.737l14.583-.424,23.217-.676,5.293-.154c1.594-.046,1.6-2.529,0-2.482L29.752.425,6.535,1.1l-5.293.154A1.258,1.258,0,0,0,0,2.5,22.8,22.8,0,0,0,45.576,1.242,1.242,1.242,0,0,0,43.094,1.242Z" transform="translate(213.077 92.731)"/>
    <path id="Path-85" data-name="Path" d="M.91,3.039a28.456,28.456,0,0,0,11.337-.595,1.242,1.242,0,0,0-.66-2.394,24.461,24.461,0,0,1-6.86.777Q3.514.813,2.3.713C2.051.691,1.8.667,1.547.639,1.393.621.929.557,1.57.646a1.284,1.284,0,0,0-1.527.867A1.25,1.25,0,0,0,.91,3.04Z" transform="translate(224.377 86.408)"/>
    <path id="Path-86" data-name="Path" d="M40.062,79.409,39.3,64.238c7.035-1.65,12.972-4.679,15.368-9.042C61.743,42.32,51.9,0,51.9,0L.888,2.558s-3.281,43.6,2.768,55.2c1.228,2.353,3.767,4.176,7.095,5.479l-.273,13.325" transform="translate(211.185 19.839)" fill="#fc7272"/>
    <path id="Path-87" data-name="Path" d="M42.547,80.65l-.664-13.245-.1-1.926-.911,1.2c6.6-1.565,14.168-4.551,16.891-11.3,1.78-4.414,1.958-9.509,1.946-14.206A137.084,137.084,0,0,0,58.4,23.847q-1-7.711-2.483-15.35c-.476-2.479-.859-5.049-1.552-7.48-.01-.035-.016-.071-.024-.106A1.251,1.251,0,0,0,53.145,0L48.07.254,35.885.866l-14.741.739L8.4,2.244c-2.057.1-4.125.153-6.178.31l-.092,0A1.276,1.276,0,0,0,.89,3.8C.435,9.856.2,15.936.073,22.007c-.111,5.351-.11,10.708.113,16.056A99.928,99.928,0,0,0,1.662,52.708a28.349,28.349,0,0,0,1.779,6.1c1.531,3.484,4.809,5.505,8.224,6.863l-.911-1.2-.238,11.638L10.481,77.8a1.242,1.242,0,0,0,2.482,0L13.2,66.162l.035-1.688a1.281,1.281,0,0,0-.911-1.2c-2.843-1.13-5.4-2.793-6.7-5.637-.023-.05-.144-.345-.023-.051-.037-.09-.074-.179-.109-.27-.072-.187-.143-.374-.21-.562-.143-.4-.272-.805-.393-1.212-.268-.906-.489-1.825-.681-2.749a87.524,87.524,0,0,1-1.5-13.834c-.449-9.592-.214-19.222.28-28.807.109-2.119.227-4.24.386-6.356L2.131,5.041l5.074-.254,12.186-.611,14.741-.739L46.874,2.8l4.181-.21a17.99,17.99,0,0,0,2-.1.836.836,0,0,1,.092,0l-1.2-.911c.452,1.945.852,3.9,1.24,5.863q1.383,6.965,2.4,14a155.871,155.871,0,0,1,1.588,16.854c.162,4.893.141,9.835-1.144,14.461-.127.458-.269.911-.429,1.359q-.119.332-.252.659c-.024.06.056-.12-.04.092-.05.11-.1.22-.151.329a10.857,10.857,0,0,1-2.342,3.2,23.811,23.811,0,0,1-9.5,5.053c-1.025.319-2.062.595-3.107.843a1.252,1.252,0,0,0-.911,1.2l.664,13.245.1,1.926c.08,1.59,2.563,1.6,2.482,0Z" transform="translate(209.942 18.597)"/>
    <path id="Path-88" data-name="Path" d="M11.824,1.314a10.972,10.972,0,0,0-11.218.5,1.268,1.268,0,0,0-.445,1.7,1.255,1.255,0,0,0,1.7.445,9.154,9.154,0,0,1,3.39-1.372,7.781,7.781,0,0,1,1.412-.1q.4,0,.8.04c.028,0,.35.037.213.02-.107-.013.214.034.258.041.727.126,1.381.412,2.086.593.152.039-.258-.119-.069-.029.056.026.113.05.169.076.082.038.163.077.243.118s.144.074.213.115a1.242,1.242,0,0,0,1.253-2.144Z" transform="translate(238.029 42.982)"/>
    <path id="Path-89" data-name="Path" d="M7.331.316A10.916,10.916,0,0,0,.906.689,1.271,1.271,0,0,0,.039,2.216a1.255,1.255,0,0,0,1.527.867,9.777,9.777,0,0,1,1.559-.462c.133-.027.268-.048.4-.073s.132-.021-.034,0l.2-.023q.356-.037.714-.048a9.729,9.729,0,0,1,1.327.053l.124.014q.207.026-.086-.012a1.076,1.076,0,0,0,.314.051c.2.035.394.077.59.123A1.242,1.242,0,1,0,7.331.316Z" transform="translate(241.477 49.76)"/>
    <path id="Path-90" data-name="Path" d="M7.3.172a11.226,11.226,0,0,0-6.686.873,1.246,1.246,0,0,0-.445,1.7,1.276,1.276,0,0,0,1.7.445l.206-.094q-.188.077.012,0c.135-.052.27-.1.408-.152q.347-.12.7-.214.387-.1.783-.169c.1-.016.191-.035.287-.045-.351.037.073,0,.139-.009a9.734,9.734,0,0,1,1.323-.027q.284.013.568.043c.1.01.433.1.053,0,.094.023.2.03.292.046A1.272,1.272,0,0,0,8.166,1.7,1.256,1.256,0,0,0,7.3.172Z" transform="translate(259.165 48.428)"/>
    <path id="Path-91" data-name="Path" d="M12.444.7A11.652,11.652,0,0,0,8.855.027,8.9,8.9,0,0,0,2.906,1.438a7.218,7.218,0,0,0-2.869,4.8,9.812,9.812,0,0,0,1,5.235,18.948,18.948,0,0,0,4.29,5.9L5,16.824a1.683,1.683,0,0,1,.051.648c-.035.128-.057.058.017.025a1.5,1.5,0,0,1-.158.156q.146-.118-.041.006a5.942,5.942,0,0,1-2.569.205c-1.595-.106-1.588,2.376,0,2.482,1.826.122,4.454.013,5.113-2.109a3.252,3.252,0,0,0,.128-1.168,2.41,2.41,0,0,0-.77-1.752A17.777,17.777,0,0,1,4.227,12.2c-1-1.583-2.007-3.674-1.753-5.6a4.754,4.754,0,0,1,3.692-3.96,10.223,10.223,0,0,1,5.619.459,1.25,1.25,0,0,0,1.527-.867A1.271,1.271,0,0,0,12.445.7Z" transform="translate(254.813 42.18)"/>
    <path id="Path-92" data-name="Path" d="M8.889,9.106A29.272,29.272,0,0,0,7.537,5.689,12.359,12.359,0,0,0,4.008.766,3.652,3.652,0,0,0,.912.1,1.242,1.242,0,0,0,1.572,2.5a.98.98,0,0,0,.236-.051c-.176.124-.29.019-.154.025.048,0,.1,0,.145,0s.349.031.094,0,.058.018.119.035c.076.021.149.051.224.073.179.052-.126-.039-.13-.056,0,.018.116.055.137.067.158.09.306.188.458.287.13.085-.211-.183.011.014.078.069.156.137.231.209.148.142.289.291.424.446.066.076.13.153.193.23.225.272-.1-.149.065.084.131.182.261.364.385.551A19.013,19.013,0,0,1,5.328,6.8q.137.292.267.588c.039.089.077.178.116.267.02.046.083.2.007.015-.085-.206.013.033.03.075q.2.48.379.965c.13.348.257.7.369,1.053a1.242,1.242,0,1,0,2.394-.66Z" transform="translate(221.434 48.018)"/>
    <path id="Path-93" data-name="Path" d="M49.6,0C24.225.064,5.883,11.861,1.082,20.561c2.169.088,4.428.075,6.173.039A27.881,27.881,0,0,0,.09,28.12a.551.551,0,0,0,.73.783,15.957,15.957,0,0,1,5.662-1.737,39.758,39.758,0,0,0-2.845,12.2C2.949,48.142,8.27,62.45,12.362,71.7A17.085,17.085,0,0,0,25.9,81.757h0L26.518,63.2c-2.743-1.93-6.928-9.622-7.155-14.144-.342-6.831,3.244-8.622,8.016-8.862s10.5,8.51,10.832,15.168l-.626-20.513S71.5,37.763,73.313,22.982C73.313,22.982,74.977-.064,49.6,0Z" transform="translate(195.91 1.241)" fill="#ffc41f"/>
    <path id="Path-94" data-name="Path" d="M50.823,0A77.465,77.465,0,0,0,24.265,4.643,55.261,55.261,0,0,0,6.453,14.926a24.864,24.864,0,0,0-5.22,6.25A1.255,1.255,0,0,0,2.3,23.044c2.057.079,4.115.08,6.173.039L7.851,20.77A29.806,29.806,0,0,0,.628,28.16c-.556.807-.939,1.683-.283,2.57a1.856,1.856,0,0,0,2.446.421,15.648,15.648,0,0,1,4.913-1.5l-1.2-1.571a39.383,39.383,0,0,0-2.93,13.212A41.913,41.913,0,0,0,5.213,53.271,112.975,112.975,0,0,0,9.425,66.134q1.168,3.015,2.453,5.984a23.243,23.243,0,0,0,3.066,5.41A18.48,18.48,0,0,0,27.127,84.24L25.886,83h0a1.242,1.242,0,0,0,2.482,0l.285-8.625c.107-3.253.352-6.534.323-9.789-.009-.985-.7-1.239-1.269-1.819A16.82,16.82,0,0,1,25.479,59.8a25.9,25.9,0,0,1-3.446-8.057c-.474-2.2-.393-5.251,1.041-6.98,1.294-1.561,3.482-2.03,5.527-2.094a5,5,0,0,1,3.167,1.264,14.5,14.5,0,0,1,2.956,3.286A19.122,19.122,0,0,1,38.191,56.6c.091,1.583,2.532,1.608,2.483,0l-.548-17.964-.078-2.55-1.241,1.241a84.156,84.156,0,0,0,11.211.126c6.457-.312,13.486-1.094,19.225-4.3,3.809-2.128,6.636-5.693,6.552-10.185A25.569,25.569,0,0,0,72.35,10.376a20.071,20.071,0,0,0-6.461-6.624A25.767,25.767,0,0,0,54.5.165C53.276.048,52.05,0,50.823,0a1.242,1.242,0,0,0,0,2.482A27.4,27.4,0,0,1,62.659,4.8a18.541,18.541,0,0,1,3.9,2.513,18.279,18.279,0,0,1,1.526,1.473,14.919,14.919,0,0,1,1.235,1.5,20.2,20.2,0,0,1,1.959,3.389c.059.13.117.26.174.391.138.314-.06-.149.02.045.027.065.054.13.08.195.115.289.226.578.331.871q.292.819.524,1.659a26.061,26.061,0,0,1,.656,3.1c.016.106.03.211.046.317.026.18-.04-.327-.008-.059.006.051.013.1.019.152.025.219.051.437.072.657q.055.567.086,1.137c.029.537.042,1.076.03,1.615,0,.127-.007.253-.013.38,0,.028,0,.055,0,.083.016-.208-.045.26-.066.366a9.142,9.142,0,0,1-.235.929q-.066.211-.141.419-.047.129-.1.257c-.087.218.035-.076-.025.055a9.9,9.9,0,0,1-.955,1.637c-.042.059-.086.117-.13.174.138-.179.019-.028-.009.005-.105.126-.211.252-.321.374-.235.261-.482.511-.74.75a8.942,8.942,0,0,1-1.367,1.08,23.755,23.755,0,0,1-8.163,3.28,55.789,55.789,0,0,1-9.394,1.336,121.522,121.522,0,0,1-12.635-.015c-.07,0-.14-.011-.21-.017a1.25,1.25,0,0,0-1.241,1.241l.548,17.964.078,2.55h2.483a21.593,21.593,0,0,0-4.212-11.206c-1.966-2.7-4.764-5.443-8.355-5.172-3.067.231-6.254,1.259-7.738,4.188-1.714,3.382-1.137,7.484.148,10.9a32.574,32.574,0,0,0,3.026,6.075,14.705,14.705,0,0,0,3.572,4.126L26.5,64.437,25.962,80.7,25.886,83h2.482a1.279,1.279,0,0,0-1.241-1.241A15.972,15.972,0,0,1,17.3,76.495,18.183,18.183,0,0,1,14.341,71.6q-1.191-2.727-2.277-5.5a119.166,119.166,0,0,1-4.138-12.28A45.33,45.33,0,0,1,6.041,42.44a35.783,35.783,0,0,1,2.86-13.7,1.245,1.245,0,0,0-1.2-1.571,20.341,20.341,0,0,0-2.946.561,15.754,15.754,0,0,0-1.569.527c-.265.105-.529.216-.789.333q-.249.11-.493.231-.806.271.572.707l-.169.626a11.851,11.851,0,0,1,1.615-2.294q.843-1.046,1.781-2.01a25.221,25.221,0,0,1,3.4-2.934A1.252,1.252,0,0,0,8.478,20.6c-2.058.041-4.116.04-6.173-.039l1.072,1.868a20.706,20.706,0,0,1,4.146-5.115A41.642,41.642,0,0,1,14.443,12.1,65.348,65.348,0,0,1,35.464,4.033a77.8,77.8,0,0,1,15.359-1.55A1.242,1.242,0,0,0,50.823,0Z" transform="translate(194.687)"/>
    <path id="Path-95" data-name="Path" d="M10.516.05A22.838,22.838,0,0,1,8.171.518q-.321.053-.644.1L7.2.665c-.053.008-.383.053-.128.019C6.536.756,6,.819,5.454.876c-1.4.148-2.806.25-4.213.322A1.268,1.268,0,0,0,0,2.44,1.253,1.253,0,0,0,1.241,3.681a69.872,69.872,0,0,0,7.5-.754,23.286,23.286,0,0,0,2.439-.483A1.242,1.242,0,0,0,10.515.05Z" transform="translate(241.609 82.323)"/>
    <path id="Path-96" data-name="Path" d="M2.293.633A24.087,24.087,0,0,0,0,9.023,1.252,1.252,0,0,0,2.123,9.9a39.086,39.086,0,0,1,4.6-4.868l-1.208.319A56.234,56.234,0,0,0,20.676,8.6a21.336,21.336,0,0,0,5.775-.353c1.561-.336.9-2.73-.66-2.394a25.457,25.457,0,0,1-9.694-.3A68.73,68.73,0,0,1,7.816,3.5c-.548-.171-1.1-.345-1.638-.537a1.243,1.243,0,0,0-1.208.319,39.081,39.081,0,0,0-4.6,4.867l2.119.877a22.2,22.2,0,0,1,1.152-5.14q.152-.444.321-.882.066-.171.134-.34c.016-.04.155-.371.064-.158.089-.208.18-.415.28-.618C5.143.458,3-.8,2.294.632Z" transform="translate(198.853 27.284)"/>
    <circle id="Oval" cx="4.965" cy="4.965" r="4.965" transform="translate(9.413 182.456)" fill="#ea2f2f"/>
    <circle id="Oval-2" data-name="Oval" cx="4.965" cy="4.965" r="4.965" transform="translate(27.204 182.456)" fill="#ffc41f"/>
    <circle id="Oval-3" data-name="Oval" cx="4.965" cy="4.965" r="4.965" transform="translate(44.995 182.456)" fill="#389b48"/>
    <path id="Path-97" data-name="Path" d="M1.2,2.482h9.93a1.242,1.242,0,0,0,0-2.482H1.2A1.242,1.242,0,0,0,1.2,2.482Z" transform="translate(419.476 194.455)"/>
    <path id="Path-98" data-name="Path" d="M.041,1.545Q1.752,8.477,3.831,15.317c.95,3.145,1.845,6.18,3.99,8.742a15.241,15.241,0,0,0,7.109,4.692,15.691,15.691,0,0,0,7.04.46c.894-.134,1.788-.272,2.682-.408l11.109-1.69,8.059-1.226a1.25,1.25,0,0,0,.867-1.527,1.272,1.272,0,0,0-1.527-.867L25.629,26.159c-2.489.379-5.075.983-7.6.719a12.74,12.74,0,0,1-9.543-6.14,18.645,18.645,0,0,1-1.634-4.052Q4.4,8.861,2.435.885a1.242,1.242,0,0,0-2.394.66Z" transform="translate(337.184 482.902)"/>
    <path id="Path-99" data-name="Path" d="M7.244,0C12.51,4.977,21.817,14.615,27.273,25.18c4.76,9.565-2.125,11.957-9.03,4.089C8.689,18.382,5.552,11.845,0,8.866" transform="translate(146.362 271.647)" fill="#fc7272"/>
    <path id="Path-100" data-name="Path" d="M7.608,2.1A126.2,126.2,0,0,1,18.538,13.785a87.018,87.018,0,0,1,5.781,7.884c1.652,2.556,3.457,5.294,4.249,8.263a7.622,7.622,0,0,1,.276,1.581,3.5,3.5,0,0,1-.083,1.2c-.023.094-.208.562-.114.372-.045.092-.237.4-.188.338s-.191.2-.257.257c.166-.147-.242.144-.356.195.243-.108-.185.039-.264.06-.062.016-.3.045-.061.018a2.266,2.266,0,0,1-.235.016,3.211,3.211,0,0,1-1.164-.15,9,9,0,0,1-2.829-1.454,19.82,19.82,0,0,1-3.311-3.183q-1.763-2.024-3.459-4.1c-1.8-2.2-3.532-4.452-5.273-6.7C8.563,14.914,5.8,11.155,1.868,9.02.464,8.258-.791,10.4.615,11.164c3.453,1.873,6.011,5.284,8.475,8.452,1.828,2.35,3.638,4.714,5.518,7.023,2.219,2.727,4.416,5.649,7.267,7.75,1.756,1.294,4.123,2.465,6.365,1.939a4.277,4.277,0,0,0,3.092-4.358c.066-3.068-1.568-6-3.051-8.576a78.385,78.385,0,0,0-5.687-8.45A123.129,123.129,0,0,0,9.364.348C8.2-.75,6.445,1,7.608,2.1Z" transform="translate(145.12 270.422)"/>
    <path id="Path-101" data-name="Path" d="M36.967,43.073c-6.242.859-12.625-2.578-26.757-5.755C0,35.022-4.161,41.009,5.317,45.939c10.629,5.33,23.827,7.642,31.013,8.566h0A14.219,14.219,0,0,0,51.445,43.1l4.429-22.359A14.219,14.219,0,0,0,45.139,4.123L30.347,0V21.929" transform="translate(410.601 235.416)" fill="#fc7272"/>
    <path id="Path-102" data-name="Path" d="M38.159,43.07a18.364,18.364,0,0,1-6.529-.421c-2.959-.641-5.856-1.558-8.763-2.4a117.1,117.1,0,0,0-12.24-3.114c-2.985-.519-6.808-.719-9.275,1.395-2.107,1.8-1.5,4.539.105,6.438a14.21,14.21,0,0,0,4.31,3.217,58.151,58.151,0,0,0,5.786,2.562,105.589,105.589,0,0,0,22.3,5.718,38.094,38.094,0,0,0,4.286.554,15.237,15.237,0,0,0,5.29-.735A15.709,15.709,0,0,0,51.55,50.15c2.143-3.175,2.585-7.012,3.312-10.679l2.7-13.646c.227-1.148.46-2.3.682-3.445a15.488,15.488,0,0,0-7.56-16.653,24.272,24.272,0,0,0-5.468-1.966L32.863.318,31.869.041a1.254,1.254,0,0,0-1.571,1.2V23.167a1.242,1.242,0,0,0,2.482,0V1.238l-1.571,1.2L41.222,5.226c1.524.425,3.046.861,4.574,1.275a13.958,13.958,0,0,1,6.613,3.648,13,13,0,0,1,3.672,8.338,17.6,17.6,0,0,1-.449,4.358l-2.357,11.9c-.609,3.073-1.2,6.149-1.826,9.219A13.121,13.121,0,0,1,38.966,54.548a22.279,22.279,0,0,1-3.835-.38q-2.362-.354-4.711-.791c-3.554-.663-7.082-1.47-10.558-2.462A75.905,75.905,0,0,1,8.671,46.847a17.843,17.843,0,0,1-4.749-2.892A5.863,5.863,0,0,1,2.8,42.622c-.067-.115-.133-.233-.189-.355-.012-.027-.086-.223-.022-.052-.042-.113-.071-.228-.107-.342q-.028-.111-.049-.224.025.219,0,0c0-.107,0-.213,0-.32.01-.33-.072.233.014-.081.028-.1.053-.2.088-.3-.1.27.02-.034.049-.08.057-.09.109-.182.173-.267-.164.218.067-.061.091-.084a1.866,1.866,0,0,1,.5-.395A7.018,7.018,0,0,1,6.7,39.3a21.743,21.743,0,0,1,5.755.771q3.011.7,5.995,1.521c3.159.86,6.288,1.827,9.447,2.687a36.023,36.023,0,0,0,7.219,1.374,15.713,15.713,0,0,0,3.038-.1A1.282,1.282,0,0,0,39.4,44.312c0-.6-.572-1.33-1.241-1.241Z" transform="translate(409.41 234.177)"/>
    <path id="Path-103" data-name="Path" d="M36.155,18.06C28.98,17.049,15.811,14.577,5.248,9.119-4.17,4.074.06-1.862,10.245.558,24.337,3.906,30.679,7.42,36.93,6.637" transform="translate(412.738 262.786)" fill="#fc7272"/>
    <path id="Path-104" data-name="Path" d="M37.694,18.1A126.11,126.11,0,0,1,22.041,14.91a90.98,90.98,0,0,1-9.108-2.987,32.406,32.406,0,0,1-8.313-4.2A6.423,6.423,0,0,1,2.612,5.39a2.934,2.934,0,0,1-.161-.729c0-.071,0-.141.006-.212.018-.331-.04.165.008-.03.021-.084.043-.166.068-.248.09-.3-.117.187.038-.083a2.709,2.709,0,0,1,1.387-1.1,8.591,8.591,0,0,1,3.2-.5c3.28.018,6.556,1.119,9.691,1.983,2.757.759,5.491,1.6,8.228,2.425,4.178,1.265,8.637,2.763,13.063,2.229a1.28,1.28,0,0,0,1.241-1.241A1.249,1.249,0,0,0,38.14,6.637c-4.038.488-7.865-.773-11.778-1.952-2.867-.863-5.728-1.748-8.614-2.547C14.382,1.206,10.88.068,7.361,0,5.185-.037,2.522.338.986,2.059A4.262,4.262,0,0,0,.966,7.484c1.811,2.532,4.741,3.968,7.5,5.225a81.376,81.376,0,0,0,9.7,3.658A121.324,121.324,0,0,0,37.035,20.5a1.283,1.283,0,0,0,1.527-.867,1.25,1.25,0,0,0-.867-1.527Z" transform="translate(411.528 261.544)"/>
    <path id="Path-105" data-name="Path" d="M35.593,19.17C28.46,17.9,15.391,14.942,5.036,9.1-4.19,3.712.255-2.065,10.344.727,24.3,4.591,30.512,8.337,36.788,7.784" transform="translate(415.178 252.211)" fill="#fc7272"/>
    <path id="Path-106" data-name="Path" d="M37.133,19.217a126.543,126.543,0,0,1-15.292-3.7,88.428,88.428,0,0,1-8.858-3.237C10.159,11.062,7.063,9.76,4.678,7.778A7.023,7.023,0,0,1,2.642,5.369a2.843,2.843,0,0,1-.189-.78c0-.073,0-.146,0-.218.012-.336-.071.228.016-.091.018-.068.036-.135.056-.2.086-.3-.115.184.037-.09A2.552,2.552,0,0,1,3.975,2.9a8.7,8.7,0,0,1,3.245-.405c3.224.12,6.417,1.33,9.468,2.288,2.791.877,5.555,1.834,8.321,2.784,4.139,1.422,8.536,3.074,12.99,2.7,1.581-.132,1.595-2.616,0-2.483a16.258,16.258,0,0,1-5.275-.45A65.437,65.437,0,0,1,26.2,5.356c-2.827-.967-5.648-1.953-8.5-2.854C14.376,1.448,10.938.2,7.423.021,5.241-.093,2.533.223.981,1.953A4.36,4.36,0,0,0,1.022,7.5c1.805,2.525,4.668,4.036,7.384,5.384a82.112,82.112,0,0,0,9.509,3.952A121.565,121.565,0,0,0,36.474,21.61,1.276,1.276,0,0,0,38,20.743a1.252,1.252,0,0,0-.867-1.527Z" transform="translate(413.967 250.968)"/>
    <path id="Path-107" data-name="Path" d="M35.593,19.171C28.46,17.9,15.391,14.942,5.036,9.1-4.19,3.712.255-2.065,10.344.727,24.3,4.591,30.512,8.337,36.788,7.784" transform="translate(417.443 242.118)" fill="#fc7272"/>
    <path id="Path-108" data-name="Path" d="M37.133,19.217a126.544,126.544,0,0,1-15.292-3.7,88.414,88.414,0,0,1-8.858-3.237C10.159,11.062,7.063,9.76,4.678,7.778A7.022,7.022,0,0,1,2.642,5.369a2.842,2.842,0,0,1-.189-.78c0-.073,0-.145,0-.218.012-.336-.071.228.016-.091.018-.068.036-.135.056-.2.086-.3-.115.184.037-.09A2.552,2.552,0,0,1,3.975,2.9a8.7,8.7,0,0,1,3.245-.405c3.224.12,6.417,1.33,9.468,2.288,2.791.877,5.555,1.834,8.322,2.784,4.139,1.422,8.536,3.074,12.99,2.7,1.581-.132,1.595-2.616,0-2.482a16.259,16.259,0,0,1-5.275-.45A65.452,65.452,0,0,1,26.2,5.356c-2.827-.967-5.648-1.953-8.5-2.854C14.376,1.448,10.938.2,7.423.021,5.241-.093,2.533.223.981,1.953A4.36,4.36,0,0,0,1.022,7.5c1.805,2.525,4.668,4.036,7.384,5.384a82.116,82.116,0,0,0,9.509,3.952A121.566,121.566,0,0,0,36.474,21.61,1.276,1.276,0,0,0,38,20.743a1.252,1.252,0,0,0-.867-1.527Z" transform="translate(416.232 240.875)"/>
    <path id="Path-109" data-name="Path" d="M10.927,0c4.6,5.241,12.629,15.329,17.066,26.323,3.851,9.965-3.815,10.358-9.788,1.762S5.251,10.466,0,6.984" transform="translate(134.364 277.668)" fill="#fc7272"/>
    <path id="Path-110" data-name="Path" d="M11.24,2.159A116.85,116.85,0,0,1,20.31,13.9a90.739,90.739,0,0,1,4.7,7.764,39.5,39.5,0,0,1,3.611,8.2,8,8,0,0,1,.328,2.917s-.026.176-.072.355c-.024.092-.157.465-.12.385s-.143.242-.185.3c.15-.227-.111.111-.186.181.212-.2-.083.046-.17.1-.038.022-.222.1-.065.035.185-.073-.111.029-.122.031-.105.02-.43.064-.16.043a4.477,4.477,0,0,1-.533,0c-.353-.014.152.032-.066,0-.1-.015-.2-.035-.293-.057-.164-.037-.326-.083-.486-.134a5.688,5.688,0,0,1-1.13-.513,15.853,15.853,0,0,1-4.973-4.884c-1.868-2.676-3.772-5.327-5.756-7.919-2.089-2.729-4.246-5.415-6.582-7.938a36.06,36.06,0,0,0-6.236-5.58C.486,6.3-.758,8.45.564,9.336a32.889,32.889,0,0,1,5.578,5.024c2.192,2.351,4.23,4.846,6.188,7.393,2.12,2.758,4.116,5.6,6.131,8.435a18.2,18.2,0,0,0,5.65,5.468c1.548.872,3.541,1.491,5.236.655,1.659-.818,2.191-2.747,2.108-4.469-.141-2.91-1.458-5.661-2.686-8.249a81.1,81.1,0,0,0-4.783-8.6A118.171,118.171,0,0,0,13,.4c-1.055-1.2-2.8.558-1.755,1.755Z" transform="translate(133.173 276.386)"/>
    <path id="Path-111" data-name="Path" d="M14.876.485c3.384,6.309,8.074,16.409,9.9,26.769,1.7,10.547-5.775,10.868-9.837,1.22S4.415,4.495,0,0" transform="translate(121.886 281.077)" fill="#fc7272"/>
    <path id="Path-112" data-name="Path" d="M15.038,2.363A105.126,105.126,0,0,1,22.313,19.07a59.291,59.291,0,0,1,2.551,10.068,13.114,13.114,0,0,1,.078,3.594,6.7,6.7,0,0,1-.338,1.348,1.073,1.073,0,0,1-.157.342c-.055.1-.379.567-.248.41-.09.107-.189.2-.29.3-.232.225.2-.116-.063.053-.055.035-.112.067-.166.1-.275.183.081.022-.232.1-.062.016-.125.031-.186.048-.289.081.249,0-.055.011a3.817,3.817,0,0,1-.5-.008c.293.026-.161-.041-.245-.064a2.518,2.518,0,0,1-.961-.433c-1.784-1.088-3.079-3.26-3.972-5.21-1.149-2.51-2.171-5.082-3.3-7.6-1.2-2.688-2.434-5.361-3.73-8-1.35-2.753-2.759-5.483-4.332-8.117A30.106,30.106,0,0,0,2.112.374C1-.774-.758.982.357,2.129A26.857,26.857,0,0,1,3.98,7.185c1.477,2.466,2.808,5.02,4.083,7.6,1.372,2.772,2.674,5.578,3.936,8.4,1.187,2.657,2.243,5.382,3.482,8.014a13.569,13.569,0,0,0,4.711,5.86,4.542,4.542,0,0,0,4.989.219c1.773-1.237,2.267-3.557,2.319-5.59.087-3.382-.9-6.854-1.813-10.08A103.507,103.507,0,0,0,17.182,1.11c-.754-1.409-2.9-.157-2.144,1.253Z" transform="translate(120.652 279.826)"/>
    <path id="Path-113" data-name="Path" d="M18.264,9.28a69.608,69.608,0,0,1,4.725,29.75c-.737,10.658-8.092,9.273-9.857-1.046-1.29-7.541-3.262-17.81-5.51-24.891A30.822,30.822,0,0,0,3.06,4.161L0,0" transform="translate(106.997 271.647)" fill="#fc7272"/>
    <path id="Path-114" data-name="Path" d="M18.431,11.135c.023.051.044.1.067.152.115.26-.129-.321-.029-.07.043.109.089.217.133.325.256.637.493,1.281.719,1.929a65.146,65.146,0,0,1,2.008,7.089,71.431,71.431,0,0,1,1.552,10.322q.242,3.185.2,6.383a24.141,24.141,0,0,1-.539,5.813,6.141,6.141,0,0,1-1.49,2.893c-.028.027-.314.234-.09.079-.086.059-.176.11-.264.166-.048.03-.349.151-.066.044-.092.034-.185.058-.278.089-.066.022-.374.053-.048.023-.1.009-.192.006-.287.013-.064,0-.378-.04-.057.011-.133-.021-.259-.058-.39-.09-.042-.01-.356-.135-.093-.022a2.338,2.338,0,0,1-.243-.12,4.925,4.925,0,0,1-.531-.34c.094.072-.315-.293-.409-.389a5.889,5.889,0,0,1-.526-.617A12.126,12.126,0,0,1,16,40.853c-.486-1.792-.719-3.657-1.048-5.483q-.536-2.971-1.125-5.932c-.781-3.912-1.633-7.815-2.669-11.668A38.446,38.446,0,0,0,5.674,5.182C4.577,3.639,3.432,2.127,2.31.6A1.279,1.279,0,0,0,.612.157a1.25,1.25,0,0,0-.445,1.7C1.183,3.237,2.2,4.615,3.215,6A34.142,34.142,0,0,1,8.4,17.121c1.141,4.036,2.051,8.137,2.883,12.246q.627,3.1,1.189,6.2c.347,1.907.59,3.857,1.077,5.735.676,2.605,2,5.813,4.583,7.077,2.3,1.126,4.578.023,5.8-2.089,1.92-3.324,1.7-7.7,1.627-11.4a75.777,75.777,0,0,0-1.249-12.135,69.322,69.322,0,0,0-2.111-8.5,28.256,28.256,0,0,0-1.545-4.2c-.029-.058-.051-.12-.078-.179a1.25,1.25,0,0,0-1.7-.445,1.271,1.271,0,0,0-.445,1.7Z" transform="translate(105.759 270.419)"/>
    <path id="Path-115" data-name="Path" d="M6.207,2.069a4.425,4.425,0,0,1-.527.026q-.278,0-.555-.021c-.1-.008-.2-.023-.306-.031.514.038.04,0-.1-.023a5.969,5.969,0,0,1-.763-.2q-.105-.035-.209-.075c-.291-.11.227.106.034.018-.124-.057-.246-.115-.366-.181a4.6,4.6,0,0,1-.41-.253c-.093-.064-.268-.258,0,.009-.044-.043-.1-.081-.145-.122A4.287,4.287,0,0,1,2.5.853C2.438.786,2.385.71,2.324.646c.26.271.048.055-.01-.031A1.241,1.241,0,1,0,.17,1.868a6,6,0,0,0,3.053,2.32,7.446,7.446,0,0,0,2.518.388,4.257,4.257,0,0,0,.465-.025,1.359,1.359,0,0,0,.878-.364,1.261,1.261,0,0,0,.364-.878c-.027-.6-.551-1.326-1.241-1.241Z" transform="translate(248.97 64.125)"/>
  </g>
</svg>
